G04 MADE WITH FRITZING*
G04 WWW.FRITZING.ORG*
G04 SINGLE SIDED*
G04 HOLES NOT PLATED*
G04 CONTOUR ON CENTER OF CONTOUR VECTOR*
%FSLAX26Y26*%
%MOIN*%
%ADD10C,0.148000X0.132*%
%ADD11R,2.362200X2.559060X2.346200X2.543060*%
%ADD12C,0.008000*%
%ADD13C,0.001764*%
%ADD14C,0.010000*%
%ADD15C,0.005000*%
%ADD16R,0.001000X0.001000*%
G04 SILK1*
%FSLAX26Y26*%
%MOIN*%
D10*
X428000Y566550D03*
D12*
X4000Y2555060D02*
X2358200Y2555060D01*
X2358200Y4000D01*
X4000Y4000D01*
X4000Y2555060D01*
D02*
X513000Y686550D02*
X343000Y686550D01*
D02*
X343000Y446550D02*
X513000Y446550D01*
D02*
X548000Y605840D02*
X548000Y526550D01*
D02*
X308000Y607020D02*
X308000Y526550D01*
D13*
D02*
X1307880Y1925519D02*
X1898440Y1925519D01*
D02*
X1898440Y1925519D02*
X1898440Y783780D01*
D02*
X1898440Y783780D02*
X1307880Y783780D01*
D02*
X1307880Y783780D02*
X1307880Y1925519D01*
D02*
X1642520Y576810D02*
X1642520Y734280D01*
D02*
X1563770Y576810D02*
X1563770Y734280D01*
D14*
D02*
X562500Y1055550D02*
X490500Y1055550D01*
D02*
X290500Y1055550D02*
X237500Y1055550D01*
D02*
X490500Y1022550D02*
X290500Y1022550D01*
D02*
X290500Y1022550D02*
X290500Y1088550D01*
D02*
X290500Y1088550D02*
X490500Y1088550D01*
D02*
X490500Y1088550D02*
X490500Y1022550D01*
D15*
D02*
X2223260Y157140D02*
X870067Y157140D01*
D02*
X868562Y157180D02*
X868562Y2435570D01*
D02*
X2226830Y2435570D02*
X2226830Y157180D01*
D02*
X2226790Y2439110D02*
X873598Y2439110D01*
D14*
X102986Y2104798D02*
X1028180Y2104798D01*
X1028180Y1396140D01*
X102986Y1396140D01*
X102986Y2104798D01*
D02*
D02*
X31162Y1873765D02*
X102853Y1873765D01*
X102853Y1641535D01*
X31162Y1641535D01*
X31162Y1873765D01*
D02*
D02*
D16*
X803500Y2558560D02*
X857500Y2558560D01*
X803500Y2557560D02*
X857500Y2557560D01*
X803500Y2556560D02*
X857500Y2556560D01*
X803500Y2555560D02*
X810500Y2555560D01*
X850500Y2555560D02*
X857500Y2555560D01*
X803500Y2554560D02*
X810500Y2554560D01*
X851500Y2554560D02*
X857500Y2554560D01*
X803500Y2553560D02*
X810500Y2553560D01*
X851500Y2553560D02*
X857500Y2553560D01*
X803500Y2552560D02*
X810500Y2552560D01*
X851500Y2552560D02*
X857500Y2552560D01*
X804500Y2551560D02*
X809500Y2551560D01*
X851500Y2551560D02*
X857500Y2551560D01*
X804500Y2550560D02*
X809500Y2550560D01*
X851500Y2550560D02*
X856500Y2550560D01*
X805500Y2549560D02*
X808500Y2549560D01*
X852500Y2549560D02*
X855500Y2549560D01*
X805500Y2533560D02*
X808500Y2533560D01*
X852500Y2533560D02*
X855500Y2533560D01*
X804500Y2532560D02*
X809500Y2532560D01*
X851500Y2532560D02*
X856500Y2532560D01*
X804500Y2531560D02*
X809500Y2531560D01*
X851500Y2531560D02*
X856500Y2531560D01*
X804500Y2530560D02*
X810500Y2530560D01*
X851500Y2530560D02*
X857500Y2530560D01*
X803500Y2529560D02*
X810500Y2529560D01*
X851500Y2529560D02*
X857500Y2529560D01*
X803500Y2528560D02*
X810500Y2528560D01*
X851500Y2528560D02*
X857500Y2528560D01*
X803500Y2527560D02*
X810500Y2527560D01*
X851500Y2527560D02*
X857500Y2527560D01*
X803500Y2526560D02*
X810500Y2526560D01*
X851500Y2526560D02*
X857500Y2526560D01*
X803500Y2525560D02*
X810500Y2525560D01*
X851500Y2525560D02*
X857500Y2525560D01*
X803500Y2524560D02*
X810500Y2524560D01*
X851500Y2524560D02*
X857500Y2524560D01*
X803500Y2523560D02*
X810500Y2523560D01*
X851500Y2523560D02*
X857500Y2523560D01*
X803500Y2522560D02*
X810500Y2522560D01*
X851500Y2522560D02*
X857500Y2522560D01*
X803500Y2521560D02*
X810500Y2521560D01*
X851500Y2521560D02*
X857500Y2521560D01*
X803500Y2520560D02*
X810500Y2520560D01*
X851500Y2520560D02*
X857500Y2520560D01*
X803500Y2519560D02*
X810500Y2519560D01*
X851500Y2519560D02*
X857500Y2519560D01*
X803500Y2518560D02*
X810500Y2518560D01*
X851500Y2518560D02*
X857500Y2518560D01*
X804500Y2517560D02*
X810500Y2517560D01*
X851500Y2517560D02*
X857500Y2517560D01*
X804500Y2516560D02*
X810500Y2516560D01*
X850500Y2516560D02*
X856500Y2516560D01*
X804500Y2515560D02*
X811500Y2515560D01*
X850500Y2515560D02*
X856500Y2515560D01*
X804500Y2514560D02*
X812500Y2514560D01*
X848500Y2514560D02*
X856500Y2514560D01*
X804500Y2513560D02*
X814500Y2513560D01*
X846500Y2513560D02*
X856500Y2513560D01*
X805500Y2512560D02*
X816500Y2512560D01*
X844500Y2512560D02*
X855500Y2512560D01*
X806500Y2511560D02*
X818500Y2511560D01*
X842500Y2511560D02*
X854500Y2511560D01*
X806500Y2510560D02*
X820500Y2510560D01*
X840500Y2510560D02*
X854500Y2510560D01*
X807500Y2509560D02*
X822500Y2509560D01*
X839500Y2509560D02*
X852500Y2509560D01*
X809500Y2508560D02*
X824500Y2508560D01*
X837500Y2508560D02*
X851500Y2508560D01*
X811500Y2507560D02*
X826500Y2507560D01*
X835500Y2507560D02*
X849500Y2507560D01*
X813500Y2506560D02*
X847500Y2506560D01*
X815500Y2505560D02*
X845500Y2505560D01*
X817500Y2504560D02*
X844500Y2504560D01*
X819500Y2503560D02*
X841500Y2503560D01*
X821500Y2502560D02*
X839500Y2502560D01*
X823500Y2501560D02*
X837500Y2501560D01*
X826500Y2500560D02*
X834500Y2500560D01*
X853500Y2483560D02*
X855500Y2483560D01*
X851500Y2482560D02*
X856500Y2482560D01*
X851500Y2481560D02*
X856500Y2481560D01*
X851500Y2480560D02*
X857500Y2480560D01*
X851500Y2479560D02*
X857500Y2479560D01*
X851500Y2478560D02*
X857500Y2478560D01*
X851500Y2477560D02*
X857500Y2477560D01*
X851500Y2476560D02*
X857500Y2476560D01*
X851500Y2475560D02*
X857500Y2475560D01*
X851500Y2474560D02*
X857500Y2474560D01*
X851500Y2473560D02*
X857500Y2473560D01*
X851500Y2472560D02*
X857500Y2472560D01*
X851500Y2471560D02*
X857500Y2471560D01*
X851500Y2470560D02*
X857500Y2470560D01*
X851500Y2469560D02*
X857500Y2469560D01*
X851500Y2468560D02*
X857500Y2468560D01*
X851500Y2467560D02*
X857500Y2467560D01*
X851500Y2466560D02*
X857500Y2466560D01*
X851500Y2465560D02*
X857500Y2465560D01*
X851500Y2464560D02*
X857500Y2464560D01*
X851500Y2463560D02*
X857500Y2463560D01*
X851500Y2462560D02*
X857500Y2462560D01*
X851500Y2461560D02*
X857500Y2461560D01*
X851500Y2460560D02*
X857500Y2460560D01*
X851500Y2459560D02*
X857500Y2459560D01*
X851500Y2458560D02*
X857500Y2458560D01*
X851500Y2457560D02*
X857500Y2457560D01*
X850500Y2456560D02*
X857500Y2456560D01*
X805500Y2455560D02*
X857500Y2455560D01*
X804500Y2454560D02*
X857500Y2454560D01*
X804500Y2453560D02*
X857500Y2453560D01*
X804500Y2452560D02*
X857500Y2452560D01*
X804500Y2451560D02*
X857500Y2451560D01*
X805500Y2450560D02*
X857500Y2450560D01*
X806500Y2449560D02*
X855500Y2449560D01*
X311500Y2389560D02*
X355500Y2389560D01*
X403500Y2389560D02*
X407500Y2389560D01*
X450500Y2389560D02*
X460500Y2389560D01*
X495500Y2389560D02*
X505500Y2389560D01*
X534500Y2389560D02*
X564500Y2389560D01*
X309500Y2388560D02*
X357500Y2388560D01*
X400500Y2388560D02*
X410500Y2388560D01*
X449500Y2388560D02*
X462500Y2388560D01*
X493500Y2388560D02*
X506500Y2388560D01*
X531500Y2388560D02*
X566500Y2388560D01*
X308500Y2387560D02*
X357500Y2387560D01*
X398500Y2387560D02*
X412500Y2387560D01*
X449500Y2387560D02*
X462500Y2387560D01*
X493500Y2387560D02*
X506500Y2387560D01*
X530500Y2387560D02*
X568500Y2387560D01*
X308500Y2386560D02*
X358500Y2386560D01*
X397500Y2386560D02*
X413500Y2386560D01*
X449500Y2386560D02*
X463500Y2386560D01*
X492500Y2386560D02*
X506500Y2386560D01*
X529500Y2386560D02*
X569500Y2386560D01*
X308500Y2385560D02*
X358500Y2385560D01*
X396500Y2385560D02*
X414500Y2385560D01*
X449500Y2385560D02*
X463500Y2385560D01*
X492500Y2385560D02*
X506500Y2385560D01*
X528500Y2385560D02*
X571500Y2385560D01*
X307500Y2384560D02*
X358500Y2384560D01*
X395500Y2384560D02*
X415500Y2384560D01*
X449500Y2384560D02*
X464500Y2384560D01*
X491500Y2384560D02*
X506500Y2384560D01*
X527500Y2384560D02*
X571500Y2384560D01*
X307500Y2383560D02*
X358500Y2383560D01*
X394500Y2383560D02*
X416500Y2383560D01*
X449500Y2383560D02*
X464500Y2383560D01*
X491500Y2383560D02*
X506500Y2383560D01*
X527500Y2383560D02*
X572500Y2383560D01*
X307500Y2382560D02*
X358500Y2382560D01*
X394500Y2382560D02*
X416500Y2382560D01*
X449500Y2382560D02*
X464500Y2382560D01*
X490500Y2382560D02*
X506500Y2382560D01*
X526500Y2382560D02*
X573500Y2382560D01*
X307500Y2381560D02*
X358500Y2381560D01*
X393500Y2381560D02*
X417500Y2381560D01*
X449500Y2381560D02*
X465500Y2381560D01*
X490500Y2381560D02*
X506500Y2381560D01*
X526500Y2381560D02*
X573500Y2381560D01*
X307500Y2380560D02*
X358500Y2380560D01*
X393500Y2380560D02*
X417500Y2380560D01*
X449500Y2380560D02*
X465500Y2380560D01*
X489500Y2380560D02*
X506500Y2380560D01*
X526500Y2380560D02*
X573500Y2380560D01*
X307500Y2379560D02*
X317500Y2379560D01*
X328500Y2379560D02*
X337500Y2379560D01*
X349500Y2379560D02*
X358500Y2379560D01*
X392500Y2379560D02*
X403500Y2379560D01*
X407500Y2379560D02*
X418500Y2379560D01*
X449500Y2379560D02*
X466500Y2379560D01*
X489500Y2379560D02*
X506500Y2379560D01*
X525500Y2379560D02*
X535500Y2379560D01*
X563500Y2379560D02*
X574500Y2379560D01*
X307500Y2378560D02*
X316500Y2378560D01*
X328500Y2378560D02*
X337500Y2378560D01*
X349500Y2378560D02*
X358500Y2378560D01*
X392500Y2378560D02*
X402500Y2378560D01*
X408500Y2378560D02*
X418500Y2378560D01*
X449500Y2378560D02*
X466500Y2378560D01*
X489500Y2378560D02*
X506500Y2378560D01*
X525500Y2378560D02*
X535500Y2378560D01*
X564500Y2378560D02*
X574500Y2378560D01*
X307500Y2377560D02*
X316500Y2377560D01*
X328500Y2377560D02*
X337500Y2377560D01*
X349500Y2377560D02*
X358500Y2377560D01*
X391500Y2377560D02*
X402500Y2377560D01*
X408500Y2377560D02*
X419500Y2377560D01*
X449500Y2377560D02*
X467500Y2377560D01*
X488500Y2377560D02*
X506500Y2377560D01*
X525500Y2377560D02*
X535500Y2377560D01*
X565500Y2377560D02*
X574500Y2377560D01*
X307500Y2376560D02*
X316500Y2376560D01*
X328500Y2376560D02*
X337500Y2376560D01*
X349500Y2376560D02*
X358500Y2376560D01*
X391500Y2376560D02*
X401500Y2376560D01*
X409500Y2376560D02*
X419500Y2376560D01*
X449500Y2376560D02*
X467500Y2376560D01*
X488500Y2376560D02*
X506500Y2376560D01*
X526500Y2376560D02*
X536500Y2376560D01*
X565500Y2376560D02*
X574500Y2376560D01*
X308500Y2375560D02*
X316500Y2375560D01*
X328500Y2375560D02*
X337500Y2375560D01*
X349500Y2375560D02*
X358500Y2375560D01*
X390500Y2375560D02*
X401500Y2375560D01*
X409500Y2375560D02*
X420500Y2375560D01*
X449500Y2375560D02*
X468500Y2375560D01*
X487500Y2375560D02*
X506500Y2375560D01*
X526500Y2375560D02*
X536500Y2375560D01*
X565500Y2375560D02*
X574500Y2375560D01*
X308500Y2374560D02*
X316500Y2374560D01*
X328500Y2374560D02*
X337500Y2374560D01*
X350500Y2374560D02*
X358500Y2374560D01*
X390500Y2374560D02*
X400500Y2374560D01*
X410500Y2374560D02*
X420500Y2374560D01*
X449500Y2374560D02*
X468500Y2374560D01*
X487500Y2374560D02*
X506500Y2374560D01*
X526500Y2374560D02*
X537500Y2374560D01*
X566500Y2374560D02*
X574500Y2374560D01*
X308500Y2373560D02*
X316500Y2373560D01*
X328500Y2373560D02*
X337500Y2373560D01*
X350500Y2373560D02*
X357500Y2373560D01*
X389500Y2373560D02*
X400500Y2373560D01*
X410500Y2373560D02*
X421500Y2373560D01*
X449500Y2373560D02*
X469500Y2373560D01*
X486500Y2373560D02*
X506500Y2373560D01*
X526500Y2373560D02*
X538500Y2373560D01*
X566500Y2373560D02*
X573500Y2373560D01*
X309500Y2372560D02*
X315500Y2372560D01*
X328500Y2372560D02*
X337500Y2372560D01*
X351500Y2372560D02*
X356500Y2372560D01*
X389500Y2372560D02*
X399500Y2372560D01*
X411500Y2372560D02*
X421500Y2372560D01*
X449500Y2372560D02*
X469500Y2372560D01*
X486500Y2372560D02*
X506500Y2372560D01*
X527500Y2372560D02*
X539500Y2372560D01*
X567500Y2372560D02*
X572500Y2372560D01*
X311500Y2371560D02*
X313500Y2371560D01*
X328500Y2371560D02*
X337500Y2371560D01*
X352500Y2371560D02*
X354500Y2371560D01*
X388500Y2371560D02*
X399500Y2371560D01*
X411500Y2371560D02*
X422500Y2371560D01*
X449500Y2371560D02*
X458500Y2371560D01*
X460500Y2371560D02*
X470500Y2371560D01*
X485500Y2371560D02*
X495500Y2371560D01*
X497500Y2371560D02*
X506500Y2371560D01*
X528500Y2371560D02*
X540500Y2371560D01*
X569500Y2371560D02*
X570500Y2371560D01*
X328500Y2370560D02*
X337500Y2370560D01*
X388500Y2370560D02*
X398500Y2370560D01*
X412500Y2370560D02*
X422500Y2370560D01*
X449500Y2370560D02*
X458500Y2370560D01*
X460500Y2370560D02*
X470500Y2370560D01*
X485500Y2370560D02*
X495500Y2370560D01*
X497500Y2370560D02*
X506500Y2370560D01*
X528500Y2370560D02*
X540500Y2370560D01*
X328500Y2369560D02*
X337500Y2369560D01*
X387500Y2369560D02*
X398500Y2369560D01*
X412500Y2369560D02*
X423500Y2369560D01*
X449500Y2369560D02*
X458500Y2369560D01*
X461500Y2369560D02*
X471500Y2369560D01*
X484500Y2369560D02*
X494500Y2369560D01*
X497500Y2369560D02*
X506500Y2369560D01*
X529500Y2369560D02*
X541500Y2369560D01*
X328500Y2368560D02*
X337500Y2368560D01*
X387500Y2368560D02*
X397500Y2368560D01*
X413500Y2368560D02*
X423500Y2368560D01*
X449500Y2368560D02*
X458500Y2368560D01*
X461500Y2368560D02*
X471500Y2368560D01*
X484500Y2368560D02*
X494500Y2368560D01*
X497500Y2368560D02*
X506500Y2368560D01*
X530500Y2368560D02*
X542500Y2368560D01*
X328500Y2367560D02*
X337500Y2367560D01*
X386500Y2367560D02*
X397500Y2367560D01*
X414500Y2367560D02*
X424500Y2367560D01*
X449500Y2367560D02*
X458500Y2367560D01*
X461500Y2367560D02*
X472500Y2367560D01*
X483500Y2367560D02*
X493500Y2367560D01*
X497500Y2367560D02*
X506500Y2367560D01*
X531500Y2367560D02*
X543500Y2367560D01*
X328500Y2366560D02*
X337500Y2366560D01*
X386500Y2366560D02*
X396500Y2366560D01*
X414500Y2366560D02*
X424500Y2366560D01*
X449500Y2366560D02*
X458500Y2366560D01*
X462500Y2366560D02*
X472500Y2366560D01*
X483500Y2366560D02*
X493500Y2366560D01*
X497500Y2366560D02*
X506500Y2366560D01*
X532500Y2366560D02*
X543500Y2366560D01*
X328500Y2365560D02*
X337500Y2365560D01*
X385500Y2365560D02*
X396500Y2365560D01*
X415500Y2365560D02*
X425500Y2365560D01*
X449500Y2365560D02*
X458500Y2365560D01*
X462500Y2365560D02*
X472500Y2365560D01*
X482500Y2365560D02*
X492500Y2365560D01*
X497500Y2365560D02*
X506500Y2365560D01*
X532500Y2365560D02*
X544500Y2365560D01*
X328500Y2364560D02*
X337500Y2364560D01*
X385500Y2364560D02*
X395500Y2364560D01*
X415500Y2364560D02*
X425500Y2364560D01*
X449500Y2364560D02*
X458500Y2364560D01*
X463500Y2364560D02*
X473500Y2364560D01*
X482500Y2364560D02*
X492500Y2364560D01*
X497500Y2364560D02*
X506500Y2364560D01*
X533500Y2364560D02*
X545500Y2364560D01*
X328500Y2363560D02*
X337500Y2363560D01*
X384500Y2363560D02*
X395500Y2363560D01*
X416500Y2363560D02*
X426500Y2363560D01*
X449500Y2363560D02*
X458500Y2363560D01*
X463500Y2363560D02*
X473500Y2363560D01*
X481500Y2363560D02*
X491500Y2363560D01*
X497500Y2363560D02*
X506500Y2363560D01*
X534500Y2363560D02*
X546500Y2363560D01*
X328500Y2362560D02*
X337500Y2362560D01*
X384500Y2362560D02*
X394500Y2362560D01*
X416500Y2362560D02*
X426500Y2362560D01*
X449500Y2362560D02*
X458500Y2362560D01*
X464500Y2362560D02*
X474500Y2362560D01*
X481500Y2362560D02*
X491500Y2362560D01*
X497500Y2362560D02*
X506500Y2362560D01*
X535500Y2362560D02*
X547500Y2362560D01*
X328500Y2361560D02*
X337500Y2361560D01*
X383500Y2361560D02*
X394500Y2361560D01*
X417500Y2361560D02*
X427500Y2361560D01*
X449500Y2361560D02*
X458500Y2361560D01*
X464500Y2361560D02*
X474500Y2361560D01*
X480500Y2361560D02*
X490500Y2361560D01*
X497500Y2361560D02*
X506500Y2361560D01*
X535500Y2361560D02*
X547500Y2361560D01*
X328500Y2360560D02*
X337500Y2360560D01*
X383500Y2360560D02*
X393500Y2360560D01*
X417500Y2360560D02*
X427500Y2360560D01*
X449500Y2360560D02*
X458500Y2360560D01*
X465500Y2360560D02*
X475500Y2360560D01*
X480500Y2360560D02*
X490500Y2360560D01*
X497500Y2360560D02*
X506500Y2360560D01*
X536500Y2360560D02*
X548500Y2360560D01*
X328500Y2359560D02*
X337500Y2359560D01*
X382500Y2359560D02*
X393500Y2359560D01*
X418500Y2359560D02*
X428500Y2359560D01*
X449500Y2359560D02*
X458500Y2359560D01*
X465500Y2359560D02*
X475500Y2359560D01*
X479500Y2359560D02*
X490500Y2359560D01*
X497500Y2359560D02*
X506500Y2359560D01*
X537500Y2359560D02*
X549500Y2359560D01*
X328500Y2358560D02*
X337500Y2358560D01*
X382500Y2358560D02*
X392500Y2358560D01*
X418500Y2358560D02*
X428500Y2358560D01*
X449500Y2358560D02*
X458500Y2358560D01*
X466500Y2358560D02*
X476500Y2358560D01*
X479500Y2358560D02*
X489500Y2358560D01*
X497500Y2358560D02*
X506500Y2358560D01*
X538500Y2358560D02*
X550500Y2358560D01*
X328500Y2357560D02*
X337500Y2357560D01*
X382500Y2357560D02*
X392500Y2357560D01*
X419500Y2357560D02*
X428500Y2357560D01*
X449500Y2357560D02*
X458500Y2357560D01*
X466500Y2357560D02*
X476500Y2357560D01*
X478500Y2357560D02*
X489500Y2357560D01*
X497500Y2357560D02*
X506500Y2357560D01*
X539500Y2357560D02*
X550500Y2357560D01*
X328500Y2356560D02*
X337500Y2356560D01*
X381500Y2356560D02*
X391500Y2356560D01*
X419500Y2356560D02*
X429500Y2356560D01*
X449500Y2356560D02*
X458500Y2356560D01*
X467500Y2356560D02*
X488500Y2356560D01*
X497500Y2356560D02*
X506500Y2356560D01*
X539500Y2356560D02*
X551500Y2356560D01*
X328500Y2355560D02*
X337500Y2355560D01*
X381500Y2355560D02*
X391500Y2355560D01*
X419500Y2355560D02*
X429500Y2355560D01*
X449500Y2355560D02*
X458500Y2355560D01*
X467500Y2355560D02*
X488500Y2355560D01*
X497500Y2355560D02*
X506500Y2355560D01*
X540500Y2355560D02*
X552500Y2355560D01*
X328500Y2354560D02*
X337500Y2354560D01*
X381500Y2354560D02*
X390500Y2354560D01*
X420500Y2354560D02*
X429500Y2354560D01*
X449500Y2354560D02*
X458500Y2354560D01*
X468500Y2354560D02*
X487500Y2354560D01*
X497500Y2354560D02*
X506500Y2354560D01*
X541500Y2354560D02*
X553500Y2354560D01*
X328500Y2353560D02*
X337500Y2353560D01*
X381500Y2353560D02*
X390500Y2353560D01*
X420500Y2353560D02*
X429500Y2353560D01*
X449500Y2353560D02*
X458500Y2353560D01*
X468500Y2353560D02*
X487500Y2353560D01*
X497500Y2353560D02*
X506500Y2353560D01*
X542500Y2353560D02*
X554500Y2353560D01*
X328500Y2352560D02*
X337500Y2352560D01*
X381500Y2352560D02*
X390500Y2352560D01*
X420500Y2352560D02*
X429500Y2352560D01*
X449500Y2352560D02*
X458500Y2352560D01*
X468500Y2352560D02*
X486500Y2352560D01*
X497500Y2352560D02*
X506500Y2352560D01*
X542500Y2352560D02*
X554500Y2352560D01*
X328500Y2351560D02*
X337500Y2351560D01*
X381500Y2351560D02*
X390500Y2351560D01*
X420500Y2351560D02*
X429500Y2351560D01*
X449500Y2351560D02*
X458500Y2351560D01*
X469500Y2351560D02*
X486500Y2351560D01*
X497500Y2351560D02*
X506500Y2351560D01*
X543500Y2351560D02*
X555500Y2351560D01*
X328500Y2350560D02*
X337500Y2350560D01*
X381500Y2350560D02*
X390500Y2350560D01*
X420500Y2350560D02*
X429500Y2350560D01*
X449500Y2350560D02*
X458500Y2350560D01*
X469500Y2350560D02*
X485500Y2350560D01*
X497500Y2350560D02*
X506500Y2350560D01*
X544500Y2350560D02*
X556500Y2350560D01*
X328500Y2349560D02*
X337500Y2349560D01*
X381500Y2349560D02*
X390500Y2349560D01*
X420500Y2349560D02*
X429500Y2349560D01*
X449500Y2349560D02*
X458500Y2349560D01*
X470500Y2349560D02*
X485500Y2349560D01*
X497500Y2349560D02*
X506500Y2349560D01*
X545500Y2349560D02*
X557500Y2349560D01*
X328500Y2348560D02*
X337500Y2348560D01*
X381500Y2348560D02*
X390500Y2348560D01*
X420500Y2348560D02*
X429500Y2348560D01*
X449500Y2348560D02*
X458500Y2348560D01*
X470500Y2348560D02*
X484500Y2348560D01*
X497500Y2348560D02*
X506500Y2348560D01*
X545500Y2348560D02*
X557500Y2348560D01*
X328500Y2347560D02*
X337500Y2347560D01*
X381500Y2347560D02*
X390500Y2347560D01*
X420500Y2347560D02*
X429500Y2347560D01*
X449500Y2347560D02*
X458500Y2347560D01*
X471500Y2347560D02*
X484500Y2347560D01*
X497500Y2347560D02*
X506500Y2347560D01*
X546500Y2347560D02*
X558500Y2347560D01*
X328500Y2346560D02*
X337500Y2346560D01*
X381500Y2346560D02*
X391500Y2346560D01*
X420500Y2346560D02*
X429500Y2346560D01*
X449500Y2346560D02*
X458500Y2346560D01*
X471500Y2346560D02*
X483500Y2346560D01*
X497500Y2346560D02*
X506500Y2346560D01*
X547500Y2346560D02*
X559500Y2346560D01*
X328500Y2345560D02*
X337500Y2345560D01*
X381500Y2345560D02*
X391500Y2345560D01*
X419500Y2345560D02*
X429500Y2345560D01*
X449500Y2345560D02*
X458500Y2345560D01*
X472500Y2345560D02*
X483500Y2345560D01*
X497500Y2345560D02*
X506500Y2345560D01*
X548500Y2345560D02*
X560500Y2345560D01*
X328500Y2344560D02*
X337500Y2344560D01*
X382500Y2344560D02*
X391500Y2344560D01*
X419500Y2344560D02*
X429500Y2344560D01*
X449500Y2344560D02*
X458500Y2344560D01*
X472500Y2344560D02*
X482500Y2344560D01*
X497500Y2344560D02*
X506500Y2344560D01*
X549500Y2344560D02*
X561500Y2344560D01*
X328500Y2343560D02*
X337500Y2343560D01*
X382500Y2343560D02*
X392500Y2343560D01*
X418500Y2343560D02*
X428500Y2343560D01*
X449500Y2343560D02*
X458500Y2343560D01*
X473500Y2343560D02*
X482500Y2343560D01*
X497500Y2343560D02*
X506500Y2343560D01*
X549500Y2343560D02*
X561500Y2343560D01*
X328500Y2342560D02*
X337500Y2342560D01*
X382500Y2342560D02*
X392500Y2342560D01*
X418500Y2342560D02*
X428500Y2342560D01*
X449500Y2342560D02*
X458500Y2342560D01*
X473500Y2342560D02*
X481500Y2342560D01*
X497500Y2342560D02*
X506500Y2342560D01*
X550500Y2342560D02*
X562500Y2342560D01*
X328500Y2341560D02*
X337500Y2341560D01*
X383500Y2341560D02*
X393500Y2341560D01*
X417500Y2341560D02*
X427500Y2341560D01*
X449500Y2341560D02*
X458500Y2341560D01*
X474500Y2341560D02*
X481500Y2341560D01*
X497500Y2341560D02*
X506500Y2341560D01*
X551500Y2341560D02*
X563500Y2341560D01*
X328500Y2340560D02*
X337500Y2340560D01*
X383500Y2340560D02*
X393500Y2340560D01*
X417500Y2340560D02*
X427500Y2340560D01*
X449500Y2340560D02*
X458500Y2340560D01*
X475500Y2340560D02*
X480500Y2340560D01*
X497500Y2340560D02*
X506500Y2340560D01*
X552500Y2340560D02*
X564500Y2340560D01*
X328500Y2339560D02*
X337500Y2339560D01*
X384500Y2339560D02*
X394500Y2339560D01*
X416500Y2339560D02*
X426500Y2339560D01*
X449500Y2339560D02*
X458500Y2339560D01*
X476500Y2339560D02*
X479500Y2339560D01*
X497500Y2339560D02*
X506500Y2339560D01*
X552500Y2339560D02*
X564500Y2339560D01*
X328500Y2338560D02*
X337500Y2338560D01*
X384500Y2338560D02*
X394500Y2338560D01*
X416500Y2338560D02*
X426500Y2338560D01*
X449500Y2338560D02*
X458500Y2338560D01*
X497500Y2338560D02*
X506500Y2338560D01*
X553500Y2338560D02*
X565500Y2338560D01*
X328500Y2337560D02*
X337500Y2337560D01*
X385500Y2337560D02*
X395500Y2337560D01*
X415500Y2337560D02*
X425500Y2337560D01*
X449500Y2337560D02*
X458500Y2337560D01*
X497500Y2337560D02*
X506500Y2337560D01*
X554500Y2337560D02*
X566500Y2337560D01*
X328500Y2336560D02*
X337500Y2336560D01*
X385500Y2336560D02*
X395500Y2336560D01*
X415500Y2336560D02*
X425500Y2336560D01*
X449500Y2336560D02*
X458500Y2336560D01*
X497500Y2336560D02*
X506500Y2336560D01*
X555500Y2336560D02*
X567500Y2336560D01*
X328500Y2335560D02*
X337500Y2335560D01*
X386500Y2335560D02*
X396500Y2335560D01*
X414500Y2335560D02*
X424500Y2335560D01*
X449500Y2335560D02*
X458500Y2335560D01*
X497500Y2335560D02*
X506500Y2335560D01*
X556500Y2335560D02*
X568500Y2335560D01*
X328500Y2334560D02*
X337500Y2334560D01*
X386500Y2334560D02*
X396500Y2334560D01*
X414500Y2334560D02*
X424500Y2334560D01*
X449500Y2334560D02*
X458500Y2334560D01*
X497500Y2334560D02*
X506500Y2334560D01*
X556500Y2334560D02*
X568500Y2334560D01*
X328500Y2333560D02*
X337500Y2333560D01*
X387500Y2333560D02*
X397500Y2333560D01*
X413500Y2333560D02*
X423500Y2333560D01*
X449500Y2333560D02*
X458500Y2333560D01*
X497500Y2333560D02*
X506500Y2333560D01*
X557500Y2333560D02*
X569500Y2333560D01*
X328500Y2332560D02*
X337500Y2332560D01*
X387500Y2332560D02*
X397500Y2332560D01*
X413500Y2332560D02*
X423500Y2332560D01*
X449500Y2332560D02*
X458500Y2332560D01*
X497500Y2332560D02*
X506500Y2332560D01*
X558500Y2332560D02*
X570500Y2332560D01*
X328500Y2331560D02*
X337500Y2331560D01*
X388500Y2331560D02*
X398500Y2331560D01*
X412500Y2331560D02*
X422500Y2331560D01*
X449500Y2331560D02*
X458500Y2331560D01*
X497500Y2331560D02*
X506500Y2331560D01*
X559500Y2331560D02*
X571500Y2331560D01*
X328500Y2330560D02*
X337500Y2330560D01*
X388500Y2330560D02*
X398500Y2330560D01*
X412500Y2330560D02*
X422500Y2330560D01*
X449500Y2330560D02*
X458500Y2330560D01*
X497500Y2330560D02*
X506500Y2330560D01*
X559500Y2330560D02*
X571500Y2330560D01*
X328500Y2329560D02*
X337500Y2329560D01*
X389500Y2329560D02*
X399500Y2329560D01*
X411500Y2329560D02*
X421500Y2329560D01*
X449500Y2329560D02*
X458500Y2329560D01*
X497500Y2329560D02*
X506500Y2329560D01*
X528500Y2329560D02*
X532500Y2329560D01*
X560500Y2329560D02*
X572500Y2329560D01*
X328500Y2328560D02*
X337500Y2328560D01*
X389500Y2328560D02*
X399500Y2328560D01*
X411500Y2328560D02*
X421500Y2328560D01*
X449500Y2328560D02*
X458500Y2328560D01*
X497500Y2328560D02*
X506500Y2328560D01*
X527500Y2328560D02*
X533500Y2328560D01*
X561500Y2328560D02*
X573500Y2328560D01*
X328500Y2327560D02*
X337500Y2327560D01*
X390500Y2327560D02*
X400500Y2327560D01*
X410500Y2327560D02*
X420500Y2327560D01*
X449500Y2327560D02*
X458500Y2327560D01*
X497500Y2327560D02*
X506500Y2327560D01*
X526500Y2327560D02*
X534500Y2327560D01*
X562500Y2327560D02*
X573500Y2327560D01*
X328500Y2326560D02*
X337500Y2326560D01*
X390500Y2326560D02*
X400500Y2326560D01*
X410500Y2326560D02*
X420500Y2326560D01*
X449500Y2326560D02*
X458500Y2326560D01*
X497500Y2326560D02*
X506500Y2326560D01*
X526500Y2326560D02*
X534500Y2326560D01*
X563500Y2326560D02*
X574500Y2326560D01*
X328500Y2325560D02*
X337500Y2325560D01*
X391500Y2325560D02*
X401500Y2325560D01*
X409500Y2325560D02*
X420500Y2325560D01*
X449500Y2325560D02*
X458500Y2325560D01*
X497500Y2325560D02*
X506500Y2325560D01*
X525500Y2325560D02*
X534500Y2325560D01*
X563500Y2325560D02*
X574500Y2325560D01*
X328500Y2324560D02*
X337500Y2324560D01*
X391500Y2324560D02*
X401500Y2324560D01*
X409500Y2324560D02*
X419500Y2324560D01*
X449500Y2324560D02*
X458500Y2324560D01*
X497500Y2324560D02*
X506500Y2324560D01*
X525500Y2324560D02*
X535500Y2324560D01*
X564500Y2324560D02*
X574500Y2324560D01*
X328500Y2323560D02*
X337500Y2323560D01*
X392500Y2323560D02*
X402500Y2323560D01*
X408500Y2323560D02*
X419500Y2323560D01*
X449500Y2323560D02*
X458500Y2323560D01*
X497500Y2323560D02*
X506500Y2323560D01*
X526500Y2323560D02*
X535500Y2323560D01*
X565500Y2323560D02*
X574500Y2323560D01*
X328500Y2322560D02*
X337500Y2322560D01*
X392500Y2322560D02*
X403500Y2322560D01*
X407500Y2322560D02*
X418500Y2322560D01*
X449500Y2322560D02*
X458500Y2322560D01*
X497500Y2322560D02*
X506500Y2322560D01*
X526500Y2322560D02*
X536500Y2322560D01*
X565500Y2322560D02*
X574500Y2322560D01*
X328500Y2321560D02*
X337500Y2321560D01*
X393500Y2321560D02*
X418500Y2321560D01*
X449500Y2321560D02*
X458500Y2321560D01*
X497500Y2321560D02*
X506500Y2321560D01*
X526500Y2321560D02*
X574500Y2321560D01*
X328500Y2320560D02*
X337500Y2320560D01*
X393500Y2320560D02*
X417500Y2320560D01*
X449500Y2320560D02*
X458500Y2320560D01*
X497500Y2320560D02*
X506500Y2320560D01*
X526500Y2320560D02*
X574500Y2320560D01*
X328500Y2319560D02*
X337500Y2319560D01*
X394500Y2319560D02*
X417500Y2319560D01*
X449500Y2319560D02*
X458500Y2319560D01*
X497500Y2319560D02*
X506500Y2319560D01*
X527500Y2319560D02*
X573500Y2319560D01*
X328500Y2318560D02*
X337500Y2318560D01*
X394500Y2318560D02*
X416500Y2318560D01*
X449500Y2318560D02*
X458500Y2318560D01*
X497500Y2318560D02*
X506500Y2318560D01*
X527500Y2318560D02*
X573500Y2318560D01*
X328500Y2317560D02*
X337500Y2317560D01*
X395500Y2317560D02*
X415500Y2317560D01*
X449500Y2317560D02*
X458500Y2317560D01*
X497500Y2317560D02*
X506500Y2317560D01*
X528500Y2317560D02*
X573500Y2317560D01*
X328500Y2316560D02*
X337500Y2316560D01*
X396500Y2316560D02*
X414500Y2316560D01*
X449500Y2316560D02*
X458500Y2316560D01*
X497500Y2316560D02*
X506500Y2316560D01*
X529500Y2316560D02*
X572500Y2316560D01*
X328500Y2315560D02*
X337500Y2315560D01*
X397500Y2315560D02*
X413500Y2315560D01*
X449500Y2315560D02*
X458500Y2315560D01*
X497500Y2315560D02*
X506500Y2315560D01*
X530500Y2315560D02*
X571500Y2315560D01*
X329500Y2314560D02*
X337500Y2314560D01*
X398500Y2314560D02*
X412500Y2314560D01*
X449500Y2314560D02*
X457500Y2314560D01*
X498500Y2314560D02*
X505500Y2314560D01*
X531500Y2314560D02*
X570500Y2314560D01*
X330500Y2313560D02*
X336500Y2313560D01*
X399500Y2313560D02*
X411500Y2313560D01*
X450500Y2313560D02*
X456500Y2313560D01*
X498500Y2313560D02*
X505500Y2313560D01*
X532500Y2313560D02*
X568500Y2313560D01*
X331500Y2312560D02*
X335500Y2312560D01*
X402500Y2312560D02*
X408500Y2312560D01*
X451500Y2312560D02*
X455500Y2312560D01*
X500500Y2312560D02*
X503500Y2312560D01*
X535500Y2312560D02*
X566500Y2312560D01*
X1056500Y2171560D02*
X1059500Y2171560D01*
X1093500Y2171560D02*
X1111500Y2171560D01*
X1055500Y2170560D02*
X1060500Y2170560D01*
X1092500Y2170560D02*
X1111500Y2170560D01*
X1055500Y2169560D02*
X1061500Y2169560D01*
X1091500Y2169560D02*
X1111500Y2169560D01*
X1054500Y2168560D02*
X1061500Y2168560D01*
X1091500Y2168560D02*
X1111500Y2168560D01*
X1054500Y2167560D02*
X1061500Y2167560D01*
X1091500Y2167560D02*
X1111500Y2167560D01*
X1054500Y2166560D02*
X1062500Y2166560D01*
X1092500Y2166560D02*
X1111500Y2166560D01*
X1054500Y2165560D02*
X1062500Y2165560D01*
X1093500Y2165560D02*
X1111500Y2165560D01*
X1053500Y2164560D02*
X1062500Y2164560D01*
X1105500Y2164560D02*
X1111500Y2164560D01*
X1053500Y2163560D02*
X1062500Y2163560D01*
X1105500Y2163560D02*
X1111500Y2163560D01*
X1053500Y2162560D02*
X1063500Y2162560D01*
X1105500Y2162560D02*
X1111500Y2162560D01*
X1052500Y2161560D02*
X1063500Y2161560D01*
X1105500Y2161560D02*
X1111500Y2161560D01*
X1052500Y2160560D02*
X1063500Y2160560D01*
X1105500Y2160560D02*
X1111500Y2160560D01*
X1052500Y2159560D02*
X1064500Y2159560D01*
X1105500Y2159560D02*
X1111500Y2159560D01*
X1052500Y2158560D02*
X1064500Y2158560D01*
X1105500Y2158560D02*
X1111500Y2158560D01*
X1051500Y2157560D02*
X1064500Y2157560D01*
X1105500Y2157560D02*
X1111500Y2157560D01*
X1051500Y2156560D02*
X1064500Y2156560D01*
X1105500Y2156560D02*
X1111500Y2156560D01*
X1051500Y2155560D02*
X1065500Y2155560D01*
X1105500Y2155560D02*
X1111500Y2155560D01*
X1050500Y2154560D02*
X1057500Y2154560D01*
X1059500Y2154560D02*
X1065500Y2154560D01*
X1105500Y2154560D02*
X1111500Y2154560D01*
X1050500Y2153560D02*
X1056500Y2153560D01*
X1059500Y2153560D02*
X1065500Y2153560D01*
X1105500Y2153560D02*
X1111500Y2153560D01*
X1050500Y2152560D02*
X1056500Y2152560D01*
X1059500Y2152560D02*
X1066500Y2152560D01*
X1105500Y2152560D02*
X1111500Y2152560D01*
X1049500Y2151560D02*
X1056500Y2151560D01*
X1060500Y2151560D02*
X1066500Y2151560D01*
X1105500Y2151560D02*
X1111500Y2151560D01*
X1049500Y2150560D02*
X1056500Y2150560D01*
X1060500Y2150560D02*
X1066500Y2150560D01*
X1105500Y2150560D02*
X1111500Y2150560D01*
X1049500Y2149560D02*
X1055500Y2149560D01*
X1060500Y2149560D02*
X1067500Y2149560D01*
X1105500Y2149560D02*
X1111500Y2149560D01*
X1049500Y2148560D02*
X1055500Y2148560D01*
X1061500Y2148560D02*
X1067500Y2148560D01*
X1105500Y2148560D02*
X1111500Y2148560D01*
X1048500Y2147560D02*
X1055500Y2147560D01*
X1061500Y2147560D02*
X1067500Y2147560D01*
X1105500Y2147560D02*
X1111500Y2147560D01*
X1048500Y2146560D02*
X1054500Y2146560D01*
X1061500Y2146560D02*
X1067500Y2146560D01*
X1105500Y2146560D02*
X1111500Y2146560D01*
X1048500Y2145560D02*
X1054500Y2145560D01*
X1061500Y2145560D02*
X1068500Y2145560D01*
X1105500Y2145560D02*
X1111500Y2145560D01*
X1047500Y2144560D02*
X1054500Y2144560D01*
X1062500Y2144560D02*
X1068500Y2144560D01*
X1105500Y2144560D02*
X1111500Y2144560D01*
X1047500Y2143560D02*
X1053500Y2143560D01*
X1062500Y2143560D02*
X1068500Y2143560D01*
X1105500Y2143560D02*
X1111500Y2143560D01*
X1047500Y2142560D02*
X1053500Y2142560D01*
X1062500Y2142560D02*
X1069500Y2142560D01*
X1105500Y2142560D02*
X1111500Y2142560D01*
X1047500Y2141560D02*
X1053500Y2141560D01*
X1063500Y2141560D02*
X1069500Y2141560D01*
X1105500Y2141560D02*
X1111500Y2141560D01*
X1046500Y2140560D02*
X1053500Y2140560D01*
X1063500Y2140560D02*
X1069500Y2140560D01*
X1105500Y2140560D02*
X1111500Y2140560D01*
X1046500Y2139560D02*
X1052500Y2139560D01*
X1063500Y2139560D02*
X1069500Y2139560D01*
X1105500Y2139560D02*
X1111500Y2139560D01*
X1046500Y2138560D02*
X1052500Y2138560D01*
X1063500Y2138560D02*
X1070500Y2138560D01*
X1105500Y2138560D02*
X1111500Y2138560D01*
X1120500Y2138560D02*
X1123500Y2138560D01*
X1045500Y2137560D02*
X1052500Y2137560D01*
X1064500Y2137560D02*
X1070500Y2137560D01*
X1105500Y2137560D02*
X1111500Y2137560D01*
X1119500Y2137560D02*
X1124500Y2137560D01*
X1045500Y2136560D02*
X1070500Y2136560D01*
X1105500Y2136560D02*
X1111500Y2136560D01*
X1119500Y2136560D02*
X1124500Y2136560D01*
X1045500Y2135560D02*
X1071500Y2135560D01*
X1105500Y2135560D02*
X1111500Y2135560D01*
X1119500Y2135560D02*
X1125500Y2135560D01*
X1044500Y2134560D02*
X1071500Y2134560D01*
X1105500Y2134560D02*
X1111500Y2134560D01*
X1119500Y2134560D02*
X1125500Y2134560D01*
X1044500Y2133560D02*
X1071500Y2133560D01*
X1105500Y2133560D02*
X1111500Y2133560D01*
X1119500Y2133560D02*
X1125500Y2133560D01*
X1044500Y2132560D02*
X1072500Y2132560D01*
X1105500Y2132560D02*
X1111500Y2132560D01*
X1119500Y2132560D02*
X1125500Y2132560D01*
X1044500Y2131560D02*
X1072500Y2131560D01*
X1105500Y2131560D02*
X1111500Y2131560D01*
X1119500Y2131560D02*
X1125500Y2131560D01*
X1043500Y2130560D02*
X1072500Y2130560D01*
X1105500Y2130560D02*
X1111500Y2130560D01*
X1119500Y2130560D02*
X1125500Y2130560D01*
X1043500Y2129560D02*
X1049500Y2129560D01*
X1066500Y2129560D02*
X1072500Y2129560D01*
X1105500Y2129560D02*
X1111500Y2129560D01*
X1119500Y2129560D02*
X1125500Y2129560D01*
X1043500Y2128560D02*
X1049500Y2128560D01*
X1066500Y2128560D02*
X1073500Y2128560D01*
X1105500Y2128560D02*
X1111500Y2128560D01*
X1119500Y2128560D02*
X1125500Y2128560D01*
X1042500Y2127560D02*
X1049500Y2127560D01*
X1067500Y2127560D02*
X1073500Y2127560D01*
X1105500Y2127560D02*
X1111500Y2127560D01*
X1119500Y2127560D02*
X1125500Y2127560D01*
X1042500Y2126560D02*
X1048500Y2126560D01*
X1067500Y2126560D02*
X1073500Y2126560D01*
X1105500Y2126560D02*
X1111500Y2126560D01*
X1119500Y2126560D02*
X1125500Y2126560D01*
X1042500Y2125560D02*
X1048500Y2125560D01*
X1067500Y2125560D02*
X1074500Y2125560D01*
X1105500Y2125560D02*
X1111500Y2125560D01*
X1119500Y2125560D02*
X1125500Y2125560D01*
X1042500Y2124560D02*
X1048500Y2124560D01*
X1068500Y2124560D02*
X1074500Y2124560D01*
X1093500Y2124560D02*
X1125500Y2124560D01*
X1041500Y2123560D02*
X1048500Y2123560D01*
X1068500Y2123560D02*
X1074500Y2123560D01*
X1092500Y2123560D02*
X1125500Y2123560D01*
X1041500Y2122560D02*
X1047500Y2122560D01*
X1068500Y2122560D02*
X1074500Y2122560D01*
X1091500Y2122560D02*
X1125500Y2122560D01*
X1041500Y2121560D02*
X1047500Y2121560D01*
X1068500Y2121560D02*
X1075500Y2121560D01*
X1091500Y2121560D02*
X1125500Y2121560D01*
X1041500Y2120560D02*
X1047500Y2120560D01*
X1069500Y2120560D02*
X1074500Y2120560D01*
X1091500Y2120560D02*
X1124500Y2120560D01*
X1042500Y2119560D02*
X1046500Y2119560D01*
X1069500Y2119560D02*
X1074500Y2119560D01*
X1092500Y2119560D02*
X1124500Y2119560D01*
X1043500Y2118560D02*
X1045500Y2118560D01*
X1070500Y2118560D02*
X1073500Y2118560D01*
X1093500Y2118560D02*
X1123500Y2118560D01*
X468500Y1003560D02*
X498500Y1003560D01*
X518500Y1003560D02*
X521500Y1003560D01*
X545500Y1003560D02*
X548500Y1003560D01*
X467500Y1002560D02*
X499500Y1002560D01*
X517500Y1002560D02*
X522500Y1002560D01*
X544500Y1002560D02*
X549500Y1002560D01*
X466500Y1001560D02*
X500500Y1001560D01*
X516500Y1001560D02*
X522500Y1001560D01*
X544500Y1001560D02*
X550500Y1001560D01*
X466500Y1000560D02*
X500500Y1000560D01*
X516500Y1000560D02*
X523500Y1000560D01*
X544500Y1000560D02*
X550500Y1000560D01*
X466500Y999560D02*
X499500Y999560D01*
X517500Y999560D02*
X524500Y999560D01*
X544500Y999560D02*
X550500Y999560D01*
X466500Y998560D02*
X499500Y998560D01*
X517500Y998560D02*
X524500Y998560D01*
X544500Y998560D02*
X550500Y998560D01*
X466500Y997560D02*
X498500Y997560D01*
X518500Y997560D02*
X525500Y997560D01*
X544500Y997560D02*
X550500Y997560D01*
X466500Y996560D02*
X472500Y996560D01*
X480500Y996560D02*
X486500Y996560D01*
X518500Y996560D02*
X525500Y996560D01*
X544500Y996560D02*
X550500Y996560D01*
X466500Y995560D02*
X472500Y995560D01*
X480500Y995560D02*
X486500Y995560D01*
X519500Y995560D02*
X526500Y995560D01*
X544500Y995560D02*
X550500Y995560D01*
X466500Y994560D02*
X472500Y994560D01*
X480500Y994560D02*
X486500Y994560D01*
X519500Y994560D02*
X527500Y994560D01*
X544500Y994560D02*
X550500Y994560D01*
X466500Y993560D02*
X472500Y993560D01*
X480500Y993560D02*
X486500Y993560D01*
X520500Y993560D02*
X527500Y993560D01*
X544500Y993560D02*
X550500Y993560D01*
X466500Y992560D02*
X472500Y992560D01*
X480500Y992560D02*
X486500Y992560D01*
X521500Y992560D02*
X528500Y992560D01*
X544500Y992560D02*
X550500Y992560D01*
X466500Y991560D02*
X472500Y991560D01*
X480500Y991560D02*
X486500Y991560D01*
X521500Y991560D02*
X528500Y991560D01*
X544500Y991560D02*
X550500Y991560D01*
X466500Y990560D02*
X472500Y990560D01*
X480500Y990560D02*
X486500Y990560D01*
X522500Y990560D02*
X529500Y990560D01*
X544500Y990560D02*
X550500Y990560D01*
X466500Y989560D02*
X472500Y989560D01*
X480500Y989560D02*
X486500Y989560D01*
X522500Y989560D02*
X529500Y989560D01*
X544500Y989560D02*
X550500Y989560D01*
X466500Y988560D02*
X472500Y988560D01*
X480500Y988560D02*
X486500Y988560D01*
X523500Y988560D02*
X530500Y988560D01*
X544500Y988560D02*
X550500Y988560D01*
X466500Y987560D02*
X472500Y987560D01*
X480500Y987560D02*
X486500Y987560D01*
X523500Y987560D02*
X531500Y987560D01*
X544500Y987560D02*
X550500Y987560D01*
X466500Y986560D02*
X472500Y986560D01*
X480500Y986560D02*
X486500Y986560D01*
X524500Y986560D02*
X531500Y986560D01*
X544500Y986560D02*
X550500Y986560D01*
X466500Y985560D02*
X472500Y985560D01*
X480500Y985560D02*
X486500Y985560D01*
X525500Y985560D02*
X532500Y985560D01*
X544500Y985560D02*
X550500Y985560D01*
X467500Y984560D02*
X471500Y984560D01*
X480500Y984560D02*
X486500Y984560D01*
X525500Y984560D02*
X532500Y984560D01*
X544500Y984560D02*
X550500Y984560D01*
X468500Y983560D02*
X470500Y983560D01*
X480500Y983560D02*
X486500Y983560D01*
X526500Y983560D02*
X533500Y983560D01*
X544500Y983560D02*
X550500Y983560D01*
X480500Y982560D02*
X486500Y982560D01*
X526500Y982560D02*
X534500Y982560D01*
X544500Y982560D02*
X550500Y982560D01*
X480500Y981560D02*
X486500Y981560D01*
X527500Y981560D02*
X534500Y981560D01*
X544500Y981560D02*
X550500Y981560D01*
X480500Y980560D02*
X486500Y980560D01*
X528500Y980560D02*
X535500Y980560D01*
X544500Y980560D02*
X550500Y980560D01*
X480500Y979560D02*
X486500Y979560D01*
X528500Y979560D02*
X535500Y979560D01*
X544500Y979560D02*
X550500Y979560D01*
X480500Y978560D02*
X486500Y978560D01*
X529500Y978560D02*
X536500Y978560D01*
X544500Y978560D02*
X550500Y978560D01*
X480500Y977560D02*
X486500Y977560D01*
X529500Y977560D02*
X536500Y977560D01*
X544500Y977560D02*
X550500Y977560D01*
X480500Y976560D02*
X486500Y976560D01*
X530500Y976560D02*
X537500Y976560D01*
X544500Y976560D02*
X550500Y976560D01*
X480500Y975560D02*
X486500Y975560D01*
X530500Y975560D02*
X538500Y975560D01*
X544500Y975560D02*
X550500Y975560D01*
X480500Y974560D02*
X486500Y974560D01*
X525500Y974560D02*
X550500Y974560D01*
X480500Y973560D02*
X486500Y973560D01*
X522500Y973560D02*
X550500Y973560D01*
X480500Y972560D02*
X486500Y972560D01*
X520500Y972560D02*
X550500Y972560D01*
X480500Y971560D02*
X486500Y971560D01*
X519500Y971560D02*
X550500Y971560D01*
X480500Y970560D02*
X486500Y970560D01*
X518500Y970560D02*
X550500Y970560D01*
X480500Y969560D02*
X486500Y969560D01*
X518500Y969560D02*
X550500Y969560D01*
X480500Y968560D02*
X486500Y968560D01*
X517500Y968560D02*
X550500Y968560D01*
X480500Y967560D02*
X486500Y967560D01*
X517500Y967560D02*
X525500Y967560D01*
X544500Y967560D02*
X550500Y967560D01*
X480500Y966560D02*
X486500Y966560D01*
X517500Y966560D02*
X523500Y966560D01*
X544500Y966560D02*
X550500Y966560D01*
X480500Y965560D02*
X486500Y965560D01*
X516500Y965560D02*
X523500Y965560D01*
X544500Y965560D02*
X550500Y965560D01*
X480500Y964560D02*
X486500Y964560D01*
X516500Y964560D02*
X522500Y964560D01*
X544500Y964560D02*
X550500Y964560D01*
X480500Y963560D02*
X486500Y963560D01*
X516500Y963560D02*
X522500Y963560D01*
X544500Y963560D02*
X550500Y963560D01*
X480500Y962560D02*
X486500Y962560D01*
X516500Y962560D02*
X522500Y962560D01*
X544500Y962560D02*
X550500Y962560D01*
X480500Y961560D02*
X486500Y961560D01*
X516500Y961560D02*
X522500Y961560D01*
X544500Y961560D02*
X550500Y961560D01*
X480500Y960560D02*
X486500Y960560D01*
X516500Y960560D02*
X522500Y960560D01*
X544500Y960560D02*
X550500Y960560D01*
X480500Y959560D02*
X486500Y959560D01*
X516500Y959560D02*
X523500Y959560D01*
X544500Y959560D02*
X550500Y959560D01*
X480500Y958560D02*
X486500Y958560D01*
X517500Y958560D02*
X523500Y958560D01*
X544500Y958560D02*
X550500Y958560D01*
X480500Y957560D02*
X486500Y957560D01*
X517500Y957560D02*
X524500Y957560D01*
X544500Y957560D02*
X550500Y957560D01*
X480500Y956560D02*
X498500Y956560D01*
X517500Y956560D02*
X550500Y956560D01*
X480500Y955560D02*
X499500Y955560D01*
X518500Y955560D02*
X550500Y955560D01*
X480500Y954560D02*
X500500Y954560D01*
X518500Y954560D02*
X550500Y954560D01*
X480500Y953560D02*
X500500Y953560D01*
X519500Y953560D02*
X550500Y953560D01*
X480500Y952560D02*
X500500Y952560D01*
X520500Y952560D02*
X550500Y952560D01*
X480500Y951560D02*
X499500Y951560D01*
X522500Y951560D02*
X550500Y951560D01*
X480500Y950560D02*
X498500Y950560D01*
X524500Y950560D02*
X550500Y950560D01*
X681500Y754560D02*
X703500Y754560D01*
X728500Y754560D02*
X745500Y754560D01*
X679500Y753560D02*
X705500Y753560D01*
X727500Y753560D02*
X746500Y753560D01*
X678500Y752560D02*
X706500Y752560D01*
X726500Y752560D02*
X746500Y752560D01*
X677500Y751560D02*
X707500Y751560D01*
X726500Y751560D02*
X746500Y751560D01*
X677500Y750560D02*
X708500Y750560D01*
X726500Y750560D02*
X746500Y750560D01*
X676500Y749560D02*
X709500Y749560D01*
X727500Y749560D02*
X746500Y749560D01*
X676500Y748560D02*
X709500Y748560D01*
X728500Y748560D02*
X746500Y748560D01*
X676500Y747560D02*
X682500Y747560D01*
X702500Y747560D02*
X709500Y747560D01*
X740500Y747560D02*
X746500Y747560D01*
X676500Y746560D02*
X682500Y746560D01*
X703500Y746560D02*
X709500Y746560D01*
X740500Y746560D02*
X746500Y746560D01*
X676500Y745560D02*
X683500Y745560D01*
X703500Y745560D02*
X709500Y745560D01*
X740500Y745560D02*
X746500Y745560D01*
X676500Y744560D02*
X684500Y744560D01*
X704500Y744560D02*
X709500Y744560D01*
X740500Y744560D02*
X746500Y744560D01*
X677500Y743560D02*
X684500Y743560D01*
X704500Y743560D02*
X709500Y743560D01*
X740500Y743560D02*
X746500Y743560D01*
X677500Y742560D02*
X685500Y742560D01*
X705500Y742560D02*
X707500Y742560D01*
X740500Y742560D02*
X746500Y742560D01*
X678500Y741560D02*
X686500Y741560D01*
X740500Y741560D02*
X746500Y741560D01*
X679500Y740560D02*
X687500Y740560D01*
X740500Y740560D02*
X746500Y740560D01*
X680500Y739560D02*
X688500Y739560D01*
X740500Y739560D02*
X746500Y739560D01*
X680500Y738560D02*
X688500Y738560D01*
X740500Y738560D02*
X746500Y738560D01*
X681500Y737560D02*
X689500Y737560D01*
X740500Y737560D02*
X746500Y737560D01*
X682500Y736560D02*
X690500Y736560D01*
X740500Y736560D02*
X746500Y736560D01*
X683500Y735560D02*
X691500Y735560D01*
X740500Y735560D02*
X746500Y735560D01*
X683500Y734560D02*
X691500Y734560D01*
X740500Y734560D02*
X746500Y734560D01*
X684500Y733560D02*
X692500Y733560D01*
X740500Y733560D02*
X746500Y733560D01*
X685500Y732560D02*
X693500Y732560D01*
X740500Y732560D02*
X746500Y732560D01*
X686500Y731560D02*
X694500Y731560D01*
X740500Y731560D02*
X746500Y731560D01*
X687500Y730560D02*
X695500Y730560D01*
X740500Y730560D02*
X746500Y730560D01*
X687500Y729560D02*
X695500Y729560D01*
X740500Y729560D02*
X746500Y729560D01*
X688500Y728560D02*
X696500Y728560D01*
X740500Y728560D02*
X746500Y728560D01*
X689500Y727560D02*
X697500Y727560D01*
X740500Y727560D02*
X746500Y727560D01*
X690500Y726560D02*
X698500Y726560D01*
X740500Y726560D02*
X746500Y726560D01*
X690500Y725560D02*
X698500Y725560D01*
X740500Y725560D02*
X746500Y725560D01*
X691500Y724560D02*
X699500Y724560D01*
X740500Y724560D02*
X746500Y724560D01*
X692500Y723560D02*
X700500Y723560D01*
X740500Y723560D02*
X746500Y723560D01*
X693500Y722560D02*
X701500Y722560D01*
X740500Y722560D02*
X746500Y722560D01*
X693500Y721560D02*
X702500Y721560D01*
X740500Y721560D02*
X746500Y721560D01*
X755500Y721560D02*
X757500Y721560D01*
X694500Y720560D02*
X702500Y720560D01*
X740500Y720560D02*
X746500Y720560D01*
X754500Y720560D02*
X759500Y720560D01*
X695500Y719560D02*
X703500Y719560D01*
X740500Y719560D02*
X746500Y719560D01*
X754500Y719560D02*
X759500Y719560D01*
X696500Y718560D02*
X704500Y718560D01*
X740500Y718560D02*
X746500Y718560D01*
X754500Y718560D02*
X759500Y718560D01*
X697500Y717560D02*
X705500Y717560D01*
X740500Y717560D02*
X746500Y717560D01*
X753500Y717560D02*
X760500Y717560D01*
X697500Y716560D02*
X705500Y716560D01*
X740500Y716560D02*
X746500Y716560D01*
X753500Y716560D02*
X760500Y716560D01*
X698500Y715560D02*
X706500Y715560D01*
X740500Y715560D02*
X746500Y715560D01*
X753500Y715560D02*
X760500Y715560D01*
X699500Y714560D02*
X707500Y714560D01*
X740500Y714560D02*
X746500Y714560D01*
X753500Y714560D02*
X760500Y714560D01*
X678500Y713560D02*
X680500Y713560D01*
X700500Y713560D02*
X708500Y713560D01*
X740500Y713560D02*
X746500Y713560D01*
X753500Y713560D02*
X760500Y713560D01*
X677500Y712560D02*
X681500Y712560D01*
X700500Y712560D02*
X708500Y712560D01*
X740500Y712560D02*
X746500Y712560D01*
X753500Y712560D02*
X760500Y712560D01*
X676500Y711560D02*
X682500Y711560D01*
X701500Y711560D02*
X709500Y711560D01*
X740500Y711560D02*
X746500Y711560D01*
X753500Y711560D02*
X760500Y711560D01*
X676500Y710560D02*
X682500Y710560D01*
X702500Y710560D02*
X709500Y710560D01*
X740500Y710560D02*
X746500Y710560D01*
X753500Y710560D02*
X760500Y710560D01*
X676500Y709560D02*
X682500Y709560D01*
X703500Y709560D02*
X709500Y709560D01*
X740500Y709560D02*
X746500Y709560D01*
X753500Y709560D02*
X760500Y709560D01*
X676500Y708560D02*
X683500Y708560D01*
X703500Y708560D02*
X709500Y708560D01*
X740500Y708560D02*
X746500Y708560D01*
X753500Y708560D02*
X760500Y708560D01*
X676500Y707560D02*
X709500Y707560D01*
X728500Y707560D02*
X760500Y707560D01*
X677500Y706560D02*
X709500Y706560D01*
X727500Y706560D02*
X760500Y706560D01*
X677500Y705560D02*
X709500Y705560D01*
X726500Y705560D02*
X760500Y705560D01*
X678500Y704560D02*
X708500Y704560D01*
X726500Y704560D02*
X759500Y704560D01*
X679500Y703560D02*
X707500Y703560D01*
X726500Y703560D02*
X759500Y703560D01*
X680500Y702560D02*
X706500Y702560D01*
X727500Y702560D02*
X759500Y702560D01*
X682500Y701560D02*
X704500Y701560D01*
X728500Y701560D02*
X758500Y701560D01*
X1917500Y576560D02*
X1960500Y576560D01*
X1915500Y575560D02*
X1961500Y575560D01*
X1913500Y574560D02*
X1962500Y574560D01*
X1912500Y573560D02*
X1962500Y573560D01*
X1911500Y572560D02*
X1962500Y572560D01*
X1911500Y571560D02*
X1962500Y571560D01*
X1910500Y570560D02*
X1961500Y570560D01*
X1910500Y569560D02*
X1917500Y569560D01*
X1909500Y568560D02*
X1916500Y568560D01*
X1909500Y567560D02*
X1915500Y567560D01*
X1909500Y566560D02*
X1915500Y566560D01*
X1909500Y565560D02*
X1915500Y565560D01*
X1909500Y564560D02*
X1915500Y564560D01*
X1909500Y563560D02*
X1915500Y563560D01*
X1909500Y562560D02*
X1915500Y562560D01*
X1909500Y561560D02*
X1915500Y561560D01*
X1909500Y560560D02*
X1915500Y560560D01*
X1909500Y559560D02*
X1915500Y559560D01*
X1909500Y558560D02*
X1915500Y558560D01*
X1909500Y557560D02*
X1915500Y557560D01*
X1909500Y556560D02*
X1915500Y556560D01*
X1909500Y555560D02*
X1915500Y555560D01*
X1909500Y554560D02*
X1915500Y554560D01*
X1909500Y553560D02*
X1915500Y553560D01*
X1909500Y552560D02*
X1915500Y552560D01*
X1909500Y551560D02*
X1915500Y551560D01*
X1909500Y550560D02*
X1916500Y550560D01*
X1910500Y549560D02*
X1917500Y549560D01*
X1910500Y548560D02*
X1961500Y548560D01*
X1911500Y547560D02*
X1962500Y547560D01*
X1911500Y546560D02*
X1962500Y546560D01*
X1912500Y545560D02*
X1962500Y545560D01*
X1913500Y544560D02*
X1962500Y544560D01*
X1915500Y543560D02*
X1961500Y543560D01*
X1917500Y542560D02*
X1960500Y542560D01*
X1912500Y526560D02*
X1912500Y526560D01*
X1959500Y526560D02*
X1959500Y526560D01*
X1910500Y525560D02*
X1914500Y525560D01*
X1957500Y525560D02*
X1961500Y525560D01*
X1909500Y524560D02*
X1915500Y524560D01*
X1957500Y524560D02*
X1962500Y524560D01*
X1909500Y523560D02*
X1915500Y523560D01*
X1956500Y523560D02*
X1962500Y523560D01*
X1909500Y522560D02*
X1915500Y522560D01*
X1956500Y522560D02*
X1962500Y522560D01*
X1909500Y521560D02*
X1915500Y521560D01*
X1956500Y521560D02*
X1962500Y521560D01*
X1909500Y520560D02*
X1915500Y520560D01*
X1956500Y520560D02*
X1962500Y520560D01*
X1909500Y519560D02*
X1915500Y519560D01*
X1956500Y519560D02*
X1962500Y519560D01*
X1909500Y518560D02*
X1915500Y518560D01*
X1956500Y518560D02*
X1962500Y518560D01*
X1909500Y517560D02*
X1915500Y517560D01*
X1956500Y517560D02*
X1962500Y517560D01*
X1909500Y516560D02*
X1915500Y516560D01*
X1956500Y516560D02*
X1962500Y516560D01*
X1909500Y515560D02*
X1915500Y515560D01*
X1956500Y515560D02*
X1962500Y515560D01*
X1909500Y514560D02*
X1915500Y514560D01*
X1956500Y514560D02*
X1962500Y514560D01*
X1909500Y513560D02*
X1915500Y513560D01*
X1956500Y513560D02*
X1962500Y513560D01*
X1909500Y512560D02*
X1962500Y512560D01*
X1909500Y511560D02*
X1962500Y511560D01*
X1909500Y510560D02*
X1962500Y510560D01*
X1909500Y509560D02*
X1962500Y509560D01*
X1909500Y508560D02*
X1962500Y508560D01*
X1909500Y507560D02*
X1962500Y507560D01*
X1909500Y506560D02*
X1962500Y506560D01*
X1909500Y505560D02*
X1915500Y505560D01*
X1909500Y504560D02*
X1915500Y504560D01*
X1909500Y503560D02*
X1915500Y503560D01*
X1909500Y502560D02*
X1915500Y502560D01*
X1909500Y501560D02*
X1915500Y501560D01*
X1909500Y500560D02*
X1915500Y500560D01*
X1909500Y499560D02*
X1915500Y499560D01*
X1909500Y498560D02*
X1927500Y498560D01*
X1909500Y497560D02*
X1928500Y497560D01*
X1909500Y496560D02*
X1929500Y496560D01*
X1909500Y495560D02*
X1929500Y495560D01*
X1909500Y494560D02*
X1929500Y494560D01*
X1910500Y493560D02*
X1928500Y493560D01*
X1911500Y492560D02*
X1927500Y492560D01*
D02*
G04 End of Silk1*
M02*