G04 MADE WITH FRITZING*
G04 WWW.FRITZING.ORG*
G04 SINGLE SIDED*
G04 HOLES NOT PLATED*
G04 CONTOUR ON CENTER OF CONTOUR VECTOR*
%FSLAX26Y26*%
%MOIN*%
%ADD10C,0.078000*%
%ADD11C,0.074000*%
%ADD12C,0.075000*%
%ADD13C,0.085437*%
%ADD14C,0.024000*%
%ADD15R,0.001000X0.001000*%
G04 COPPER0*
%FSLAX26Y26*%
%MOIN*%
D10*
X157934Y1449470D03*
X257831Y1449470D03*
X357831Y1449470D03*
X457832Y1449470D03*
X557832Y1449470D03*
X657832Y1449470D03*
X757832Y1449470D03*
X857832Y1449470D03*
X957832Y1449470D03*
X957938Y2049924D03*
X857938Y2049924D03*
X757938Y2049924D03*
X657938Y2049924D03*
X557938Y2049924D03*
X457938Y2049924D03*
X357938Y2049924D03*
X257938Y2049924D03*
X158001Y2049924D03*
X1299930Y2340530D03*
X1699930Y2340530D03*
X1700000Y255060D03*
X1499930Y2340530D03*
X1899920Y2340530D03*
X1600000Y255060D03*
X1199930Y2340530D03*
X1399930Y2340530D03*
X1599930Y2340530D03*
X1799930Y2340530D03*
X1500000Y255060D03*
X1400010Y255060D03*
D11*
X300000Y655550D03*
X556000Y655550D03*
X300000Y477550D03*
X556000Y477550D03*
D12*
X600000Y1055550D03*
X200000Y1055550D03*
D13*
X1800000Y655550D03*
X1406300Y655550D03*
D14*
X400219Y1754950D02*
X266193Y2032811D01*
D02*
X315798Y667810D02*
X1199840Y1354090D01*
D02*
X1199840Y1354090D02*
X1691430Y1973758D01*
D02*
X400290Y1655355D02*
X300805Y1756031D01*
D02*
X1100290Y1355650D02*
X1100290Y1655355D01*
D02*
X1100290Y1655355D02*
X400290Y1655355D01*
D02*
X300805Y1756031D02*
X166305Y2032834D01*
D02*
X615007Y1064550D02*
X1100290Y1355650D01*
D02*
X343050Y2061727D02*
X99828Y2254544D01*
D02*
X1924620Y2472309D02*
X1903430Y2359209D01*
D02*
X739465Y2478586D02*
X910208Y2494907D01*
D02*
X299484Y2454200D02*
X739465Y2478586D01*
D02*
X99828Y2454200D02*
X299484Y2454200D01*
D02*
X99828Y2254544D02*
X99828Y2454200D01*
D02*
X400167Y2254890D02*
X452784Y2068211D01*
D02*
X1200500Y2355227D02*
X1200500Y2355227D01*
D02*
X779640Y2371872D02*
X400167Y2355227D01*
D02*
X400167Y2355227D02*
X400167Y2254890D01*
D02*
X572447Y2062192D02*
X800334Y2254890D01*
D02*
X1708690Y2175118D02*
X1700930Y2321560D01*
D02*
X284439Y490110D02*
X204000Y555060D01*
X204000Y555060D02*
X200140Y1038050D01*
D02*
X643429Y1437070D02*
X213266Y1066960D01*
D02*
X1390030Y2324312D02*
X1353430Y2264292D01*
D02*
X1005460Y2201966D02*
X684000Y2091060D01*
D02*
X1353430Y2264292D02*
X1236930Y2203884D01*
D02*
X1236930Y2203884D02*
X1005460Y2201966D01*
D02*
X684000Y2091060D02*
X668107Y2065974D01*
D02*
X1803690Y2321909D02*
X1855390Y2065808D01*
D02*
X1855390Y2065808D02*
X924000Y771060D01*
X924000Y771060D02*
X492000Y723060D01*
X492000Y723060D02*
X324000Y627060D01*
X324000Y627060D02*
X312886Y640250D01*
D15*
X907500Y2506560D02*
X930500Y2506560D01*
X904500Y2505560D02*
X966500Y2505560D01*
X903500Y2504560D02*
X996500Y2504560D01*
X901500Y2503560D02*
X1019500Y2503560D01*
X900500Y2502560D02*
X1038500Y2502560D01*
X900500Y2501560D02*
X1283500Y2501560D01*
X899500Y2500560D02*
X1476500Y2500560D01*
X899500Y2499560D02*
X1578500Y2499560D01*
X898500Y2498560D02*
X1650500Y2498560D01*
X898500Y2497560D02*
X1704500Y2497560D01*
X898500Y2496560D02*
X1746500Y2496560D01*
X898500Y2495560D02*
X1781500Y2495560D01*
X898500Y2494560D02*
X1811500Y2494560D01*
X898500Y2493560D02*
X1834500Y2493560D01*
X898500Y2492560D02*
X1855500Y2492560D01*
X898500Y2491560D02*
X1872500Y2491560D01*
X898500Y2490560D02*
X1886500Y2490560D01*
X899500Y2489560D02*
X1897500Y2489560D01*
X899500Y2488560D02*
X1906500Y2488560D01*
X900500Y2487560D02*
X1913500Y2487560D01*
X901500Y2486560D02*
X1919500Y2486560D01*
X902500Y2485560D02*
X1923500Y2485560D01*
X903500Y2484560D02*
X1926500Y2484560D01*
X906500Y2483560D02*
X1928500Y2483560D01*
X931500Y2482560D02*
X1930500Y2482560D01*
X967500Y2481560D02*
X1931500Y2481560D01*
X996500Y2480560D02*
X1932500Y2480560D01*
X1019500Y2479560D02*
X1933500Y2479560D01*
X1039500Y2478560D02*
X1934500Y2478560D01*
X1281500Y2477560D02*
X1934500Y2477560D01*
X1476500Y2476560D02*
X1935500Y2476560D01*
X1580500Y2475560D02*
X1935500Y2475560D01*
X1651500Y2474560D02*
X1935500Y2474560D01*
X1704500Y2473560D02*
X1935500Y2473560D01*
X1746500Y2472560D02*
X1935500Y2472560D01*
X1782500Y2471560D02*
X1935500Y2471560D01*
X1811500Y2470560D02*
X1935500Y2470560D01*
X1834500Y2469560D02*
X1935500Y2469560D01*
X1855500Y2468560D02*
X1935500Y2468560D01*
X1872500Y2467560D02*
X1934500Y2467560D01*
X1886500Y2466560D02*
X1934500Y2466560D01*
X1897500Y2465560D02*
X1933500Y2465560D01*
X1906500Y2464560D02*
X1933500Y2464560D01*
X1912500Y2463560D02*
X1932500Y2463560D01*
X1917500Y2462560D02*
X1930500Y2462560D01*
X1919500Y2461560D02*
X1929500Y2461560D01*
X1922500Y2460560D02*
X1926500Y2460560D01*
X954500Y2432560D02*
X1010500Y2432560D01*
X941500Y2431560D02*
X1023500Y2431560D01*
X930500Y2430560D02*
X1034500Y2430560D01*
X922500Y2429560D02*
X1043500Y2429560D01*
X915500Y2428560D02*
X1050500Y2428560D01*
X909500Y2427560D02*
X1058500Y2427560D01*
X903500Y2426560D02*
X1064500Y2426560D01*
X898500Y2425560D02*
X1071500Y2425560D01*
X893500Y2424560D02*
X1075500Y2424560D01*
X888500Y2423560D02*
X1078500Y2423560D01*
X883500Y2422560D02*
X1080500Y2422560D01*
X879500Y2421560D02*
X1082500Y2421560D01*
X875500Y2420560D02*
X1084500Y2420560D01*
X871500Y2419560D02*
X1086500Y2419560D01*
X867500Y2418560D02*
X1089500Y2418560D01*
X863500Y2417560D02*
X1091500Y2417560D01*
X860500Y2416560D02*
X1093500Y2416560D01*
X856500Y2415560D02*
X1095500Y2415560D01*
X853500Y2414560D02*
X1098500Y2414560D01*
X850500Y2413560D02*
X1100500Y2413560D01*
X846500Y2412560D02*
X1102500Y2412560D01*
X843500Y2411560D02*
X1104500Y2411560D01*
X840500Y2410560D02*
X1107500Y2410560D01*
X837500Y2409560D02*
X1109500Y2409560D01*
X834500Y2408560D02*
X954500Y2408560D01*
X1010500Y2408560D02*
X1111500Y2408560D01*
X832500Y2407560D02*
X941500Y2407560D01*
X1024500Y2407560D02*
X1113500Y2407560D01*
X829500Y2406560D02*
X931500Y2406560D01*
X1034500Y2406560D02*
X1116500Y2406560D01*
X826500Y2405560D02*
X923500Y2405560D01*
X1043500Y2405560D02*
X1118500Y2405560D01*
X823500Y2404560D02*
X916500Y2404560D01*
X1050500Y2404560D02*
X1120500Y2404560D01*
X821500Y2403560D02*
X910500Y2403560D01*
X1057500Y2403560D02*
X1122500Y2403560D01*
X818500Y2402560D02*
X904500Y2402560D01*
X1063500Y2402560D02*
X1125500Y2402560D01*
X816500Y2401560D02*
X899500Y2401560D01*
X1069500Y2401560D02*
X1127500Y2401560D01*
X813500Y2400560D02*
X894500Y2400560D01*
X1071500Y2400560D02*
X1129500Y2400560D01*
X811500Y2399560D02*
X889500Y2399560D01*
X1073500Y2399560D02*
X1131500Y2399560D01*
X808500Y2398560D02*
X885500Y2398560D01*
X1076500Y2398560D02*
X1133500Y2398560D01*
X806500Y2397560D02*
X880500Y2397560D01*
X1078500Y2397560D02*
X1136500Y2397560D01*
X804500Y2396560D02*
X876500Y2396560D01*
X1080500Y2396560D02*
X1138500Y2396560D01*
X801500Y2395560D02*
X872500Y2395560D01*
X1082500Y2395560D02*
X1140500Y2395560D01*
X799500Y2394560D02*
X869500Y2394560D01*
X1085500Y2394560D02*
X1142500Y2394560D01*
X797500Y2393560D02*
X865500Y2393560D01*
X1087500Y2393560D02*
X1144500Y2393560D01*
X795500Y2392560D02*
X862500Y2392560D01*
X1089500Y2392560D02*
X1147500Y2392560D01*
X793500Y2391560D02*
X858500Y2391560D01*
X1091500Y2391560D02*
X1149500Y2391560D01*
X790500Y2390560D02*
X855500Y2390560D01*
X1094500Y2390560D02*
X1151500Y2390560D01*
X788500Y2389560D02*
X852500Y2389560D01*
X1096500Y2389560D02*
X1153500Y2389560D01*
X786500Y2388560D02*
X849500Y2388560D01*
X1098500Y2388560D02*
X1155500Y2388560D01*
X784500Y2387560D02*
X846500Y2387560D01*
X1100500Y2387560D02*
X1158500Y2387560D01*
X782500Y2386560D02*
X843500Y2386560D01*
X1103500Y2386560D02*
X1160500Y2386560D01*
X780500Y2385560D02*
X840500Y2385560D01*
X1105500Y2385560D02*
X1162500Y2385560D01*
X778500Y2384560D02*
X837500Y2384560D01*
X1107500Y2384560D02*
X1164500Y2384560D01*
X776500Y2383560D02*
X835500Y2383560D01*
X1109500Y2383560D02*
X1166500Y2383560D01*
X774500Y2382560D02*
X832500Y2382560D01*
X1111500Y2382560D02*
X1169500Y2382560D01*
X773500Y2381560D02*
X829500Y2381560D01*
X1114500Y2381560D02*
X1171500Y2381560D01*
X771500Y2380560D02*
X827500Y2380560D01*
X1116500Y2380560D02*
X1173500Y2380560D01*
X770500Y2379560D02*
X824500Y2379560D01*
X1118500Y2379560D02*
X1175500Y2379560D01*
X770500Y2378560D02*
X822500Y2378560D01*
X1120500Y2378560D02*
X1177500Y2378560D01*
X769500Y2377560D02*
X819500Y2377560D01*
X1123500Y2377560D02*
X1180500Y2377560D01*
X769500Y2376560D02*
X817500Y2376560D01*
X1125500Y2376560D02*
X1182500Y2376560D01*
X768500Y2375560D02*
X814500Y2375560D01*
X1127500Y2375560D02*
X1184500Y2375560D01*
X768500Y2374560D02*
X812500Y2374560D01*
X1129500Y2374560D02*
X1186500Y2374560D01*
X768500Y2373560D02*
X810500Y2373560D01*
X1131500Y2373560D02*
X1188500Y2373560D01*
X768500Y2372560D02*
X808500Y2372560D01*
X1134500Y2372560D02*
X1190500Y2372560D01*
X768500Y2371560D02*
X805500Y2371560D01*
X1136500Y2371560D02*
X1193500Y2371560D01*
X768500Y2370560D02*
X803500Y2370560D01*
X1138500Y2370560D02*
X1195500Y2370560D01*
X768500Y2369560D02*
X801500Y2369560D01*
X1140500Y2369560D02*
X1197500Y2369560D01*
X768500Y2368560D02*
X799500Y2368560D01*
X1142500Y2368560D02*
X1199500Y2368560D01*
X768500Y2367560D02*
X797500Y2367560D01*
X1145500Y2367560D02*
X1201500Y2367560D01*
X769500Y2366560D02*
X795500Y2366560D01*
X1147500Y2366560D02*
X1203500Y2366560D01*
X769500Y2365560D02*
X793500Y2365560D01*
X1149500Y2365560D02*
X1205500Y2365560D01*
X770500Y2364560D02*
X791500Y2364560D01*
X1151500Y2364560D02*
X1207500Y2364560D01*
X771500Y2363560D02*
X789500Y2363560D01*
X1153500Y2363560D02*
X1208500Y2363560D01*
X772500Y2362560D02*
X787500Y2362560D01*
X1156500Y2362560D02*
X1209500Y2362560D01*
X773500Y2361560D02*
X785500Y2361560D01*
X1158500Y2361560D02*
X1210500Y2361560D01*
X776500Y2360560D02*
X782500Y2360560D01*
X1160500Y2360560D02*
X1210500Y2360560D01*
X1162500Y2359560D02*
X1211500Y2359560D01*
X1164500Y2358560D02*
X1211500Y2358560D01*
X1167500Y2357560D02*
X1211500Y2357560D01*
X1169500Y2356560D02*
X1211500Y2356560D01*
X1171500Y2355560D02*
X1211500Y2355560D01*
X1173500Y2354560D02*
X1211500Y2354560D01*
X1175500Y2353560D02*
X1211500Y2353560D01*
X1177500Y2352560D02*
X1211500Y2352560D01*
X1180500Y2351560D02*
X1211500Y2351560D01*
X1295500Y2351560D02*
X1303500Y2351560D01*
X1495500Y2351560D02*
X1503500Y2351560D01*
X1595500Y2351560D02*
X1603500Y2351560D01*
X1182500Y2350560D02*
X1210500Y2350560D01*
X1293500Y2350560D02*
X1305500Y2350560D01*
X1493500Y2350560D02*
X1505500Y2350560D01*
X1593500Y2350560D02*
X1605500Y2350560D01*
X1184500Y2349560D02*
X1210500Y2349560D01*
X1292500Y2349560D02*
X1307500Y2349560D01*
X1492500Y2349560D02*
X1507500Y2349560D01*
X1592500Y2349560D02*
X1607500Y2349560D01*
X1186500Y2348560D02*
X1209500Y2348560D01*
X1291500Y2348560D02*
X1308500Y2348560D01*
X1491500Y2348560D02*
X1508500Y2348560D01*
X1591500Y2348560D02*
X1608500Y2348560D01*
X1188500Y2347560D02*
X1209500Y2347560D01*
X1290500Y2347560D02*
X1309500Y2347560D01*
X1490500Y2347560D02*
X1508500Y2347560D01*
X1590500Y2347560D02*
X1608500Y2347560D01*
X1191500Y2346560D02*
X1208500Y2346560D01*
X1289500Y2346560D02*
X1309500Y2346560D01*
X1489500Y2346560D02*
X1509500Y2346560D01*
X1589500Y2346560D02*
X1609500Y2346560D01*
X1193500Y2345560D02*
X1206500Y2345560D01*
X1289500Y2345560D02*
X1310500Y2345560D01*
X1489500Y2345560D02*
X1510500Y2345560D01*
X1589500Y2345560D02*
X1610500Y2345560D01*
X1195500Y2344560D02*
X1205500Y2344560D01*
X1289500Y2344560D02*
X1310500Y2344560D01*
X1489500Y2344560D02*
X1510500Y2344560D01*
X1588500Y2344560D02*
X1610500Y2344560D01*
X1198500Y2343560D02*
X1202500Y2343560D01*
X1288500Y2343560D02*
X1310500Y2343560D01*
X1488500Y2343560D02*
X1510500Y2343560D01*
X1588500Y2343560D02*
X1610500Y2343560D01*
X1288500Y2342560D02*
X1311500Y2342560D01*
X1488500Y2342560D02*
X1511500Y2342560D01*
X1587500Y2342560D02*
X1611500Y2342560D01*
X1287500Y2341560D02*
X1311500Y2341560D01*
X1488500Y2341560D02*
X1511500Y2341560D01*
X1587500Y2341560D02*
X1611500Y2341560D01*
X1287500Y2340560D02*
X1311500Y2340560D01*
X1488500Y2340560D02*
X1511500Y2340560D01*
X1586500Y2340560D02*
X1611500Y2340560D01*
X1287500Y2339560D02*
X1311500Y2339560D01*
X1488500Y2339560D02*
X1512500Y2339560D01*
X1586500Y2339560D02*
X1611500Y2339560D01*
X1286500Y2338560D02*
X1311500Y2338560D01*
X1488500Y2338560D02*
X1512500Y2338560D01*
X1585500Y2338560D02*
X1611500Y2338560D01*
X1286500Y2337560D02*
X1310500Y2337560D01*
X1488500Y2337560D02*
X1512500Y2337560D01*
X1585500Y2337560D02*
X1610500Y2337560D01*
X1285500Y2336560D02*
X1310500Y2336560D01*
X1488500Y2336560D02*
X1513500Y2336560D01*
X1584500Y2336560D02*
X1610500Y2336560D01*
X1285500Y2335560D02*
X1310500Y2335560D01*
X1489500Y2335560D02*
X1513500Y2335560D01*
X1584500Y2335560D02*
X1610500Y2335560D01*
X1285500Y2334560D02*
X1309500Y2334560D01*
X1489500Y2334560D02*
X1513500Y2334560D01*
X1583500Y2334560D02*
X1609500Y2334560D01*
X1284500Y2333560D02*
X1309500Y2333560D01*
X1489500Y2333560D02*
X1513500Y2333560D01*
X1583500Y2333560D02*
X1609500Y2333560D01*
X1284500Y2332560D02*
X1309500Y2332560D01*
X1490500Y2332560D02*
X1514500Y2332560D01*
X1583500Y2332560D02*
X1608500Y2332560D01*
X1283500Y2331560D02*
X1308500Y2331560D01*
X1490500Y2331560D02*
X1514500Y2331560D01*
X1582500Y2331560D02*
X1607500Y2331560D01*
X1283500Y2330560D02*
X1308500Y2330560D01*
X1490500Y2330560D02*
X1514500Y2330560D01*
X1582500Y2330560D02*
X1607500Y2330560D01*
X1282500Y2329560D02*
X1307500Y2329560D01*
X1491500Y2329560D02*
X1514500Y2329560D01*
X1581500Y2329560D02*
X1606500Y2329560D01*
X1282500Y2328560D02*
X1307500Y2328560D01*
X1491500Y2328560D02*
X1515500Y2328560D01*
X1581500Y2328560D02*
X1606500Y2328560D01*
X1281500Y2327560D02*
X1307500Y2327560D01*
X1491500Y2327560D02*
X1515500Y2327560D01*
X1581500Y2327560D02*
X1605500Y2327560D01*
X1281500Y2326560D02*
X1306500Y2326560D01*
X1491500Y2326560D02*
X1515500Y2326560D01*
X1580500Y2326560D02*
X1605500Y2326560D01*
X1280500Y2325560D02*
X1306500Y2325560D01*
X1492500Y2325560D02*
X1515500Y2325560D01*
X1580500Y2325560D02*
X1605500Y2325560D01*
X1280500Y2324560D02*
X1305500Y2324560D01*
X1492500Y2324560D02*
X1515500Y2324560D01*
X1580500Y2324560D02*
X1604500Y2324560D01*
X1280500Y2323560D02*
X1305500Y2323560D01*
X1492500Y2323560D02*
X1516500Y2323560D01*
X1579500Y2323560D02*
X1604500Y2323560D01*
X1279500Y2322560D02*
X1304500Y2322560D01*
X1492500Y2322560D02*
X1516500Y2322560D01*
X1579500Y2322560D02*
X1603500Y2322560D01*
X1279500Y2321560D02*
X1304500Y2321560D01*
X1493500Y2321560D02*
X1516500Y2321560D01*
X1579500Y2321560D02*
X1603500Y2321560D01*
X1278500Y2320560D02*
X1303500Y2320560D01*
X1493500Y2320560D02*
X1516500Y2320560D01*
X1578500Y2320560D02*
X1603500Y2320560D01*
X1278500Y2319560D02*
X1303500Y2319560D01*
X1493500Y2319560D02*
X1516500Y2319560D01*
X1578500Y2319560D02*
X1602500Y2319560D01*
X1277500Y2318560D02*
X1303500Y2318560D01*
X1493500Y2318560D02*
X1516500Y2318560D01*
X1578500Y2318560D02*
X1602500Y2318560D01*
X1276500Y2317560D02*
X1302500Y2317560D01*
X1493500Y2317560D02*
X1517500Y2317560D01*
X1578500Y2317560D02*
X1602500Y2317560D01*
X1276500Y2316560D02*
X1302500Y2316560D01*
X1494500Y2316560D02*
X1517500Y2316560D01*
X1577500Y2316560D02*
X1601500Y2316560D01*
X1275500Y2315560D02*
X1301500Y2315560D01*
X1494500Y2315560D02*
X1517500Y2315560D01*
X1577500Y2315560D02*
X1601500Y2315560D01*
X1275500Y2314560D02*
X1301500Y2314560D01*
X1494500Y2314560D02*
X1517500Y2314560D01*
X1577500Y2314560D02*
X1601500Y2314560D01*
X1274500Y2313560D02*
X1300500Y2313560D01*
X1494500Y2313560D02*
X1517500Y2313560D01*
X1577500Y2313560D02*
X1600500Y2313560D01*
X1274500Y2312560D02*
X1300500Y2312560D01*
X1494500Y2312560D02*
X1517500Y2312560D01*
X1576500Y2312560D02*
X1600500Y2312560D01*
X1273500Y2311560D02*
X1299500Y2311560D01*
X1494500Y2311560D02*
X1517500Y2311560D01*
X1576500Y2311560D02*
X1600500Y2311560D01*
X1272500Y2310560D02*
X1299500Y2310560D01*
X1494500Y2310560D02*
X1517500Y2310560D01*
X1576500Y2310560D02*
X1600500Y2310560D01*
X1272500Y2309560D02*
X1298500Y2309560D01*
X1494500Y2309560D02*
X1517500Y2309560D01*
X1576500Y2309560D02*
X1599500Y2309560D01*
X1271500Y2308560D02*
X1298500Y2308560D01*
X1494500Y2308560D02*
X1517500Y2308560D01*
X1575500Y2308560D02*
X1599500Y2308560D01*
X1271500Y2307560D02*
X1297500Y2307560D01*
X1494500Y2307560D02*
X1517500Y2307560D01*
X1575500Y2307560D02*
X1599500Y2307560D01*
X1270500Y2306560D02*
X1297500Y2306560D01*
X1494500Y2306560D02*
X1517500Y2306560D01*
X1575500Y2306560D02*
X1599500Y2306560D01*
X1269500Y2305560D02*
X1296500Y2305560D01*
X1495500Y2305560D02*
X1517500Y2305560D01*
X1575500Y2305560D02*
X1598500Y2305560D01*
X1269500Y2304560D02*
X1296500Y2304560D01*
X1495500Y2304560D02*
X1517500Y2304560D01*
X1575500Y2304560D02*
X1598500Y2304560D01*
X1268500Y2303560D02*
X1295500Y2303560D01*
X1495500Y2303560D02*
X1517500Y2303560D01*
X1574500Y2303560D02*
X1598500Y2303560D01*
X1267500Y2302560D02*
X1294500Y2302560D01*
X1495500Y2302560D02*
X1517500Y2302560D01*
X1574500Y2302560D02*
X1598500Y2302560D01*
X1266500Y2301560D02*
X1294500Y2301560D01*
X1494500Y2301560D02*
X1517500Y2301560D01*
X1574500Y2301560D02*
X1597500Y2301560D01*
X1266500Y2300560D02*
X1293500Y2300560D01*
X1494500Y2300560D02*
X1517500Y2300560D01*
X1574500Y2300560D02*
X1597500Y2300560D01*
X1265500Y2299560D02*
X1293500Y2299560D01*
X1494500Y2299560D02*
X1517500Y2299560D01*
X1574500Y2299560D02*
X1597500Y2299560D01*
X1264500Y2298560D02*
X1292500Y2298560D01*
X1494500Y2298560D02*
X1517500Y2298560D01*
X1573500Y2298560D02*
X1597500Y2298560D01*
X1263500Y2297560D02*
X1291500Y2297560D01*
X1494500Y2297560D02*
X1517500Y2297560D01*
X1573500Y2297560D02*
X1597500Y2297560D01*
X1262500Y2296560D02*
X1291500Y2296560D01*
X1494500Y2296560D02*
X1517500Y2296560D01*
X1573500Y2296560D02*
X1596500Y2296560D01*
X1261500Y2295560D02*
X1290500Y2295560D01*
X1494500Y2295560D02*
X1517500Y2295560D01*
X1573500Y2295560D02*
X1596500Y2295560D01*
X1260500Y2294560D02*
X1289500Y2294560D01*
X1494500Y2294560D02*
X1517500Y2294560D01*
X1573500Y2294560D02*
X1596500Y2294560D01*
X1259500Y2293560D02*
X1289500Y2293560D01*
X1494500Y2293560D02*
X1517500Y2293560D01*
X1573500Y2293560D02*
X1596500Y2293560D01*
X1258500Y2292560D02*
X1288500Y2292560D01*
X1494500Y2292560D02*
X1517500Y2292560D01*
X1572500Y2292560D02*
X1596500Y2292560D01*
X1258500Y2291560D02*
X1288500Y2291560D01*
X1494500Y2291560D02*
X1517500Y2291560D01*
X1572500Y2291560D02*
X1596500Y2291560D01*
X1256500Y2290560D02*
X1287500Y2290560D01*
X1493500Y2290560D02*
X1517500Y2290560D01*
X1572500Y2290560D02*
X1595500Y2290560D01*
X1255500Y2289560D02*
X1286500Y2289560D01*
X1493500Y2289560D02*
X1517500Y2289560D01*
X1572500Y2289560D02*
X1595500Y2289560D01*
X1254500Y2288560D02*
X1285500Y2288560D01*
X1493500Y2288560D02*
X1516500Y2288560D01*
X1572500Y2288560D02*
X1595500Y2288560D01*
X1253500Y2287560D02*
X1285500Y2287560D01*
X1493500Y2287560D02*
X1516500Y2287560D01*
X1572500Y2287560D02*
X1595500Y2287560D01*
X1252500Y2286560D02*
X1284500Y2286560D01*
X1493500Y2286560D02*
X1516500Y2286560D01*
X1572500Y2286560D02*
X1595500Y2286560D01*
X1251500Y2285560D02*
X1283500Y2285560D01*
X1492500Y2285560D02*
X1516500Y2285560D01*
X1571500Y2285560D02*
X1595500Y2285560D01*
X1249500Y2284560D02*
X1282500Y2284560D01*
X1492500Y2284560D02*
X1516500Y2284560D01*
X1571500Y2284560D02*
X1595500Y2284560D01*
X1248500Y2283560D02*
X1282500Y2283560D01*
X1492500Y2283560D02*
X1515500Y2283560D01*
X1571500Y2283560D02*
X1594500Y2283560D01*
X1246500Y2282560D02*
X1281500Y2282560D01*
X1492500Y2282560D02*
X1515500Y2282560D01*
X1571500Y2282560D02*
X1594500Y2282560D01*
X1174500Y2281560D02*
X1200500Y2281560D01*
X1245500Y2281560D02*
X1280500Y2281560D01*
X1491500Y2281560D02*
X1515500Y2281560D01*
X1571500Y2281560D02*
X1594500Y2281560D01*
X1164500Y2280560D02*
X1208500Y2280560D01*
X1243500Y2280560D02*
X1279500Y2280560D01*
X1491500Y2280560D02*
X1515500Y2280560D01*
X1571500Y2280560D02*
X1594500Y2280560D01*
X1156500Y2279560D02*
X1214500Y2279560D01*
X1241500Y2279560D02*
X1278500Y2279560D01*
X1491500Y2279560D02*
X1515500Y2279560D01*
X1571500Y2279560D02*
X1594500Y2279560D01*
X1149500Y2278560D02*
X1218500Y2278560D01*
X1239500Y2278560D02*
X1277500Y2278560D01*
X1490500Y2278560D02*
X1514500Y2278560D01*
X1571500Y2278560D02*
X1594500Y2278560D01*
X1143500Y2277560D02*
X1221500Y2277560D01*
X1237500Y2277560D02*
X1276500Y2277560D01*
X1490500Y2277560D02*
X1514500Y2277560D01*
X1571500Y2277560D02*
X1594500Y2277560D01*
X1137500Y2276560D02*
X1224500Y2276560D01*
X1235500Y2276560D02*
X1275500Y2276560D01*
X1490500Y2276560D02*
X1514500Y2276560D01*
X1570500Y2276560D02*
X1594500Y2276560D01*
X1132500Y2275560D02*
X1227500Y2275560D01*
X1233500Y2275560D02*
X1274500Y2275560D01*
X1489500Y2275560D02*
X1513500Y2275560D01*
X1570500Y2275560D02*
X1593500Y2275560D01*
X1126500Y2274560D02*
X1273500Y2274560D01*
X1489500Y2274560D02*
X1513500Y2274560D01*
X1570500Y2274560D02*
X1593500Y2274560D01*
X1121500Y2273560D02*
X1272500Y2273560D01*
X1488500Y2273560D02*
X1513500Y2273560D01*
X1570500Y2273560D02*
X1593500Y2273560D01*
X1116500Y2272560D02*
X1271500Y2272560D01*
X1488500Y2272560D02*
X1513500Y2272560D01*
X1570500Y2272560D02*
X1593500Y2272560D01*
X1111500Y2271560D02*
X1270500Y2271560D01*
X1488500Y2271560D02*
X1512500Y2271560D01*
X1570500Y2271560D02*
X1593500Y2271560D01*
X1106500Y2270560D02*
X1269500Y2270560D01*
X1487500Y2270560D02*
X1512500Y2270560D01*
X1570500Y2270560D02*
X1593500Y2270560D01*
X1102500Y2269560D02*
X1268500Y2269560D01*
X1487500Y2269560D02*
X1511500Y2269560D01*
X1570500Y2269560D02*
X1593500Y2269560D01*
X1097500Y2268560D02*
X1267500Y2268560D01*
X1486500Y2268560D02*
X1511500Y2268560D01*
X1570500Y2268560D02*
X1593500Y2268560D01*
X1092500Y2267560D02*
X1265500Y2267560D01*
X1486500Y2267560D02*
X1511500Y2267560D01*
X1570500Y2267560D02*
X1593500Y2267560D01*
X798500Y2266560D02*
X802500Y2266560D01*
X1088500Y2266560D02*
X1264500Y2266560D01*
X1485500Y2266560D02*
X1510500Y2266560D01*
X1570500Y2266560D02*
X1593500Y2266560D01*
X795500Y2265560D02*
X805500Y2265560D01*
X1083500Y2265560D02*
X1263500Y2265560D01*
X1484500Y2265560D02*
X1510500Y2265560D01*
X1570500Y2265560D02*
X1593500Y2265560D01*
X793500Y2264560D02*
X806500Y2264560D01*
X1079500Y2264560D02*
X1261500Y2264560D01*
X1484500Y2264560D02*
X1510500Y2264560D01*
X1570500Y2264560D02*
X1593500Y2264560D01*
X792500Y2263560D02*
X809500Y2263560D01*
X1074500Y2263560D02*
X1260500Y2263560D01*
X1483500Y2263560D02*
X1509500Y2263560D01*
X1569500Y2263560D02*
X1593500Y2263560D01*
X791500Y2262560D02*
X814500Y2262560D01*
X1070500Y2262560D02*
X1258500Y2262560D01*
X1483500Y2262560D02*
X1509500Y2262560D01*
X1569500Y2262560D02*
X1592500Y2262560D01*
X790500Y2261560D02*
X821500Y2261560D01*
X1066500Y2261560D02*
X1257500Y2261560D01*
X1482500Y2261560D02*
X1508500Y2261560D01*
X1569500Y2261560D02*
X1592500Y2261560D01*
X790500Y2260560D02*
X828500Y2260560D01*
X1061500Y2260560D02*
X1255500Y2260560D01*
X1482500Y2260560D02*
X1508500Y2260560D01*
X1569500Y2260560D02*
X1592500Y2260560D01*
X789500Y2259560D02*
X835500Y2259560D01*
X1057500Y2259560D02*
X1253500Y2259560D01*
X1481500Y2259560D02*
X1507500Y2259560D01*
X1569500Y2259560D02*
X1592500Y2259560D01*
X789500Y2258560D02*
X841500Y2258560D01*
X1053500Y2258560D02*
X1251500Y2258560D01*
X1480500Y2258560D02*
X1507500Y2258560D01*
X1569500Y2258560D02*
X1592500Y2258560D01*
X789500Y2257560D02*
X847500Y2257560D01*
X1048500Y2257560D02*
X1174500Y2257560D01*
X1203500Y2257560D02*
X1249500Y2257560D01*
X1480500Y2257560D02*
X1506500Y2257560D01*
X1569500Y2257560D02*
X1592500Y2257560D01*
X788500Y2256560D02*
X851500Y2256560D01*
X1043500Y2256560D02*
X1164500Y2256560D01*
X1209500Y2256560D02*
X1247500Y2256560D01*
X1479500Y2256560D02*
X1506500Y2256560D01*
X1569500Y2256560D02*
X1592500Y2256560D01*
X788500Y2255560D02*
X856500Y2255560D01*
X1038500Y2255560D02*
X1156500Y2255560D01*
X1213500Y2255560D02*
X1245500Y2255560D01*
X1478500Y2255560D02*
X1505500Y2255560D01*
X1569500Y2255560D02*
X1592500Y2255560D01*
X788500Y2254560D02*
X859500Y2254560D01*
X1033500Y2254560D02*
X1150500Y2254560D01*
X1216500Y2254560D02*
X1243500Y2254560D01*
X1478500Y2254560D02*
X1505500Y2254560D01*
X1569500Y2254560D02*
X1592500Y2254560D01*
X788500Y2253560D02*
X863500Y2253560D01*
X1028500Y2253560D02*
X1144500Y2253560D01*
X1219500Y2253560D02*
X1241500Y2253560D01*
X1477500Y2253560D02*
X1504500Y2253560D01*
X1569500Y2253560D02*
X1592500Y2253560D01*
X789500Y2252560D02*
X866500Y2252560D01*
X1023500Y2252560D02*
X1138500Y2252560D01*
X1221500Y2252560D02*
X1239500Y2252560D01*
X1476500Y2252560D02*
X1504500Y2252560D01*
X1569500Y2252560D02*
X1592500Y2252560D01*
X789500Y2251560D02*
X869500Y2251560D01*
X1017500Y2251560D02*
X1133500Y2251560D01*
X1223500Y2251560D02*
X1236500Y2251560D01*
X1476500Y2251560D02*
X1503500Y2251560D01*
X1569500Y2251560D02*
X1592500Y2251560D01*
X789500Y2250560D02*
X872500Y2250560D01*
X1012500Y2250560D02*
X1128500Y2250560D01*
X1225500Y2250560D02*
X1234500Y2250560D01*
X1475500Y2250560D02*
X1503500Y2250560D01*
X1569500Y2250560D02*
X1592500Y2250560D01*
X790500Y2249560D02*
X874500Y2249560D01*
X1006500Y2249560D02*
X1123500Y2249560D01*
X1228500Y2249560D02*
X1230500Y2249560D01*
X1474500Y2249560D02*
X1502500Y2249560D01*
X1569500Y2249560D02*
X1592500Y2249560D01*
X790500Y2248560D02*
X876500Y2248560D01*
X1000500Y2248560D02*
X1118500Y2248560D01*
X1473500Y2248560D02*
X1501500Y2248560D01*
X1569500Y2248560D02*
X1592500Y2248560D01*
X791500Y2247560D02*
X878500Y2247560D01*
X994500Y2247560D02*
X1113500Y2247560D01*
X1472500Y2247560D02*
X1501500Y2247560D01*
X1569500Y2247560D02*
X1592500Y2247560D01*
X792500Y2246560D02*
X880500Y2246560D01*
X987500Y2246560D02*
X1108500Y2246560D01*
X1472500Y2246560D02*
X1500500Y2246560D01*
X1569500Y2246560D02*
X1592500Y2246560D01*
X793500Y2245560D02*
X882500Y2245560D01*
X981500Y2245560D02*
X1103500Y2245560D01*
X1471500Y2245560D02*
X1500500Y2245560D01*
X1569500Y2245560D02*
X1592500Y2245560D01*
X794500Y2244560D02*
X884500Y2244560D01*
X974500Y2244560D02*
X1098500Y2244560D01*
X1470500Y2244560D02*
X1499500Y2244560D01*
X1569500Y2244560D02*
X1592500Y2244560D01*
X796500Y2243560D02*
X886500Y2243560D01*
X966500Y2243560D02*
X1094500Y2243560D01*
X1469500Y2243560D02*
X1498500Y2243560D01*
X1569500Y2243560D02*
X1592500Y2243560D01*
X798500Y2242560D02*
X888500Y2242560D01*
X958500Y2242560D02*
X1089500Y2242560D01*
X1468500Y2242560D02*
X1497500Y2242560D01*
X1569500Y2242560D02*
X1592500Y2242560D01*
X800500Y2241560D02*
X889500Y2241560D01*
X950500Y2241560D02*
X1085500Y2241560D01*
X1467500Y2241560D02*
X1497500Y2241560D01*
X1569500Y2241560D02*
X1592500Y2241560D01*
X803500Y2240560D02*
X890500Y2240560D01*
X940500Y2240560D02*
X1080500Y2240560D01*
X1466500Y2240560D02*
X1496500Y2240560D01*
X1569500Y2240560D02*
X1592500Y2240560D01*
X807500Y2239560D02*
X892500Y2239560D01*
X931500Y2239560D02*
X1076500Y2239560D01*
X1466500Y2239560D02*
X1495500Y2239560D01*
X1569500Y2239560D02*
X1592500Y2239560D01*
X813500Y2238560D02*
X893500Y2238560D01*
X921500Y2238560D02*
X1072500Y2238560D01*
X1465500Y2238560D02*
X1495500Y2238560D01*
X1569500Y2238560D02*
X1592500Y2238560D01*
X820500Y2237560D02*
X895500Y2237560D01*
X910500Y2237560D02*
X1067500Y2237560D01*
X1464500Y2237560D02*
X1494500Y2237560D01*
X1569500Y2237560D02*
X1592500Y2237560D01*
X827500Y2236560D02*
X896500Y2236560D01*
X899500Y2236560D02*
X1063500Y2236560D01*
X1463500Y2236560D02*
X1493500Y2236560D01*
X1569500Y2236560D02*
X1592500Y2236560D01*
X834500Y2235560D02*
X1059500Y2235560D01*
X1462500Y2235560D02*
X1492500Y2235560D01*
X1569500Y2235560D02*
X1592500Y2235560D01*
X840500Y2234560D02*
X1054500Y2234560D01*
X1461500Y2234560D02*
X1492500Y2234560D01*
X1569500Y2234560D02*
X1592500Y2234560D01*
X846500Y2233560D02*
X1049500Y2233560D01*
X1460500Y2233560D02*
X1491500Y2233560D01*
X1569500Y2233560D02*
X1592500Y2233560D01*
X850500Y2232560D02*
X1044500Y2232560D01*
X1459500Y2232560D02*
X1490500Y2232560D01*
X1569500Y2232560D02*
X1592500Y2232560D01*
X854500Y2231560D02*
X1039500Y2231560D01*
X1458500Y2231560D02*
X1489500Y2231560D01*
X1569500Y2231560D02*
X1592500Y2231560D01*
X858500Y2230560D02*
X1035500Y2230560D01*
X1457500Y2230560D02*
X1488500Y2230560D01*
X1569500Y2230560D02*
X1592500Y2230560D01*
X861500Y2229560D02*
X1030500Y2229560D01*
X1456500Y2229560D02*
X1488500Y2229560D01*
X1569500Y2229560D02*
X1592500Y2229560D01*
X863500Y2228560D02*
X1024500Y2228560D01*
X1455500Y2228560D02*
X1487500Y2228560D01*
X1569500Y2228560D02*
X1592500Y2228560D01*
X866500Y2227560D02*
X1018500Y2227560D01*
X1454500Y2227560D02*
X1486500Y2227560D01*
X1569500Y2227560D02*
X1592500Y2227560D01*
X868500Y2226560D02*
X1013500Y2226560D01*
X1453500Y2226560D02*
X1485500Y2226560D01*
X1569500Y2226560D02*
X1592500Y2226560D01*
X870500Y2225560D02*
X1007500Y2225560D01*
X1452500Y2225560D02*
X1484500Y2225560D01*
X1569500Y2225560D02*
X1592500Y2225560D01*
X872500Y2224560D02*
X1001500Y2224560D01*
X1451500Y2224560D02*
X1483500Y2224560D01*
X1569500Y2224560D02*
X1592500Y2224560D01*
X874500Y2223560D02*
X995500Y2223560D01*
X1450500Y2223560D02*
X1482500Y2223560D01*
X1569500Y2223560D02*
X1592500Y2223560D01*
X875500Y2222560D02*
X988500Y2222560D01*
X1449500Y2222560D02*
X1482500Y2222560D01*
X1569500Y2222560D02*
X1592500Y2222560D01*
X877500Y2221560D02*
X981500Y2221560D01*
X1448500Y2221560D02*
X1481500Y2221560D01*
X1569500Y2221560D02*
X1592500Y2221560D01*
X878500Y2220560D02*
X974500Y2220560D01*
X1447500Y2220560D02*
X1480500Y2220560D01*
X1570500Y2220560D02*
X1593500Y2220560D01*
X880500Y2219560D02*
X966500Y2219560D01*
X1446500Y2219560D02*
X1479500Y2219560D01*
X1570500Y2219560D02*
X1593500Y2219560D01*
X881500Y2218560D02*
X959500Y2218560D01*
X1444500Y2218560D02*
X1478500Y2218560D01*
X1570500Y2218560D02*
X1593500Y2218560D01*
X882500Y2217560D02*
X950500Y2217560D01*
X1443500Y2217560D02*
X1477500Y2217560D01*
X1570500Y2217560D02*
X1593500Y2217560D01*
X883500Y2216560D02*
X941500Y2216560D01*
X1442500Y2216560D02*
X1476500Y2216560D01*
X1570500Y2216560D02*
X1593500Y2216560D01*
X884500Y2215560D02*
X931500Y2215560D01*
X1441500Y2215560D02*
X1475500Y2215560D01*
X1570500Y2215560D02*
X1593500Y2215560D01*
X885500Y2214560D02*
X921500Y2214560D01*
X1440500Y2214560D02*
X1474500Y2214560D01*
X1570500Y2214560D02*
X1593500Y2214560D01*
X887500Y2213560D02*
X910500Y2213560D01*
X1439500Y2213560D02*
X1473500Y2213560D01*
X1570500Y2213560D02*
X1593500Y2213560D01*
X889500Y2212560D02*
X900500Y2212560D01*
X1438500Y2212560D02*
X1472500Y2212560D01*
X1570500Y2212560D02*
X1593500Y2212560D01*
X1437500Y2211560D02*
X1471500Y2211560D01*
X1570500Y2211560D02*
X1593500Y2211560D01*
X1436500Y2210560D02*
X1470500Y2210560D01*
X1570500Y2210560D02*
X1593500Y2210560D01*
X1435500Y2209560D02*
X1469500Y2209560D01*
X1570500Y2209560D02*
X1593500Y2209560D01*
X1433500Y2208560D02*
X1468500Y2208560D01*
X1570500Y2208560D02*
X1593500Y2208560D01*
X1432500Y2207560D02*
X1467500Y2207560D01*
X1570500Y2207560D02*
X1593500Y2207560D01*
X1431500Y2206560D02*
X1466500Y2206560D01*
X1570500Y2206560D02*
X1593500Y2206560D01*
X1430500Y2205560D02*
X1465500Y2205560D01*
X1570500Y2205560D02*
X1594500Y2205560D01*
X1429500Y2204560D02*
X1464500Y2204560D01*
X1571500Y2204560D02*
X1594500Y2204560D01*
X1428500Y2203560D02*
X1463500Y2203560D01*
X1571500Y2203560D02*
X1594500Y2203560D01*
X1427500Y2202560D02*
X1462500Y2202560D01*
X1571500Y2202560D02*
X1594500Y2202560D01*
X1425500Y2201560D02*
X1461500Y2201560D01*
X1571500Y2201560D02*
X1594500Y2201560D01*
X1424500Y2200560D02*
X1459500Y2200560D01*
X1571500Y2200560D02*
X1594500Y2200560D01*
X1423500Y2199560D02*
X1458500Y2199560D01*
X1571500Y2199560D02*
X1594500Y2199560D01*
X1422500Y2198560D02*
X1457500Y2198560D01*
X1571500Y2198560D02*
X1594500Y2198560D01*
X1415500Y2197560D02*
X1456500Y2197560D01*
X1570500Y2197560D02*
X1594500Y2197560D01*
X1409500Y2196560D02*
X1455500Y2196560D01*
X1569500Y2196560D02*
X1594500Y2196560D01*
X1405500Y2195560D02*
X1454500Y2195560D01*
X1568500Y2195560D02*
X1594500Y2195560D01*
X1401500Y2194560D02*
X1453500Y2194560D01*
X1567500Y2194560D02*
X1594500Y2194560D01*
X1397500Y2193560D02*
X1452500Y2193560D01*
X1566500Y2193560D02*
X1594500Y2193560D01*
X1394500Y2192560D02*
X1451500Y2192560D01*
X1566500Y2192560D02*
X1594500Y2192560D01*
X1391500Y2191560D02*
X1449500Y2191560D01*
X1565500Y2191560D02*
X1594500Y2191560D01*
X1388500Y2190560D02*
X1448500Y2190560D01*
X1564500Y2190560D02*
X1594500Y2190560D01*
X1386500Y2189560D02*
X1447500Y2189560D01*
X1563500Y2189560D02*
X1594500Y2189560D01*
X1383500Y2188560D02*
X1446500Y2188560D01*
X1562500Y2188560D02*
X1593500Y2188560D01*
X1381500Y2187560D02*
X1445500Y2187560D01*
X1561500Y2187560D02*
X1593500Y2187560D01*
X1379500Y2186560D02*
X1444500Y2186560D01*
X1560500Y2186560D02*
X1592500Y2186560D01*
X1705500Y2186560D02*
X1711500Y2186560D01*
X1376500Y2185560D02*
X1443500Y2185560D01*
X1559500Y2185560D02*
X1591500Y2185560D01*
X1703500Y2185560D02*
X1713500Y2185560D01*
X1374500Y2184560D02*
X1441500Y2184560D01*
X1558500Y2184560D02*
X1590500Y2184560D01*
X1701500Y2184560D02*
X1715500Y2184560D01*
X1372500Y2183560D02*
X1440500Y2183560D01*
X1557500Y2183560D02*
X1589500Y2183560D01*
X1700500Y2183560D02*
X1716500Y2183560D01*
X1371500Y2182560D02*
X1439500Y2182560D01*
X1556500Y2182560D02*
X1588500Y2182560D01*
X1699500Y2182560D02*
X1717500Y2182560D01*
X1369500Y2181560D02*
X1438500Y2181560D01*
X1555500Y2181560D02*
X1587500Y2181560D01*
X1698500Y2181560D02*
X1718500Y2181560D01*
X1367500Y2180560D02*
X1437500Y2180560D01*
X1554500Y2180560D02*
X1586500Y2180560D01*
X1698500Y2180560D02*
X1718500Y2180560D01*
X1365500Y2179560D02*
X1436500Y2179560D01*
X1553500Y2179560D02*
X1585500Y2179560D01*
X1697500Y2179560D02*
X1719500Y2179560D01*
X1363500Y2178560D02*
X1435500Y2178560D01*
X1552500Y2178560D02*
X1584500Y2178560D01*
X1697500Y2178560D02*
X1719500Y2178560D01*
X1362500Y2177560D02*
X1433500Y2177560D01*
X1551500Y2177560D02*
X1583500Y2177560D01*
X1697500Y2177560D02*
X1719500Y2177560D01*
X1360500Y2176560D02*
X1432500Y2176560D01*
X1550500Y2176560D02*
X1582500Y2176560D01*
X1697500Y2176560D02*
X1719500Y2176560D01*
X1358500Y2175560D02*
X1430500Y2175560D01*
X1549500Y2175560D02*
X1581500Y2175560D01*
X1697500Y2175560D02*
X1720500Y2175560D01*
X1357500Y2174560D02*
X1425500Y2174560D01*
X1548500Y2174560D02*
X1580500Y2174560D01*
X1697500Y2174560D02*
X1720500Y2174560D01*
X1355500Y2173560D02*
X1416500Y2173560D01*
X1547500Y2173560D02*
X1580500Y2173560D01*
X1697500Y2173560D02*
X1720500Y2173560D01*
X1354500Y2172560D02*
X1410500Y2172560D01*
X1545500Y2172560D02*
X1579500Y2172560D01*
X1697500Y2172560D02*
X1720500Y2172560D01*
X1352500Y2171560D02*
X1406500Y2171560D01*
X1544500Y2171560D02*
X1578500Y2171560D01*
X1697500Y2171560D02*
X1720500Y2171560D01*
X1351500Y2170560D02*
X1403500Y2170560D01*
X1543500Y2170560D02*
X1577500Y2170560D01*
X1697500Y2170560D02*
X1720500Y2170560D01*
X1349500Y2169560D02*
X1399500Y2169560D01*
X1542500Y2169560D02*
X1576500Y2169560D01*
X1697500Y2169560D02*
X1720500Y2169560D01*
X1348500Y2168560D02*
X1396500Y2168560D01*
X1541500Y2168560D02*
X1575500Y2168560D01*
X1697500Y2168560D02*
X1720500Y2168560D01*
X1346500Y2167560D02*
X1394500Y2167560D01*
X1540500Y2167560D02*
X1574500Y2167560D01*
X1697500Y2167560D02*
X1720500Y2167560D01*
X1345500Y2166560D02*
X1391500Y2166560D01*
X1539500Y2166560D02*
X1573500Y2166560D01*
X1697500Y2166560D02*
X1720500Y2166560D01*
X1344500Y2165560D02*
X1389500Y2165560D01*
X1538500Y2165560D02*
X1572500Y2165560D01*
X1697500Y2165560D02*
X1720500Y2165560D01*
X1342500Y2164560D02*
X1386500Y2164560D01*
X1537500Y2164560D02*
X1571500Y2164560D01*
X1697500Y2164560D02*
X1720500Y2164560D01*
X1341500Y2163560D02*
X1384500Y2163560D01*
X1536500Y2163560D02*
X1570500Y2163560D01*
X1697500Y2163560D02*
X1720500Y2163560D01*
X1340500Y2162560D02*
X1382500Y2162560D01*
X1535500Y2162560D02*
X1569500Y2162560D01*
X1697500Y2162560D02*
X1720500Y2162560D01*
X1338500Y2161560D02*
X1380500Y2161560D01*
X1534500Y2161560D02*
X1568500Y2161560D01*
X1697500Y2161560D02*
X1720500Y2161560D01*
X1337500Y2160560D02*
X1378500Y2160560D01*
X1533500Y2160560D02*
X1567500Y2160560D01*
X1697500Y2160560D02*
X1720500Y2160560D01*
X1336500Y2159560D02*
X1376500Y2159560D01*
X1532500Y2159560D02*
X1566500Y2159560D01*
X1697500Y2159560D02*
X1720500Y2159560D01*
X1335500Y2158560D02*
X1375500Y2158560D01*
X1531500Y2158560D02*
X1565500Y2158560D01*
X1697500Y2158560D02*
X1720500Y2158560D01*
X1333500Y2157560D02*
X1373500Y2157560D01*
X1530500Y2157560D02*
X1564500Y2157560D01*
X1697500Y2157560D02*
X1720500Y2157560D01*
X1332500Y2156560D02*
X1371500Y2156560D01*
X1528500Y2156560D02*
X1562500Y2156560D01*
X1697500Y2156560D02*
X1720500Y2156560D01*
X1331500Y2155560D02*
X1370500Y2155560D01*
X1527500Y2155560D02*
X1561500Y2155560D01*
X1697500Y2155560D02*
X1720500Y2155560D01*
X1330500Y2154560D02*
X1368500Y2154560D01*
X1526500Y2154560D02*
X1560500Y2154560D01*
X1697500Y2154560D02*
X1720500Y2154560D01*
X1329500Y2153560D02*
X1366500Y2153560D01*
X1525500Y2153560D02*
X1559500Y2153560D01*
X1697500Y2153560D02*
X1719500Y2153560D01*
X1328500Y2152560D02*
X1365500Y2152560D01*
X1524500Y2152560D02*
X1558500Y2152560D01*
X1697500Y2152560D02*
X1719500Y2152560D01*
X1327500Y2151560D02*
X1363500Y2151560D01*
X1523500Y2151560D02*
X1557500Y2151560D01*
X1696500Y2151560D02*
X1719500Y2151560D01*
X1326500Y2150560D02*
X1362500Y2150560D01*
X1522500Y2150560D02*
X1556500Y2150560D01*
X1696500Y2150560D02*
X1719500Y2150560D01*
X1072500Y2149560D02*
X1112500Y2149560D01*
X1325500Y2149560D02*
X1361500Y2149560D01*
X1521500Y2149560D02*
X1555500Y2149560D01*
X1696500Y2149560D02*
X1719500Y2149560D01*
X1059500Y2148560D02*
X1122500Y2148560D01*
X1323500Y2148560D02*
X1359500Y2148560D01*
X1520500Y2148560D02*
X1554500Y2148560D01*
X1696500Y2148560D02*
X1719500Y2148560D01*
X1049500Y2147560D02*
X1128500Y2147560D01*
X1322500Y2147560D02*
X1358500Y2147560D01*
X1518500Y2147560D02*
X1553500Y2147560D01*
X1696500Y2147560D02*
X1719500Y2147560D01*
X1040500Y2146560D02*
X1133500Y2146560D01*
X1321500Y2146560D02*
X1356500Y2146560D01*
X1517500Y2146560D02*
X1552500Y2146560D01*
X1696500Y2146560D02*
X1719500Y2146560D01*
X1032500Y2145560D02*
X1136500Y2145560D01*
X1320500Y2145560D02*
X1355500Y2145560D01*
X1516500Y2145560D02*
X1551500Y2145560D01*
X1695500Y2145560D02*
X1718500Y2145560D01*
X1025500Y2144560D02*
X1139500Y2144560D01*
X1319500Y2144560D02*
X1354500Y2144560D01*
X1515500Y2144560D02*
X1550500Y2144560D01*
X1695500Y2144560D02*
X1718500Y2144560D01*
X1019500Y2143560D02*
X1142500Y2143560D01*
X1318500Y2143560D02*
X1353500Y2143560D01*
X1514500Y2143560D02*
X1549500Y2143560D01*
X1695500Y2143560D02*
X1718500Y2143560D01*
X1013500Y2142560D02*
X1144500Y2142560D01*
X1317500Y2142560D02*
X1351500Y2142560D01*
X1513500Y2142560D02*
X1548500Y2142560D01*
X1695500Y2142560D02*
X1718500Y2142560D01*
X1007500Y2141560D02*
X1146500Y2141560D01*
X1316500Y2141560D02*
X1350500Y2141560D01*
X1511500Y2141560D02*
X1547500Y2141560D01*
X1694500Y2141560D02*
X1718500Y2141560D01*
X1002500Y2140560D02*
X1147500Y2140560D01*
X1315500Y2140560D02*
X1349500Y2140560D01*
X1510500Y2140560D02*
X1545500Y2140560D01*
X1694500Y2140560D02*
X1718500Y2140560D01*
X997500Y2139560D02*
X1149500Y2139560D01*
X1315500Y2139560D02*
X1348500Y2139560D01*
X1509500Y2139560D02*
X1544500Y2139560D01*
X1694500Y2139560D02*
X1717500Y2139560D01*
X992500Y2138560D02*
X1150500Y2138560D01*
X1314500Y2138560D02*
X1347500Y2138560D01*
X1508500Y2138560D02*
X1543500Y2138560D01*
X1693500Y2138560D02*
X1717500Y2138560D01*
X987500Y2137560D02*
X1151500Y2137560D01*
X1313500Y2137560D02*
X1345500Y2137560D01*
X1507500Y2137560D02*
X1542500Y2137560D01*
X1693500Y2137560D02*
X1717500Y2137560D01*
X983500Y2136560D02*
X1152500Y2136560D01*
X1312500Y2136560D02*
X1344500Y2136560D01*
X1506500Y2136560D02*
X1541500Y2136560D01*
X1693500Y2136560D02*
X1717500Y2136560D01*
X978500Y2135560D02*
X1153500Y2135560D01*
X1311500Y2135560D02*
X1343500Y2135560D01*
X1504500Y2135560D02*
X1540500Y2135560D01*
X1693500Y2135560D02*
X1716500Y2135560D01*
X974500Y2134560D02*
X1154500Y2134560D01*
X1310500Y2134560D02*
X1342500Y2134560D01*
X1503500Y2134560D02*
X1539500Y2134560D01*
X1692500Y2134560D02*
X1716500Y2134560D01*
X970500Y2133560D02*
X1155500Y2133560D01*
X1309500Y2133560D02*
X1341500Y2133560D01*
X1502500Y2133560D02*
X1538500Y2133560D01*
X1692500Y2133560D02*
X1716500Y2133560D01*
X966500Y2132560D02*
X1155500Y2132560D01*
X1308500Y2132560D02*
X1340500Y2132560D01*
X1501500Y2132560D02*
X1537500Y2132560D01*
X1691500Y2132560D02*
X1716500Y2132560D01*
X962500Y2131560D02*
X1156500Y2131560D01*
X1308500Y2131560D02*
X1339500Y2131560D01*
X1500500Y2131560D02*
X1535500Y2131560D01*
X1691500Y2131560D02*
X1715500Y2131560D01*
X959500Y2130560D02*
X1156500Y2130560D01*
X1307500Y2130560D02*
X1338500Y2130560D01*
X1498500Y2130560D02*
X1534500Y2130560D01*
X1691500Y2130560D02*
X1715500Y2130560D01*
X955500Y2129560D02*
X1157500Y2129560D01*
X1306500Y2129560D02*
X1337500Y2129560D01*
X1497500Y2129560D02*
X1533500Y2129560D01*
X1690500Y2129560D02*
X1715500Y2129560D01*
X952500Y2128560D02*
X1157500Y2128560D01*
X1303500Y2128560D02*
X1336500Y2128560D01*
X1496500Y2128560D02*
X1532500Y2128560D01*
X1690500Y2128560D02*
X1714500Y2128560D01*
X948500Y2127560D02*
X1157500Y2127560D01*
X1300500Y2127560D02*
X1335500Y2127560D01*
X1495500Y2127560D02*
X1531500Y2127560D01*
X1689500Y2127560D02*
X1714500Y2127560D01*
X945500Y2126560D02*
X1158500Y2126560D01*
X1296500Y2126560D02*
X1334500Y2126560D01*
X1493500Y2126560D02*
X1530500Y2126560D01*
X1689500Y2126560D02*
X1714500Y2126560D01*
X942500Y2125560D02*
X1071500Y2125560D01*
X1113500Y2125560D02*
X1158500Y2125560D01*
X1293500Y2125560D02*
X1333500Y2125560D01*
X1492500Y2125560D02*
X1529500Y2125560D01*
X1688500Y2125560D02*
X1713500Y2125560D01*
X939500Y2124560D02*
X1058500Y2124560D01*
X1121500Y2124560D02*
X1158500Y2124560D01*
X1289500Y2124560D02*
X1332500Y2124560D01*
X1491500Y2124560D02*
X1527500Y2124560D01*
X1688500Y2124560D02*
X1713500Y2124560D01*
X936500Y2123560D02*
X1049500Y2123560D01*
X1127500Y2123560D02*
X1158500Y2123560D01*
X1285500Y2123560D02*
X1331500Y2123560D01*
X1490500Y2123560D02*
X1526500Y2123560D01*
X1687500Y2123560D02*
X1713500Y2123560D01*
X933500Y2122560D02*
X1040500Y2122560D01*
X1131500Y2122560D02*
X1158500Y2122560D01*
X1281500Y2122560D02*
X1330500Y2122560D01*
X1488500Y2122560D02*
X1525500Y2122560D01*
X1687500Y2122560D02*
X1712500Y2122560D01*
X930500Y2121560D02*
X1033500Y2121560D01*
X1133500Y2121560D02*
X1158500Y2121560D01*
X1276500Y2121560D02*
X1329500Y2121560D01*
X1487500Y2121560D02*
X1524500Y2121560D01*
X1687500Y2121560D02*
X1712500Y2121560D01*
X927500Y2120560D02*
X1026500Y2120560D01*
X1133500Y2120560D02*
X1158500Y2120560D01*
X1271500Y2120560D02*
X1329500Y2120560D01*
X1486500Y2120560D02*
X1523500Y2120560D01*
X1686500Y2120560D02*
X1711500Y2120560D01*
X924500Y2119560D02*
X1020500Y2119560D01*
X1132500Y2119560D02*
X1158500Y2119560D01*
X1266500Y2119560D02*
X1328500Y2119560D01*
X1485500Y2119560D02*
X1522500Y2119560D01*
X1685500Y2119560D02*
X1711500Y2119560D01*
X922500Y2118560D02*
X1014500Y2118560D01*
X1131500Y2118560D02*
X1158500Y2118560D01*
X1261500Y2118560D02*
X1327500Y2118560D01*
X1483500Y2118560D02*
X1520500Y2118560D01*
X1685500Y2118560D02*
X1711500Y2118560D01*
X919500Y2117560D02*
X1008500Y2117560D01*
X1130500Y2117560D02*
X1157500Y2117560D01*
X1254500Y2117560D02*
X1326500Y2117560D01*
X1482500Y2117560D02*
X1519500Y2117560D01*
X1684500Y2117560D02*
X1710500Y2117560D01*
X917500Y2116560D02*
X1003500Y2116560D01*
X1129500Y2116560D02*
X1157500Y2116560D01*
X1247500Y2116560D02*
X1325500Y2116560D01*
X1481500Y2116560D02*
X1518500Y2116560D01*
X1684500Y2116560D02*
X1710500Y2116560D01*
X914500Y2115560D02*
X998500Y2115560D01*
X1127500Y2115560D02*
X1157500Y2115560D01*
X1238500Y2115560D02*
X1325500Y2115560D01*
X1479500Y2115560D02*
X1517500Y2115560D01*
X1683500Y2115560D02*
X1709500Y2115560D01*
X912500Y2114560D02*
X993500Y2114560D01*
X1126500Y2114560D02*
X1164500Y2114560D01*
X1228500Y2114560D02*
X1324500Y2114560D01*
X1478500Y2114560D02*
X1516500Y2114560D01*
X1683500Y2114560D02*
X1709500Y2114560D01*
X909500Y2113560D02*
X989500Y2113560D01*
X1125500Y2113560D02*
X1183500Y2113560D01*
X1209500Y2113560D02*
X1323500Y2113560D01*
X1477500Y2113560D02*
X1514500Y2113560D01*
X1682500Y2113560D02*
X1708500Y2113560D01*
X907500Y2112560D02*
X984500Y2112560D01*
X1125500Y2112560D02*
X1322500Y2112560D01*
X1475500Y2112560D02*
X1513500Y2112560D01*
X1681500Y2112560D02*
X1708500Y2112560D01*
X905500Y2111560D02*
X980500Y2111560D01*
X1124500Y2111560D02*
X1321500Y2111560D01*
X1474500Y2111560D02*
X1512500Y2111560D01*
X1681500Y2111560D02*
X1707500Y2111560D01*
X903500Y2110560D02*
X976500Y2110560D01*
X1124500Y2110560D02*
X1320500Y2110560D01*
X1472500Y2110560D02*
X1511500Y2110560D01*
X1680500Y2110560D02*
X1707500Y2110560D01*
X901500Y2109560D02*
X972500Y2109560D01*
X1123500Y2109560D02*
X1319500Y2109560D01*
X1471500Y2109560D02*
X1509500Y2109560D01*
X1679500Y2109560D02*
X1706500Y2109560D01*
X899500Y2108560D02*
X968500Y2108560D01*
X1123500Y2108560D02*
X1318500Y2108560D01*
X1470500Y2108560D02*
X1508500Y2108560D01*
X1679500Y2108560D02*
X1706500Y2108560D01*
X897500Y2107560D02*
X965500Y2107560D01*
X1123500Y2107560D02*
X1316500Y2107560D01*
X1468500Y2107560D02*
X1507500Y2107560D01*
X1678500Y2107560D02*
X1705500Y2107560D01*
X895500Y2106560D02*
X961500Y2106560D01*
X1123500Y2106560D02*
X1312500Y2106560D01*
X1467500Y2106560D02*
X1506500Y2106560D01*
X1677500Y2106560D02*
X1705500Y2106560D01*
X893500Y2105560D02*
X957500Y2105560D01*
X1123500Y2105560D02*
X1309500Y2105560D01*
X1466500Y2105560D02*
X1504500Y2105560D01*
X1677500Y2105560D02*
X1704500Y2105560D01*
X891500Y2104560D02*
X954500Y2104560D01*
X1123500Y2104560D02*
X1306500Y2104560D01*
X1464500Y2104560D02*
X1503500Y2104560D01*
X1676500Y2104560D02*
X1704500Y2104560D01*
X889500Y2103560D02*
X951500Y2103560D01*
X1123500Y2103560D02*
X1302500Y2103560D01*
X1463500Y2103560D02*
X1502500Y2103560D01*
X1675500Y2103560D02*
X1703500Y2103560D01*
X888500Y2102560D02*
X948500Y2102560D01*
X1123500Y2102560D02*
X1299500Y2102560D01*
X1461500Y2102560D02*
X1501500Y2102560D01*
X1674500Y2102560D02*
X1702500Y2102560D01*
X886500Y2101560D02*
X945500Y2101560D01*
X1124500Y2101560D02*
X1295500Y2101560D01*
X1460500Y2101560D02*
X1499500Y2101560D01*
X1674500Y2101560D02*
X1702500Y2101560D01*
X884500Y2100560D02*
X942500Y2100560D01*
X1124500Y2100560D02*
X1291500Y2100560D01*
X1458500Y2100560D02*
X1498500Y2100560D01*
X1673500Y2100560D02*
X1701500Y2100560D01*
X883500Y2099560D02*
X939500Y2099560D01*
X1125500Y2099560D02*
X1286500Y2099560D01*
X1457500Y2099560D02*
X1497500Y2099560D01*
X1672500Y2099560D02*
X1701500Y2099560D01*
X881500Y2098560D02*
X936500Y2098560D01*
X1125500Y2098560D02*
X1282500Y2098560D01*
X1455500Y2098560D02*
X1496500Y2098560D01*
X1671500Y2098560D02*
X1700500Y2098560D01*
X880500Y2097560D02*
X933500Y2097560D01*
X1126500Y2097560D02*
X1277500Y2097560D01*
X1454500Y2097560D02*
X1494500Y2097560D01*
X1670500Y2097560D02*
X1699500Y2097560D01*
X878500Y2096560D02*
X930500Y2096560D01*
X1127500Y2096560D02*
X1272500Y2096560D01*
X1452500Y2096560D02*
X1493500Y2096560D01*
X1670500Y2096560D02*
X1699500Y2096560D01*
X876500Y2095560D02*
X928500Y2095560D01*
X1129500Y2095560D02*
X1267500Y2095560D01*
X1451500Y2095560D02*
X1492500Y2095560D01*
X1669500Y2095560D02*
X1698500Y2095560D01*
X875500Y2094560D02*
X925500Y2094560D01*
X1132500Y2094560D02*
X1261500Y2094560D01*
X1450500Y2094560D02*
X1490500Y2094560D01*
X1668500Y2094560D02*
X1697500Y2094560D01*
X874500Y2093560D02*
X923500Y2093560D01*
X1137500Y2093560D02*
X1254500Y2093560D01*
X1448500Y2093560D02*
X1489500Y2093560D01*
X1667500Y2093560D02*
X1697500Y2093560D01*
X872500Y2092560D02*
X920500Y2092560D01*
X1144500Y2092560D02*
X1247500Y2092560D01*
X1447500Y2092560D02*
X1487500Y2092560D01*
X1666500Y2092560D02*
X1696500Y2092560D01*
X871500Y2091560D02*
X918500Y2091560D01*
X1153500Y2091560D02*
X1238500Y2091560D01*
X1445500Y2091560D02*
X1486500Y2091560D01*
X1665500Y2091560D02*
X1695500Y2091560D01*
X870500Y2090560D02*
X916500Y2090560D01*
X1164500Y2090560D02*
X1227500Y2090560D01*
X1444500Y2090560D02*
X1485500Y2090560D01*
X1664500Y2090560D02*
X1694500Y2090560D01*
X869500Y2089560D02*
X914500Y2089560D01*
X1183500Y2089560D02*
X1207500Y2089560D01*
X1442500Y2089560D02*
X1483500Y2089560D01*
X1663500Y2089560D02*
X1694500Y2089560D01*
X867500Y2088560D02*
X912500Y2088560D01*
X1440500Y2088560D02*
X1482500Y2088560D01*
X1662500Y2088560D02*
X1693500Y2088560D01*
X866500Y2087560D02*
X909500Y2087560D01*
X1439500Y2087560D02*
X1481500Y2087560D01*
X1661500Y2087560D02*
X1692500Y2087560D01*
X865500Y2086560D02*
X907500Y2086560D01*
X1437500Y2086560D02*
X1479500Y2086560D01*
X1661500Y2086560D02*
X1691500Y2086560D01*
X864500Y2085560D02*
X905500Y2085560D01*
X1436500Y2085560D02*
X1478500Y2085560D01*
X1660500Y2085560D02*
X1691500Y2085560D01*
X863500Y2084560D02*
X904500Y2084560D01*
X1434500Y2084560D02*
X1477500Y2084560D01*
X1659500Y2084560D02*
X1690500Y2084560D01*
X862500Y2083560D02*
X902500Y2083560D01*
X1432500Y2083560D02*
X1475500Y2083560D01*
X1658500Y2083560D02*
X1689500Y2083560D01*
X861500Y2082560D02*
X900500Y2082560D01*
X1431500Y2082560D02*
X1474500Y2082560D01*
X1656500Y2082560D02*
X1688500Y2082560D01*
X860500Y2081560D02*
X898500Y2081560D01*
X1429500Y2081560D02*
X1472500Y2081560D01*
X1655500Y2081560D02*
X1687500Y2081560D01*
X859500Y2080560D02*
X896500Y2080560D01*
X1427500Y2080560D02*
X1471500Y2080560D01*
X1654500Y2080560D02*
X1686500Y2080560D01*
X858500Y2079560D02*
X895500Y2079560D01*
X1426500Y2079560D02*
X1469500Y2079560D01*
X1653500Y2079560D02*
X1686500Y2079560D01*
X858500Y2078560D02*
X893500Y2078560D01*
X1424500Y2078560D02*
X1468500Y2078560D01*
X1652500Y2078560D02*
X1685500Y2078560D01*
X857500Y2077560D02*
X892500Y2077560D01*
X1422500Y2077560D02*
X1466500Y2077560D01*
X1651500Y2077560D02*
X1684500Y2077560D01*
X856500Y2076560D02*
X890500Y2076560D01*
X1421500Y2076560D02*
X1465500Y2076560D01*
X1650500Y2076560D02*
X1683500Y2076560D01*
X855500Y2075560D02*
X889500Y2075560D01*
X1419500Y2075560D02*
X1463500Y2075560D01*
X1649500Y2075560D02*
X1682500Y2075560D01*
X855500Y2074560D02*
X887500Y2074560D01*
X1417500Y2074560D02*
X1462500Y2074560D01*
X1648500Y2074560D02*
X1681500Y2074560D01*
X854500Y2073560D02*
X886500Y2073560D01*
X1415500Y2073560D02*
X1460500Y2073560D01*
X1646500Y2073560D02*
X1680500Y2073560D01*
X853500Y2072560D02*
X885500Y2072560D01*
X1414500Y2072560D02*
X1459500Y2072560D01*
X1645500Y2072560D02*
X1679500Y2072560D01*
X853500Y2071560D02*
X884500Y2071560D01*
X1412500Y2071560D02*
X1457500Y2071560D01*
X1644500Y2071560D02*
X1678500Y2071560D01*
X852500Y2070560D02*
X882500Y2070560D01*
X1410500Y2070560D02*
X1456500Y2070560D01*
X1643500Y2070560D02*
X1677500Y2070560D01*
X852500Y2069560D02*
X881500Y2069560D01*
X1408500Y2069560D02*
X1454500Y2069560D01*
X1642500Y2069560D02*
X1676500Y2069560D01*
X851500Y2068560D02*
X880500Y2068560D01*
X1406500Y2068560D02*
X1453500Y2068560D01*
X1640500Y2068560D02*
X1675500Y2068560D01*
X851500Y2067560D02*
X879500Y2067560D01*
X1404500Y2067560D02*
X1451500Y2067560D01*
X1639500Y2067560D02*
X1674500Y2067560D01*
X850500Y2066560D02*
X878500Y2066560D01*
X1402500Y2066560D02*
X1450500Y2066560D01*
X1638500Y2066560D02*
X1673500Y2066560D01*
X850500Y2065560D02*
X877500Y2065560D01*
X1401500Y2065560D02*
X1448500Y2065560D01*
X1637500Y2065560D02*
X1672500Y2065560D01*
X849500Y2064560D02*
X876500Y2064560D01*
X1399500Y2064560D02*
X1446500Y2064560D01*
X1635500Y2064560D02*
X1671500Y2064560D01*
X849500Y2063560D02*
X875500Y2063560D01*
X1397500Y2063560D02*
X1445500Y2063560D01*
X1634500Y2063560D02*
X1670500Y2063560D01*
X849500Y2062560D02*
X874500Y2062560D01*
X1395500Y2062560D02*
X1443500Y2062560D01*
X1633500Y2062560D02*
X1669500Y2062560D01*
X755500Y2061560D02*
X760500Y2061560D01*
X848500Y2061560D02*
X873500Y2061560D01*
X955500Y2061560D02*
X960500Y2061560D01*
X1393500Y2061560D02*
X1441500Y2061560D01*
X1631500Y2061560D02*
X1668500Y2061560D01*
X752500Y2060560D02*
X762500Y2060560D01*
X848500Y2060560D02*
X873500Y2060560D01*
X952500Y2060560D02*
X963500Y2060560D01*
X1391500Y2060560D02*
X1440500Y2060560D01*
X1630500Y2060560D02*
X1667500Y2060560D01*
X751500Y2059560D02*
X764500Y2059560D01*
X848500Y2059560D02*
X872500Y2059560D01*
X951500Y2059560D02*
X965500Y2059560D01*
X1388500Y2059560D02*
X1438500Y2059560D01*
X1629500Y2059560D02*
X1666500Y2059560D01*
X750500Y2058560D02*
X765500Y2058560D01*
X847500Y2058560D02*
X872500Y2058560D01*
X950500Y2058560D02*
X968500Y2058560D01*
X1386500Y2058560D02*
X1436500Y2058560D01*
X1627500Y2058560D02*
X1665500Y2058560D01*
X749500Y2057560D02*
X766500Y2057560D01*
X847500Y2057560D02*
X871500Y2057560D01*
X949500Y2057560D02*
X971500Y2057560D01*
X1384500Y2057560D02*
X1435500Y2057560D01*
X1626500Y2057560D02*
X1664500Y2057560D01*
X748500Y2056560D02*
X767500Y2056560D01*
X847500Y2056560D02*
X871500Y2056560D01*
X948500Y2056560D02*
X973500Y2056560D01*
X1382500Y2056560D02*
X1433500Y2056560D01*
X1624500Y2056560D02*
X1662500Y2056560D01*
X747500Y2055560D02*
X767500Y2055560D01*
X847500Y2055560D02*
X870500Y2055560D01*
X947500Y2055560D02*
X976500Y2055560D01*
X1380500Y2055560D02*
X1431500Y2055560D01*
X1623500Y2055560D02*
X1661500Y2055560D01*
X747500Y2054560D02*
X768500Y2054560D01*
X846500Y2054560D02*
X870500Y2054560D01*
X947500Y2054560D02*
X979500Y2054560D01*
X1378500Y2054560D02*
X1429500Y2054560D01*
X1621500Y2054560D02*
X1660500Y2054560D01*
X746500Y2053560D02*
X768500Y2053560D01*
X846500Y2053560D02*
X870500Y2053560D01*
X946500Y2053560D02*
X982500Y2053560D01*
X1375500Y2053560D02*
X1428500Y2053560D01*
X1620500Y2053560D02*
X1659500Y2053560D01*
X746500Y2052560D02*
X769500Y2052560D01*
X846500Y2052560D02*
X869500Y2052560D01*
X946500Y2052560D02*
X986500Y2052560D01*
X1373500Y2052560D02*
X1426500Y2052560D01*
X1618500Y2052560D02*
X1658500Y2052560D01*
X746500Y2051560D02*
X769500Y2051560D01*
X846500Y2051560D02*
X869500Y2051560D01*
X946500Y2051560D02*
X989500Y2051560D01*
X1371500Y2051560D02*
X1424500Y2051560D01*
X1617500Y2051560D02*
X1657500Y2051560D01*
X745500Y2050560D02*
X769500Y2050560D01*
X846500Y2050560D02*
X869500Y2050560D01*
X946500Y2050560D02*
X993500Y2050560D01*
X1369500Y2050560D02*
X1422500Y2050560D01*
X1616500Y2050560D02*
X1655500Y2050560D01*
X745500Y2049560D02*
X769500Y2049560D01*
X846500Y2049560D02*
X869500Y2049560D01*
X946500Y2049560D02*
X996500Y2049560D01*
X1366500Y2049560D02*
X1420500Y2049560D01*
X1614500Y2049560D02*
X1654500Y2049560D01*
X744500Y2048560D02*
X769500Y2048560D01*
X846500Y2048560D02*
X869500Y2048560D01*
X946500Y2048560D02*
X1000500Y2048560D01*
X1364500Y2048560D02*
X1419500Y2048560D01*
X1613500Y2048560D02*
X1653500Y2048560D01*
X744500Y2047560D02*
X769500Y2047560D01*
X846500Y2047560D02*
X869500Y2047560D01*
X946500Y2047560D02*
X1004500Y2047560D01*
X1361500Y2047560D02*
X1417500Y2047560D01*
X1611500Y2047560D02*
X1652500Y2047560D01*
X744500Y2046560D02*
X768500Y2046560D01*
X846500Y2046560D02*
X868500Y2046560D01*
X946500Y2046560D02*
X1009500Y2046560D01*
X1359500Y2046560D02*
X1415500Y2046560D01*
X1609500Y2046560D02*
X1650500Y2046560D01*
X743500Y2045560D02*
X768500Y2045560D01*
X847500Y2045560D02*
X868500Y2045560D01*
X947500Y2045560D02*
X1014500Y2045560D01*
X1356500Y2045560D02*
X1413500Y2045560D01*
X1608500Y2045560D02*
X1649500Y2045560D01*
X743500Y2044560D02*
X768500Y2044560D01*
X847500Y2044560D02*
X868500Y2044560D01*
X947500Y2044560D02*
X1019500Y2044560D01*
X1354500Y2044560D02*
X1411500Y2044560D01*
X1606500Y2044560D02*
X1648500Y2044560D01*
X742500Y2043560D02*
X767500Y2043560D01*
X848500Y2043560D02*
X867500Y2043560D01*
X948500Y2043560D02*
X1025500Y2043560D01*
X1351500Y2043560D02*
X1409500Y2043560D01*
X1605500Y2043560D02*
X1646500Y2043560D01*
X742500Y2042560D02*
X767500Y2042560D01*
X848500Y2042560D02*
X866500Y2042560D01*
X948500Y2042560D02*
X1031500Y2042560D01*
X1348500Y2042560D02*
X1407500Y2042560D01*
X1603500Y2042560D02*
X1645500Y2042560D01*
X742500Y2041560D02*
X766500Y2041560D01*
X849500Y2041560D02*
X865500Y2041560D01*
X949500Y2041560D02*
X1040500Y2041560D01*
X1123500Y2041560D02*
X1129500Y2041560D01*
X1346500Y2041560D02*
X1405500Y2041560D01*
X1601500Y2041560D02*
X1644500Y2041560D01*
X741500Y2040560D02*
X766500Y2040560D01*
X850500Y2040560D02*
X864500Y2040560D01*
X950500Y2040560D02*
X1050500Y2040560D01*
X1111500Y2040560D02*
X1132500Y2040560D01*
X1343500Y2040560D02*
X1403500Y2040560D01*
X1600500Y2040560D02*
X1642500Y2040560D01*
X741500Y2039560D02*
X766500Y2039560D01*
X852500Y2039560D02*
X863500Y2039560D01*
X952500Y2039560D02*
X1069500Y2039560D01*
X1091500Y2039560D02*
X1134500Y2039560D01*
X1340500Y2039560D02*
X1401500Y2039560D01*
X1598500Y2039560D02*
X1641500Y2039560D01*
X740500Y2038560D02*
X765500Y2038560D01*
X854500Y2038560D02*
X861500Y2038560D01*
X954500Y2038560D02*
X1135500Y2038560D01*
X1337500Y2038560D02*
X1399500Y2038560D01*
X1596500Y2038560D02*
X1640500Y2038560D01*
X740500Y2037560D02*
X765500Y2037560D01*
X957500Y2037560D02*
X1136500Y2037560D01*
X1334500Y2037560D02*
X1397500Y2037560D01*
X1595500Y2037560D02*
X1638500Y2037560D01*
X740500Y2036560D02*
X764500Y2036560D01*
X959500Y2036560D02*
X1137500Y2036560D01*
X1331500Y2036560D02*
X1395500Y2036560D01*
X1593500Y2036560D02*
X1637500Y2036560D01*
X739500Y2035560D02*
X764500Y2035560D01*
X962500Y2035560D02*
X1137500Y2035560D01*
X1327500Y2035560D02*
X1393500Y2035560D01*
X1591500Y2035560D02*
X1635500Y2035560D01*
X739500Y2034560D02*
X764500Y2034560D01*
X965500Y2034560D02*
X1138500Y2034560D01*
X1324500Y2034560D02*
X1390500Y2034560D01*
X1589500Y2034560D02*
X1634500Y2034560D01*
X738500Y2033560D02*
X763500Y2033560D01*
X968500Y2033560D02*
X1139500Y2033560D01*
X1321500Y2033560D02*
X1388500Y2033560D01*
X1587500Y2033560D02*
X1632500Y2033560D01*
X738500Y2032560D02*
X763500Y2032560D01*
X971500Y2032560D02*
X1140500Y2032560D01*
X1317500Y2032560D02*
X1386500Y2032560D01*
X1586500Y2032560D02*
X1631500Y2032560D01*
X737500Y2031560D02*
X762500Y2031560D01*
X974500Y2031560D02*
X1141500Y2031560D01*
X1313500Y2031560D02*
X1384500Y2031560D01*
X1584500Y2031560D02*
X1629500Y2031560D01*
X737500Y2030560D02*
X762500Y2030560D01*
X977500Y2030560D02*
X1141500Y2030560D01*
X1310500Y2030560D02*
X1381500Y2030560D01*
X1582500Y2030560D02*
X1628500Y2030560D01*
X737500Y2029560D02*
X762500Y2029560D01*
X980500Y2029560D02*
X1142500Y2029560D01*
X1306500Y2029560D02*
X1379500Y2029560D01*
X1580500Y2029560D02*
X1626500Y2029560D01*
X736500Y2028560D02*
X761500Y2028560D01*
X983500Y2028560D02*
X1143500Y2028560D01*
X1302500Y2028560D02*
X1377500Y2028560D01*
X1579500Y2028560D02*
X1625500Y2028560D01*
X736500Y2027560D02*
X761500Y2027560D01*
X987500Y2027560D02*
X1144500Y2027560D01*
X1297500Y2027560D02*
X1374500Y2027560D01*
X1577500Y2027560D02*
X1623500Y2027560D01*
X735500Y2026560D02*
X760500Y2026560D01*
X991500Y2026560D02*
X1145500Y2026560D01*
X1293500Y2026560D02*
X1372500Y2026560D01*
X1575500Y2026560D02*
X1622500Y2026560D01*
X735500Y2025560D02*
X760500Y2025560D01*
X995500Y2025560D02*
X1146500Y2025560D01*
X1288500Y2025560D02*
X1369500Y2025560D01*
X1573500Y2025560D02*
X1620500Y2025560D01*
X735500Y2024560D02*
X760500Y2024560D01*
X999500Y2024560D02*
X1147500Y2024560D01*
X1283500Y2024560D02*
X1367500Y2024560D01*
X1571500Y2024560D02*
X1618500Y2024560D01*
X734500Y2023560D02*
X759500Y2023560D01*
X1003500Y2023560D02*
X1149500Y2023560D01*
X1277500Y2023560D02*
X1365500Y2023560D01*
X1569500Y2023560D02*
X1617500Y2023560D01*
X734500Y2022560D02*
X759500Y2022560D01*
X1008500Y2022560D02*
X1150500Y2022560D01*
X1271500Y2022560D02*
X1362500Y2022560D01*
X1567500Y2022560D02*
X1615500Y2022560D01*
X733500Y2021560D02*
X758500Y2021560D01*
X1013500Y2021560D02*
X1151500Y2021560D01*
X1264500Y2021560D02*
X1359500Y2021560D01*
X1565500Y2021560D02*
X1613500Y2021560D01*
X733500Y2020560D02*
X758500Y2020560D01*
X1019500Y2020560D02*
X1153500Y2020560D01*
X1257500Y2020560D02*
X1357500Y2020560D01*
X1563500Y2020560D02*
X1612500Y2020560D01*
X733500Y2019560D02*
X758500Y2019560D01*
X1025500Y2019560D02*
X1154500Y2019560D01*
X1251500Y2019560D02*
X1354500Y2019560D01*
X1561500Y2019560D02*
X1610500Y2019560D01*
X732500Y2018560D02*
X757500Y2018560D01*
X1032500Y2018560D02*
X1155500Y2018560D01*
X1248500Y2018560D02*
X1351500Y2018560D01*
X1559500Y2018560D02*
X1609500Y2018560D01*
X732500Y2017560D02*
X757500Y2017560D01*
X1041500Y2017560D02*
X1157500Y2017560D01*
X1245500Y2017560D02*
X1348500Y2017560D01*
X1557500Y2017560D02*
X1607500Y2017560D01*
X731500Y2016560D02*
X756500Y2016560D01*
X1052500Y2016560D02*
X1111500Y2016560D01*
X1123500Y2016560D02*
X1159500Y2016560D01*
X1242500Y2016560D02*
X1345500Y2016560D01*
X1555500Y2016560D02*
X1605500Y2016560D01*
X731500Y2015560D02*
X756500Y2015560D01*
X1073500Y2015560D02*
X1086500Y2015560D01*
X1124500Y2015560D02*
X1161500Y2015560D01*
X1238500Y2015560D02*
X1342500Y2015560D01*
X1553500Y2015560D02*
X1603500Y2015560D01*
X730500Y2014560D02*
X755500Y2014560D01*
X1125500Y2014560D02*
X1163500Y2014560D01*
X1235500Y2014560D02*
X1339500Y2014560D01*
X1551500Y2014560D02*
X1602500Y2014560D01*
X730500Y2013560D02*
X755500Y2013560D01*
X1126500Y2013560D02*
X1165500Y2013560D01*
X1231500Y2013560D02*
X1336500Y2013560D01*
X1549500Y2013560D02*
X1600500Y2013560D01*
X730500Y2012560D02*
X755500Y2012560D01*
X1127500Y2012560D02*
X1167500Y2012560D01*
X1227500Y2012560D02*
X1333500Y2012560D01*
X1546500Y2012560D02*
X1598500Y2012560D01*
X729500Y2011560D02*
X754500Y2011560D01*
X1128500Y2011560D02*
X1170500Y2011560D01*
X1223500Y2011560D02*
X1329500Y2011560D01*
X1544500Y2011560D02*
X1596500Y2011560D01*
X729500Y2010560D02*
X754500Y2010560D01*
X1128500Y2010560D02*
X1173500Y2010560D01*
X1218500Y2010560D02*
X1326500Y2010560D01*
X1542500Y2010560D02*
X1594500Y2010560D01*
X728500Y2009560D02*
X753500Y2009560D01*
X1129500Y2009560D02*
X1178500Y2009560D01*
X1213500Y2009560D02*
X1323500Y2009560D01*
X1540500Y2009560D02*
X1593500Y2009560D01*
X728500Y2008560D02*
X753500Y2008560D01*
X1131500Y2008560D02*
X1185500Y2008560D01*
X1205500Y2008560D02*
X1319500Y2008560D01*
X1538500Y2008560D02*
X1591500Y2008560D01*
X727500Y2007560D02*
X753500Y2007560D01*
X1132500Y2007560D02*
X1315500Y2007560D01*
X1536500Y2007560D02*
X1589500Y2007560D01*
X727500Y2006560D02*
X752500Y2006560D01*
X1133500Y2006560D02*
X1312500Y2006560D01*
X1533500Y2006560D02*
X1587500Y2006560D01*
X727500Y2005560D02*
X752500Y2005560D01*
X1134500Y2005560D02*
X1307500Y2005560D01*
X1531500Y2005560D02*
X1585500Y2005560D01*
X726500Y2004560D02*
X751500Y2004560D01*
X1135500Y2004560D02*
X1303500Y2004560D01*
X1529500Y2004560D02*
X1583500Y2004560D01*
X726500Y2003560D02*
X751500Y2003560D01*
X1136500Y2003560D02*
X1299500Y2003560D01*
X1527500Y2003560D02*
X1581500Y2003560D01*
X725500Y2002560D02*
X750500Y2002560D01*
X1138500Y2002560D02*
X1294500Y2002560D01*
X1524500Y2002560D02*
X1579500Y2002560D01*
X725500Y2001560D02*
X750500Y2001560D01*
X1139500Y2001560D02*
X1289500Y2001560D01*
X1522500Y2001560D02*
X1577500Y2001560D01*
X724500Y2000560D02*
X750500Y2000560D01*
X1140500Y2000560D02*
X1284500Y2000560D01*
X1520500Y2000560D02*
X1576500Y2000560D01*
X724500Y1999560D02*
X749500Y1999560D01*
X1142500Y1999560D02*
X1278500Y1999560D01*
X1518500Y1999560D02*
X1574500Y1999560D01*
X724500Y1998560D02*
X749500Y1998560D01*
X1143500Y1998560D02*
X1272500Y1998560D01*
X1515500Y1998560D02*
X1572500Y1998560D01*
X723500Y1997560D02*
X748500Y1997560D01*
X1145500Y1997560D02*
X1265500Y1997560D01*
X1513500Y1997560D02*
X1570500Y1997560D01*
X723500Y1996560D02*
X748500Y1996560D01*
X1146500Y1996560D02*
X1257500Y1996560D01*
X1510500Y1996560D02*
X1568500Y1996560D01*
X722500Y1995560D02*
X747500Y1995560D01*
X1148500Y1995560D02*
X1254500Y1995560D01*
X1508500Y1995560D02*
X1565500Y1995560D01*
X722500Y1994560D02*
X747500Y1994560D01*
X1150500Y1994560D02*
X1251500Y1994560D01*
X1506500Y1994560D02*
X1563500Y1994560D01*
X721500Y1993560D02*
X746500Y1993560D01*
X1152500Y1993560D02*
X1247500Y1993560D01*
X1503500Y1993560D02*
X1561500Y1993560D01*
X721500Y1992560D02*
X746500Y1992560D01*
X1154500Y1992560D02*
X1244500Y1992560D01*
X1501500Y1992560D02*
X1559500Y1992560D01*
X720500Y1991560D02*
X746500Y1991560D01*
X1156500Y1991560D02*
X1241500Y1991560D01*
X1497500Y1991560D02*
X1557500Y1991560D01*
X720500Y1990560D02*
X745500Y1990560D01*
X1159500Y1990560D02*
X1237500Y1990560D01*
X1494500Y1990560D02*
X1555500Y1990560D01*
X720500Y1989560D02*
X745500Y1989560D01*
X1161500Y1989560D02*
X1233500Y1989560D01*
X1490500Y1989560D02*
X1553500Y1989560D01*
X719500Y1988560D02*
X744500Y1988560D01*
X1164500Y1988560D02*
X1229500Y1988560D01*
X1486500Y1988560D02*
X1551500Y1988560D01*
X719500Y1987560D02*
X744500Y1987560D01*
X1168500Y1987560D02*
X1224500Y1987560D01*
X1483500Y1987560D02*
X1549500Y1987560D01*
X718500Y1986560D02*
X743500Y1986560D01*
X1172500Y1986560D02*
X1219500Y1986560D01*
X1479500Y1986560D02*
X1546500Y1986560D01*
X718500Y1985560D02*
X743500Y1985560D01*
X1177500Y1985560D02*
X1213500Y1985560D01*
X1476500Y1985560D02*
X1544500Y1985560D01*
X1689500Y1985560D02*
X1692500Y1985560D01*
X717500Y1984560D02*
X743500Y1984560D01*
X1184500Y1984560D02*
X1204500Y1984560D01*
X1473500Y1984560D02*
X1542500Y1984560D01*
X1686500Y1984560D02*
X1695500Y1984560D01*
X717500Y1983560D02*
X742500Y1983560D01*
X1469500Y1983560D02*
X1540500Y1983560D01*
X1684500Y1983560D02*
X1697500Y1983560D01*
X716500Y1982560D02*
X742500Y1982560D01*
X1466500Y1982560D02*
X1538500Y1982560D01*
X1683500Y1982560D02*
X1698500Y1982560D01*
X716500Y1981560D02*
X741500Y1981560D01*
X1463500Y1981560D02*
X1535500Y1981560D01*
X1681500Y1981560D02*
X1699500Y1981560D01*
X715500Y1980560D02*
X741500Y1980560D01*
X1460500Y1980560D02*
X1533500Y1980560D01*
X1680500Y1980560D02*
X1700500Y1980560D01*
X715500Y1979560D02*
X740500Y1979560D01*
X1457500Y1979560D02*
X1531500Y1979560D01*
X1678500Y1979560D02*
X1701500Y1979560D01*
X715500Y1978560D02*
X740500Y1978560D01*
X1454500Y1978560D02*
X1529500Y1978560D01*
X1676500Y1978560D02*
X1701500Y1978560D01*
X714500Y1977560D02*
X740500Y1977560D01*
X1451500Y1977560D02*
X1526500Y1977560D01*
X1675500Y1977560D02*
X1702500Y1977560D01*
X714500Y1976560D02*
X739500Y1976560D01*
X1449500Y1976560D02*
X1524500Y1976560D01*
X1673500Y1976560D02*
X1702500Y1976560D01*
X713500Y1975560D02*
X739500Y1975560D01*
X1446500Y1975560D02*
X1521500Y1975560D01*
X1672500Y1975560D02*
X1702500Y1975560D01*
X713500Y1974560D02*
X738500Y1974560D01*
X1443500Y1974560D02*
X1519500Y1974560D01*
X1670500Y1974560D02*
X1702500Y1974560D01*
X712500Y1973560D02*
X738500Y1973560D01*
X1441500Y1973560D02*
X1517500Y1973560D01*
X1668500Y1973560D02*
X1702500Y1973560D01*
X712500Y1972560D02*
X737500Y1972560D01*
X1438500Y1972560D02*
X1514500Y1972560D01*
X1667500Y1972560D02*
X1702500Y1972560D01*
X711500Y1971560D02*
X737500Y1971560D01*
X1436500Y1971560D02*
X1512500Y1971560D01*
X1665500Y1971560D02*
X1702500Y1971560D01*
X711500Y1970560D02*
X736500Y1970560D01*
X1434500Y1970560D02*
X1510500Y1970560D01*
X1664500Y1970560D02*
X1702500Y1970560D01*
X710500Y1969560D02*
X736500Y1969560D01*
X1431500Y1969560D02*
X1507500Y1969560D01*
X1662500Y1969560D02*
X1701500Y1969560D01*
X710500Y1968560D02*
X735500Y1968560D01*
X1429500Y1968560D02*
X1503500Y1968560D01*
X1661500Y1968560D02*
X1701500Y1968560D01*
X709500Y1967560D02*
X735500Y1967560D01*
X1427500Y1967560D02*
X1500500Y1967560D01*
X1659500Y1967560D02*
X1701500Y1967560D01*
X709500Y1966560D02*
X734500Y1966560D01*
X996500Y1966560D02*
X1009500Y1966560D01*
X1425500Y1966560D02*
X1496500Y1966560D01*
X1657500Y1966560D02*
X1700500Y1966560D01*
X708500Y1965560D02*
X734500Y1965560D01*
X991500Y1965560D02*
X1026500Y1965560D01*
X1423500Y1965560D02*
X1492500Y1965560D01*
X1656500Y1965560D02*
X1699500Y1965560D01*
X708500Y1964560D02*
X733500Y1964560D01*
X987500Y1964560D02*
X1036500Y1964560D01*
X1421500Y1964560D02*
X1488500Y1964560D01*
X1654500Y1964560D02*
X1698500Y1964560D01*
X708500Y1963560D02*
X733500Y1963560D01*
X982500Y1963560D02*
X1044500Y1963560D01*
X1419500Y1963560D02*
X1485500Y1963560D01*
X1653500Y1963560D02*
X1697500Y1963560D01*
X707500Y1962560D02*
X733500Y1962560D01*
X977500Y1962560D02*
X1050500Y1962560D01*
X1417500Y1962560D02*
X1482500Y1962560D01*
X1651500Y1962560D02*
X1695500Y1962560D01*
X707500Y1961560D02*
X732500Y1961560D01*
X973500Y1961560D02*
X1055500Y1961560D01*
X1415500Y1961560D02*
X1478500Y1961560D01*
X1649500Y1961560D02*
X1693500Y1961560D01*
X706500Y1960560D02*
X732500Y1960560D01*
X969500Y1960560D02*
X1060500Y1960560D01*
X1413500Y1960560D02*
X1475500Y1960560D01*
X1648500Y1960560D02*
X1692500Y1960560D01*
X706500Y1959560D02*
X731500Y1959560D01*
X964500Y1959560D02*
X1064500Y1959560D01*
X1412500Y1959560D02*
X1472500Y1959560D01*
X1646500Y1959560D02*
X1690500Y1959560D01*
X705500Y1958560D02*
X731500Y1958560D01*
X960500Y1958560D02*
X1067500Y1958560D01*
X1410500Y1958560D02*
X1469500Y1958560D01*
X1645500Y1958560D02*
X1689500Y1958560D01*
X705500Y1957560D02*
X730500Y1957560D01*
X955500Y1957560D02*
X1070500Y1957560D01*
X1409500Y1957560D02*
X1466500Y1957560D01*
X1643500Y1957560D02*
X1687500Y1957560D01*
X704500Y1956560D02*
X730500Y1956560D01*
X951500Y1956560D02*
X1073500Y1956560D01*
X1407500Y1956560D02*
X1463500Y1956560D01*
X1641500Y1956560D02*
X1686500Y1956560D01*
X704500Y1955560D02*
X729500Y1955560D01*
X947500Y1955560D02*
X1076500Y1955560D01*
X1406500Y1955560D02*
X1460500Y1955560D01*
X1640500Y1955560D02*
X1684500Y1955560D01*
X703500Y1954560D02*
X729500Y1954560D01*
X943500Y1954560D02*
X1079500Y1954560D01*
X1404500Y1954560D02*
X1457500Y1954560D01*
X1638500Y1954560D02*
X1682500Y1954560D01*
X703500Y1953560D02*
X728500Y1953560D01*
X939500Y1953560D02*
X1081500Y1953560D01*
X1403500Y1953560D02*
X1455500Y1953560D01*
X1636500Y1953560D02*
X1681500Y1953560D01*
X702500Y1952560D02*
X728500Y1952560D01*
X935500Y1952560D02*
X1084500Y1952560D01*
X1402500Y1952560D02*
X1452500Y1952560D01*
X1635500Y1952560D02*
X1679500Y1952560D01*
X702500Y1951560D02*
X727500Y1951560D01*
X931500Y1951560D02*
X1086500Y1951560D01*
X1400500Y1951560D02*
X1449500Y1951560D01*
X1633500Y1951560D02*
X1678500Y1951560D01*
X701500Y1950560D02*
X727500Y1950560D01*
X927500Y1950560D02*
X1088500Y1950560D01*
X1399500Y1950560D02*
X1447500Y1950560D01*
X1632500Y1950560D02*
X1676500Y1950560D01*
X701500Y1949560D02*
X726500Y1949560D01*
X923500Y1949560D02*
X1090500Y1949560D01*
X1398500Y1949560D02*
X1444500Y1949560D01*
X1630500Y1949560D02*
X1674500Y1949560D01*
X700500Y1948560D02*
X726500Y1948560D01*
X919500Y1948560D02*
X1092500Y1948560D01*
X1397500Y1948560D02*
X1442500Y1948560D01*
X1628500Y1948560D02*
X1673500Y1948560D01*
X700500Y1947560D02*
X725500Y1947560D01*
X915500Y1947560D02*
X1093500Y1947560D01*
X1395500Y1947560D02*
X1440500Y1947560D01*
X1627500Y1947560D02*
X1671500Y1947560D01*
X699500Y1946560D02*
X725500Y1946560D01*
X911500Y1946560D02*
X1095500Y1946560D01*
X1394500Y1946560D02*
X1438500Y1946560D01*
X1625500Y1946560D02*
X1670500Y1946560D01*
X699500Y1945560D02*
X724500Y1945560D01*
X908500Y1945560D02*
X1097500Y1945560D01*
X1393500Y1945560D02*
X1436500Y1945560D01*
X1623500Y1945560D02*
X1668500Y1945560D01*
X698500Y1944560D02*
X724500Y1944560D01*
X904500Y1944560D02*
X1098500Y1944560D01*
X1392500Y1944560D02*
X1433500Y1944560D01*
X1622500Y1944560D02*
X1667500Y1944560D01*
X698500Y1943560D02*
X723500Y1943560D01*
X900500Y1943560D02*
X1100500Y1943560D01*
X1391500Y1943560D02*
X1431500Y1943560D01*
X1620500Y1943560D02*
X1665500Y1943560D01*
X697500Y1942560D02*
X723500Y1942560D01*
X897500Y1942560D02*
X998500Y1942560D01*
X1010500Y1942560D02*
X1102500Y1942560D01*
X1390500Y1942560D02*
X1429500Y1942560D01*
X1619500Y1942560D02*
X1663500Y1942560D01*
X697500Y1941560D02*
X723500Y1941560D01*
X893500Y1941560D02*
X993500Y1941560D01*
X1026500Y1941560D02*
X1103500Y1941560D01*
X1390500Y1941560D02*
X1428500Y1941560D01*
X1617500Y1941560D02*
X1662500Y1941560D01*
X696500Y1940560D02*
X722500Y1940560D01*
X889500Y1940560D02*
X988500Y1940560D01*
X1036500Y1940560D02*
X1104500Y1940560D01*
X1389500Y1940560D02*
X1426500Y1940560D01*
X1615500Y1940560D02*
X1660500Y1940560D01*
X696500Y1939560D02*
X722500Y1939560D01*
X886500Y1939560D02*
X984500Y1939560D01*
X1043500Y1939560D02*
X1106500Y1939560D01*
X1388500Y1939560D02*
X1424500Y1939560D01*
X1614500Y1939560D02*
X1659500Y1939560D01*
X695500Y1938560D02*
X721500Y1938560D01*
X882500Y1938560D02*
X979500Y1938560D01*
X1049500Y1938560D02*
X1107500Y1938560D01*
X1387500Y1938560D02*
X1422500Y1938560D01*
X1612500Y1938560D02*
X1657500Y1938560D01*
X695500Y1937560D02*
X721500Y1937560D01*
X879500Y1937560D02*
X975500Y1937560D01*
X1054500Y1937560D02*
X1108500Y1937560D01*
X1386500Y1937560D02*
X1421500Y1937560D01*
X1610500Y1937560D02*
X1655500Y1937560D01*
X694500Y1936560D02*
X720500Y1936560D01*
X875500Y1936560D02*
X970500Y1936560D01*
X1058500Y1936560D02*
X1110500Y1936560D01*
X1385500Y1936560D02*
X1419500Y1936560D01*
X1609500Y1936560D02*
X1654500Y1936560D01*
X694500Y1935560D02*
X720500Y1935560D01*
X872500Y1935560D02*
X966500Y1935560D01*
X1061500Y1935560D02*
X1111500Y1935560D01*
X1385500Y1935560D02*
X1418500Y1935560D01*
X1607500Y1935560D02*
X1652500Y1935560D01*
X693500Y1934560D02*
X719500Y1934560D01*
X869500Y1934560D02*
X962500Y1934560D01*
X1064500Y1934560D02*
X1112500Y1934560D01*
X1384500Y1934560D02*
X1416500Y1934560D01*
X1605500Y1934560D02*
X1650500Y1934560D01*
X693500Y1933560D02*
X719500Y1933560D01*
X865500Y1933560D02*
X957500Y1933560D01*
X1068500Y1933560D02*
X1113500Y1933560D01*
X1383500Y1933560D02*
X1415500Y1933560D01*
X1604500Y1933560D02*
X1649500Y1933560D01*
X692500Y1932560D02*
X718500Y1932560D01*
X862500Y1932560D02*
X953500Y1932560D01*
X1070500Y1932560D02*
X1115500Y1932560D01*
X1383500Y1932560D02*
X1414500Y1932560D01*
X1602500Y1932560D02*
X1647500Y1932560D01*
X692500Y1931560D02*
X718500Y1931560D01*
X859500Y1931560D02*
X949500Y1931560D01*
X1073500Y1931560D02*
X1116500Y1931560D01*
X1382500Y1931560D02*
X1413500Y1931560D01*
X1600500Y1931560D02*
X1646500Y1931560D01*
X691500Y1930560D02*
X717500Y1930560D01*
X855500Y1930560D02*
X945500Y1930560D01*
X1075500Y1930560D02*
X1117500Y1930560D01*
X1381500Y1930560D02*
X1411500Y1930560D01*
X1599500Y1930560D02*
X1644500Y1930560D01*
X691500Y1929560D02*
X717500Y1929560D01*
X852500Y1929560D02*
X941500Y1929560D01*
X1077500Y1929560D02*
X1118500Y1929560D01*
X1381500Y1929560D02*
X1410500Y1929560D01*
X1597500Y1929560D02*
X1642500Y1929560D01*
X690500Y1928560D02*
X716500Y1928560D01*
X849500Y1928560D02*
X937500Y1928560D01*
X1079500Y1928560D02*
X1119500Y1928560D01*
X1380500Y1928560D02*
X1409500Y1928560D01*
X1595500Y1928560D02*
X1641500Y1928560D01*
X690500Y1927560D02*
X716500Y1927560D01*
X846500Y1927560D02*
X933500Y1927560D01*
X1081500Y1927560D02*
X1120500Y1927560D01*
X1380500Y1927560D02*
X1408500Y1927560D01*
X1594500Y1927560D02*
X1639500Y1927560D01*
X689500Y1926560D02*
X715500Y1926560D01*
X843500Y1926560D02*
X929500Y1926560D01*
X1083500Y1926560D02*
X1121500Y1926560D01*
X1379500Y1926560D02*
X1407500Y1926560D01*
X1592500Y1926560D02*
X1637500Y1926560D01*
X688500Y1925560D02*
X715500Y1925560D01*
X840500Y1925560D02*
X925500Y1925560D01*
X1085500Y1925560D02*
X1122500Y1925560D01*
X1379500Y1925560D02*
X1406500Y1925560D01*
X1590500Y1925560D02*
X1636500Y1925560D01*
X688500Y1924560D02*
X714500Y1924560D01*
X836500Y1924560D02*
X921500Y1924560D01*
X1086500Y1924560D02*
X1123500Y1924560D01*
X1378500Y1924560D02*
X1406500Y1924560D01*
X1589500Y1924560D02*
X1634500Y1924560D01*
X687500Y1923560D02*
X714500Y1923560D01*
X833500Y1923560D02*
X917500Y1923560D01*
X1088500Y1923560D02*
X1124500Y1923560D01*
X1377500Y1923560D02*
X1405500Y1923560D01*
X1587500Y1923560D02*
X1633500Y1923560D01*
X687500Y1922560D02*
X713500Y1922560D01*
X830500Y1922560D02*
X913500Y1922560D01*
X1090500Y1922560D02*
X1125500Y1922560D01*
X1377500Y1922560D02*
X1404500Y1922560D01*
X1585500Y1922560D02*
X1631500Y1922560D01*
X686500Y1921560D02*
X712500Y1921560D01*
X827500Y1921560D02*
X910500Y1921560D01*
X1091500Y1921560D02*
X1126500Y1921560D01*
X1376500Y1921560D02*
X1403500Y1921560D01*
X1584500Y1921560D02*
X1629500Y1921560D01*
X686500Y1920560D02*
X712500Y1920560D01*
X824500Y1920560D02*
X906500Y1920560D01*
X1093500Y1920560D02*
X1127500Y1920560D01*
X1376500Y1920560D02*
X1403500Y1920560D01*
X1582500Y1920560D02*
X1628500Y1920560D01*
X685500Y1919560D02*
X711500Y1919560D01*
X821500Y1919560D02*
X902500Y1919560D01*
X1094500Y1919560D02*
X1128500Y1919560D01*
X1375500Y1919560D02*
X1402500Y1919560D01*
X1580500Y1919560D02*
X1626500Y1919560D01*
X685500Y1918560D02*
X711500Y1918560D01*
X819500Y1918560D02*
X899500Y1918560D01*
X1095500Y1918560D02*
X1129500Y1918560D01*
X1374500Y1918560D02*
X1401500Y1918560D01*
X1579500Y1918560D02*
X1624500Y1918560D01*
X684500Y1917560D02*
X710500Y1917560D01*
X816500Y1917560D02*
X895500Y1917560D01*
X1097500Y1917560D02*
X1130500Y1917560D01*
X1374500Y1917560D02*
X1401500Y1917560D01*
X1577500Y1917560D02*
X1623500Y1917560D01*
X684500Y1916560D02*
X710500Y1916560D01*
X813500Y1916560D02*
X892500Y1916560D01*
X1098500Y1916560D02*
X1131500Y1916560D01*
X1373500Y1916560D02*
X1400500Y1916560D01*
X1575500Y1916560D02*
X1621500Y1916560D01*
X683500Y1915560D02*
X709500Y1915560D01*
X810500Y1915560D02*
X888500Y1915560D01*
X1099500Y1915560D02*
X1132500Y1915560D01*
X1372500Y1915560D02*
X1399500Y1915560D01*
X1574500Y1915560D02*
X1619500Y1915560D01*
X683500Y1914560D02*
X709500Y1914560D01*
X807500Y1914560D02*
X885500Y1914560D01*
X1100500Y1914560D02*
X1133500Y1914560D01*
X1371500Y1914560D02*
X1399500Y1914560D01*
X1572500Y1914560D02*
X1618500Y1914560D01*
X682500Y1913560D02*
X708500Y1913560D01*
X804500Y1913560D02*
X881500Y1913560D01*
X1101500Y1913560D02*
X1133500Y1913560D01*
X1370500Y1913560D02*
X1398500Y1913560D01*
X1570500Y1913560D02*
X1616500Y1913560D01*
X682500Y1912560D02*
X708500Y1912560D01*
X802500Y1912560D02*
X878500Y1912560D01*
X1102500Y1912560D02*
X1134500Y1912560D01*
X1369500Y1912560D02*
X1398500Y1912560D01*
X1569500Y1912560D02*
X1614500Y1912560D01*
X681500Y1911560D02*
X707500Y1911560D01*
X799500Y1911560D02*
X874500Y1911560D01*
X1104500Y1911560D02*
X1135500Y1911560D01*
X1368500Y1911560D02*
X1397500Y1911560D01*
X1567500Y1911560D02*
X1613500Y1911560D01*
X680500Y1910560D02*
X707500Y1910560D01*
X796500Y1910560D02*
X871500Y1910560D01*
X1105500Y1910560D02*
X1136500Y1910560D01*
X1366500Y1910560D02*
X1397500Y1910560D01*
X1565500Y1910560D02*
X1611500Y1910560D01*
X680500Y1909560D02*
X706500Y1909560D01*
X794500Y1909560D02*
X868500Y1909560D01*
X1106500Y1909560D02*
X1137500Y1909560D01*
X1364500Y1909560D02*
X1396500Y1909560D01*
X1563500Y1909560D02*
X1609500Y1909560D01*
X679500Y1908560D02*
X706500Y1908560D01*
X791500Y1908560D02*
X864500Y1908560D01*
X1107500Y1908560D02*
X1138500Y1908560D01*
X1361500Y1908560D02*
X1395500Y1908560D01*
X1562500Y1908560D02*
X1608500Y1908560D01*
X679500Y1907560D02*
X705500Y1907560D01*
X788500Y1907560D02*
X861500Y1907560D01*
X1108500Y1907560D02*
X1138500Y1907560D01*
X1359500Y1907560D02*
X1395500Y1907560D01*
X1560500Y1907560D02*
X1606500Y1907560D01*
X678500Y1906560D02*
X705500Y1906560D01*
X785500Y1906560D02*
X858500Y1906560D01*
X1109500Y1906560D02*
X1139500Y1906560D01*
X1355500Y1906560D02*
X1394500Y1906560D01*
X1558500Y1906560D02*
X1604500Y1906560D01*
X678500Y1905560D02*
X704500Y1905560D01*
X783500Y1905560D02*
X855500Y1905560D01*
X1110500Y1905560D02*
X1140500Y1905560D01*
X1352500Y1905560D02*
X1394500Y1905560D01*
X1557500Y1905560D02*
X1603500Y1905560D01*
X677500Y1904560D02*
X703500Y1904560D01*
X780500Y1904560D02*
X852500Y1904560D01*
X1111500Y1904560D02*
X1141500Y1904560D01*
X1348500Y1904560D02*
X1393500Y1904560D01*
X1555500Y1904560D02*
X1601500Y1904560D01*
X676500Y1903560D02*
X703500Y1903560D01*
X777500Y1903560D02*
X849500Y1903560D01*
X1112500Y1903560D02*
X1141500Y1903560D01*
X1342500Y1903560D02*
X1392500Y1903560D01*
X1553500Y1903560D02*
X1599500Y1903560D01*
X676500Y1902560D02*
X702500Y1902560D01*
X775500Y1902560D02*
X845500Y1902560D01*
X1112500Y1902560D02*
X1144500Y1902560D01*
X1336500Y1902560D02*
X1391500Y1902560D01*
X1552500Y1902560D02*
X1598500Y1902560D01*
X675500Y1901560D02*
X702500Y1901560D01*
X772500Y1901560D02*
X842500Y1901560D01*
X1113500Y1901560D02*
X1150500Y1901560D01*
X1328500Y1901560D02*
X1391500Y1901560D01*
X1550500Y1901560D02*
X1596500Y1901560D01*
X675500Y1900560D02*
X701500Y1900560D01*
X770500Y1900560D02*
X839500Y1900560D01*
X1114500Y1900560D02*
X1156500Y1900560D01*
X1319500Y1900560D02*
X1390500Y1900560D01*
X1548500Y1900560D02*
X1594500Y1900560D01*
X674500Y1899560D02*
X701500Y1899560D01*
X767500Y1899560D02*
X836500Y1899560D01*
X1115500Y1899560D02*
X1162500Y1899560D01*
X1306500Y1899560D02*
X1389500Y1899560D01*
X1546500Y1899560D02*
X1593500Y1899560D01*
X674500Y1898560D02*
X700500Y1898560D01*
X765500Y1898560D02*
X833500Y1898560D01*
X1116500Y1898560D02*
X1167500Y1898560D01*
X1288500Y1898560D02*
X1388500Y1898560D01*
X1545500Y1898560D02*
X1591500Y1898560D01*
X673500Y1897560D02*
X700500Y1897560D01*
X762500Y1897560D02*
X831500Y1897560D01*
X1117500Y1897560D02*
X1173500Y1897560D01*
X1271500Y1897560D02*
X1387500Y1897560D01*
X1543500Y1897560D02*
X1589500Y1897560D01*
X673500Y1896560D02*
X699500Y1896560D01*
X760500Y1896560D02*
X828500Y1896560D01*
X1118500Y1896560D02*
X1178500Y1896560D01*
X1268500Y1896560D02*
X1386500Y1896560D01*
X1541500Y1896560D02*
X1588500Y1896560D01*
X672500Y1895560D02*
X699500Y1895560D01*
X758500Y1895560D02*
X825500Y1895560D01*
X1118500Y1895560D02*
X1184500Y1895560D01*
X1266500Y1895560D02*
X1385500Y1895560D01*
X1540500Y1895560D02*
X1586500Y1895560D01*
X671500Y1894560D02*
X698500Y1894560D01*
X755500Y1894560D02*
X822500Y1894560D01*
X1119500Y1894560D02*
X1189500Y1894560D01*
X1263500Y1894560D02*
X1384500Y1894560D01*
X1538500Y1894560D02*
X1584500Y1894560D01*
X671500Y1893560D02*
X697500Y1893560D01*
X753500Y1893560D02*
X819500Y1893560D01*
X1120500Y1893560D02*
X1195500Y1893560D01*
X1260500Y1893560D02*
X1383500Y1893560D01*
X1536500Y1893560D02*
X1583500Y1893560D01*
X670500Y1892560D02*
X697500Y1892560D01*
X750500Y1892560D02*
X816500Y1892560D01*
X1121500Y1892560D02*
X1202500Y1892560D01*
X1256500Y1892560D02*
X1381500Y1892560D01*
X1534500Y1892560D02*
X1581500Y1892560D01*
X670500Y1891560D02*
X696500Y1891560D01*
X748500Y1891560D02*
X813500Y1891560D01*
X1121500Y1891560D02*
X1209500Y1891560D01*
X1251500Y1891560D02*
X1380500Y1891560D01*
X1533500Y1891560D02*
X1579500Y1891560D01*
X669500Y1890560D02*
X696500Y1890560D01*
X746500Y1890560D02*
X810500Y1890560D01*
X1122500Y1890560D02*
X1219500Y1890560D01*
X1244500Y1890560D02*
X1378500Y1890560D01*
X1531500Y1890560D02*
X1578500Y1890560D01*
X668500Y1889560D02*
X695500Y1889560D01*
X743500Y1889560D02*
X807500Y1889560D01*
X1123500Y1889560D02*
X1376500Y1889560D01*
X1529500Y1889560D02*
X1576500Y1889560D01*
X668500Y1888560D02*
X695500Y1888560D01*
X741500Y1888560D02*
X805500Y1888560D01*
X1124500Y1888560D02*
X1374500Y1888560D01*
X1528500Y1888560D02*
X1574500Y1888560D01*
X667500Y1887560D02*
X694500Y1887560D01*
X739500Y1887560D02*
X802500Y1887560D01*
X1124500Y1887560D02*
X1372500Y1887560D01*
X1526500Y1887560D02*
X1572500Y1887560D01*
X667500Y1886560D02*
X693500Y1886560D01*
X736500Y1886560D02*
X799500Y1886560D01*
X1125500Y1886560D02*
X1370500Y1886560D01*
X1524500Y1886560D02*
X1571500Y1886560D01*
X666500Y1885560D02*
X693500Y1885560D01*
X734500Y1885560D02*
X797500Y1885560D01*
X1126500Y1885560D02*
X1367500Y1885560D01*
X1522500Y1885560D02*
X1569500Y1885560D01*
X665500Y1884560D02*
X692500Y1884560D01*
X732500Y1884560D02*
X794500Y1884560D01*
X1127500Y1884560D02*
X1365500Y1884560D01*
X1521500Y1884560D02*
X1567500Y1884560D01*
X665500Y1883560D02*
X692500Y1883560D01*
X730500Y1883560D02*
X791500Y1883560D01*
X1127500Y1883560D02*
X1361500Y1883560D01*
X1519500Y1883560D02*
X1566500Y1883560D01*
X664500Y1882560D02*
X691500Y1882560D01*
X727500Y1882560D02*
X789500Y1882560D01*
X1129500Y1882560D02*
X1358500Y1882560D01*
X1517500Y1882560D02*
X1564500Y1882560D01*
X664500Y1881560D02*
X691500Y1881560D01*
X725500Y1881560D02*
X786500Y1881560D01*
X1130500Y1881560D02*
X1353500Y1881560D01*
X1515500Y1881560D02*
X1562500Y1881560D01*
X663500Y1880560D02*
X690500Y1880560D01*
X723500Y1880560D02*
X783500Y1880560D01*
X1132500Y1880560D02*
X1349500Y1880560D01*
X1514500Y1880560D02*
X1561500Y1880560D01*
X662500Y1879560D02*
X689500Y1879560D01*
X721500Y1879560D02*
X781500Y1879560D01*
X1137500Y1879560D02*
X1343500Y1879560D01*
X1512500Y1879560D02*
X1559500Y1879560D01*
X662500Y1878560D02*
X689500Y1878560D01*
X719500Y1878560D02*
X778500Y1878560D01*
X1143500Y1878560D02*
X1336500Y1878560D01*
X1510500Y1878560D02*
X1557500Y1878560D01*
X661500Y1877560D02*
X688500Y1877560D01*
X717500Y1877560D02*
X776500Y1877560D01*
X1149500Y1877560D02*
X1329500Y1877560D01*
X1509500Y1877560D02*
X1555500Y1877560D01*
X661500Y1876560D02*
X688500Y1876560D01*
X715500Y1876560D02*
X774500Y1876560D01*
X1155500Y1876560D02*
X1319500Y1876560D01*
X1507500Y1876560D02*
X1554500Y1876560D01*
X660500Y1875560D02*
X687500Y1875560D01*
X713500Y1875560D02*
X771500Y1875560D01*
X1160500Y1875560D02*
X1306500Y1875560D01*
X1505500Y1875560D02*
X1552500Y1875560D01*
X659500Y1874560D02*
X686500Y1874560D01*
X711500Y1874560D02*
X769500Y1874560D01*
X1165500Y1874560D02*
X1287500Y1874560D01*
X1503500Y1874560D02*
X1550500Y1874560D01*
X659500Y1873560D02*
X686500Y1873560D01*
X708500Y1873560D02*
X766500Y1873560D01*
X1171500Y1873560D02*
X1274500Y1873560D01*
X1502500Y1873560D02*
X1549500Y1873560D01*
X658500Y1872560D02*
X685500Y1872560D01*
X706500Y1872560D02*
X764500Y1872560D01*
X1176500Y1872560D02*
X1272500Y1872560D01*
X1500500Y1872560D02*
X1547500Y1872560D01*
X657500Y1871560D02*
X685500Y1871560D01*
X704500Y1871560D02*
X761500Y1871560D01*
X1182500Y1871560D02*
X1269500Y1871560D01*
X1498500Y1871560D02*
X1545500Y1871560D01*
X657500Y1870560D02*
X684500Y1870560D01*
X702500Y1870560D02*
X759500Y1870560D01*
X1188500Y1870560D02*
X1265500Y1870560D01*
X1497500Y1870560D02*
X1543500Y1870560D01*
X656500Y1869560D02*
X683500Y1869560D01*
X700500Y1869560D02*
X756500Y1869560D01*
X1194500Y1869560D02*
X1262500Y1869560D01*
X1495500Y1869560D02*
X1542500Y1869560D01*
X655500Y1868560D02*
X683500Y1868560D01*
X698500Y1868560D02*
X754500Y1868560D01*
X1200500Y1868560D02*
X1257500Y1868560D01*
X1493500Y1868560D02*
X1540500Y1868560D01*
X655500Y1867560D02*
X682500Y1867560D01*
X696500Y1867560D02*
X752500Y1867560D01*
X1208500Y1867560D02*
X1252500Y1867560D01*
X1491500Y1867560D02*
X1538500Y1867560D01*
X654500Y1866560D02*
X682500Y1866560D01*
X695500Y1866560D02*
X750500Y1866560D01*
X1218500Y1866560D02*
X1245500Y1866560D01*
X1490500Y1866560D02*
X1536500Y1866560D01*
X654500Y1865560D02*
X681500Y1865560D01*
X693500Y1865560D02*
X747500Y1865560D01*
X995500Y1865560D02*
X1003500Y1865560D01*
X1488500Y1865560D02*
X1535500Y1865560D01*
X653500Y1864560D02*
X680500Y1864560D01*
X691500Y1864560D02*
X745500Y1864560D01*
X992500Y1864560D02*
X1005500Y1864560D01*
X1486500Y1864560D02*
X1533500Y1864560D01*
X652500Y1863560D02*
X680500Y1863560D01*
X689500Y1863560D02*
X743500Y1863560D01*
X989500Y1863560D02*
X1007500Y1863560D01*
X1484500Y1863560D02*
X1531500Y1863560D01*
X652500Y1862560D02*
X679500Y1862560D01*
X687500Y1862560D02*
X741500Y1862560D01*
X986500Y1862560D02*
X1008500Y1862560D01*
X1483500Y1862560D02*
X1530500Y1862560D01*
X651500Y1861560D02*
X679500Y1861560D01*
X685500Y1861560D02*
X738500Y1861560D01*
X983500Y1861560D02*
X1009500Y1861560D01*
X1481500Y1861560D02*
X1528500Y1861560D01*
X650500Y1860560D02*
X678500Y1860560D01*
X683500Y1860560D02*
X736500Y1860560D01*
X981500Y1860560D02*
X1011500Y1860560D01*
X1479500Y1860560D02*
X1526500Y1860560D01*
X650500Y1859560D02*
X677500Y1859560D01*
X681500Y1859560D02*
X734500Y1859560D01*
X978500Y1859560D02*
X1012500Y1859560D01*
X1478500Y1859560D02*
X1524500Y1859560D01*
X649500Y1858560D02*
X677500Y1858560D01*
X679500Y1858560D02*
X732500Y1858560D01*
X975500Y1858560D02*
X1014500Y1858560D01*
X1476500Y1858560D02*
X1523500Y1858560D01*
X648500Y1857560D02*
X676500Y1857560D01*
X678500Y1857560D02*
X730500Y1857560D01*
X972500Y1857560D02*
X1015500Y1857560D01*
X1474500Y1857560D02*
X1521500Y1857560D01*
X648500Y1856560D02*
X728500Y1856560D01*
X969500Y1856560D02*
X1016500Y1856560D01*
X1472500Y1856560D02*
X1519500Y1856560D01*
X647500Y1855560D02*
X725500Y1855560D01*
X966500Y1855560D02*
X1018500Y1855560D01*
X1471500Y1855560D02*
X1518500Y1855560D01*
X646500Y1854560D02*
X723500Y1854560D01*
X964500Y1854560D02*
X1019500Y1854560D01*
X1469500Y1854560D02*
X1516500Y1854560D01*
X646500Y1853560D02*
X721500Y1853560D01*
X961500Y1853560D02*
X1020500Y1853560D01*
X1467500Y1853560D02*
X1514500Y1853560D01*
X645500Y1852560D02*
X719500Y1852560D01*
X958500Y1852560D02*
X1022500Y1852560D01*
X1465500Y1852560D02*
X1512500Y1852560D01*
X644500Y1851560D02*
X717500Y1851560D01*
X955500Y1851560D02*
X1023500Y1851560D01*
X1464500Y1851560D02*
X1511500Y1851560D01*
X644500Y1850560D02*
X715500Y1850560D01*
X952500Y1850560D02*
X1024500Y1850560D01*
X1462500Y1850560D02*
X1509500Y1850560D01*
X643500Y1849560D02*
X713500Y1849560D01*
X949500Y1849560D02*
X1026500Y1849560D01*
X1460500Y1849560D02*
X1507500Y1849560D01*
X642500Y1848560D02*
X711500Y1848560D01*
X946500Y1848560D02*
X1027500Y1848560D01*
X1458500Y1848560D02*
X1505500Y1848560D01*
X641500Y1847560D02*
X709500Y1847560D01*
X944500Y1847560D02*
X1029500Y1847560D01*
X1457500Y1847560D02*
X1504500Y1847560D01*
X641500Y1846560D02*
X707500Y1846560D01*
X941500Y1846560D02*
X1030500Y1846560D01*
X1455500Y1846560D02*
X1502500Y1846560D01*
X640500Y1845560D02*
X705500Y1845560D01*
X938500Y1845560D02*
X1031500Y1845560D01*
X1453500Y1845560D02*
X1500500Y1845560D01*
X639500Y1844560D02*
X703500Y1844560D01*
X935500Y1844560D02*
X1033500Y1844560D01*
X1452500Y1844560D02*
X1499500Y1844560D01*
X639500Y1843560D02*
X701500Y1843560D01*
X932500Y1843560D02*
X1034500Y1843560D01*
X1450500Y1843560D02*
X1497500Y1843560D01*
X638500Y1842560D02*
X699500Y1842560D01*
X929500Y1842560D02*
X1035500Y1842560D01*
X1448500Y1842560D02*
X1495500Y1842560D01*
X637500Y1841560D02*
X697500Y1841560D01*
X926500Y1841560D02*
X1037500Y1841560D01*
X1446500Y1841560D02*
X1493500Y1841560D01*
X636500Y1840560D02*
X696500Y1840560D01*
X923500Y1840560D02*
X995500Y1840560D01*
X998500Y1840560D02*
X1038500Y1840560D01*
X1445500Y1840560D02*
X1492500Y1840560D01*
X636500Y1839560D02*
X694500Y1839560D01*
X920500Y1839560D02*
X992500Y1839560D01*
X1000500Y1839560D02*
X1039500Y1839560D01*
X1443500Y1839560D02*
X1490500Y1839560D01*
X635500Y1838560D02*
X692500Y1838560D01*
X917500Y1838560D02*
X989500Y1838560D01*
X1001500Y1838560D02*
X1041500Y1838560D01*
X1441500Y1838560D02*
X1488500Y1838560D01*
X634500Y1837560D02*
X690500Y1837560D01*
X914500Y1837560D02*
X986500Y1837560D01*
X1003500Y1837560D02*
X1042500Y1837560D01*
X1439500Y1837560D02*
X1486500Y1837560D01*
X633500Y1836560D02*
X688500Y1836560D01*
X911500Y1836560D02*
X984500Y1836560D01*
X1004500Y1836560D02*
X1044500Y1836560D01*
X1438500Y1836560D02*
X1485500Y1836560D01*
X633500Y1835560D02*
X686500Y1835560D01*
X908500Y1835560D02*
X981500Y1835560D01*
X1005500Y1835560D02*
X1045500Y1835560D01*
X1436500Y1835560D02*
X1483500Y1835560D01*
X632500Y1834560D02*
X685500Y1834560D01*
X905500Y1834560D02*
X978500Y1834560D01*
X1007500Y1834560D02*
X1046500Y1834560D01*
X1434500Y1834560D02*
X1481500Y1834560D01*
X631500Y1833560D02*
X683500Y1833560D01*
X902500Y1833560D02*
X975500Y1833560D01*
X1008500Y1833560D02*
X1048500Y1833560D01*
X1432500Y1833560D02*
X1479500Y1833560D01*
X630500Y1832560D02*
X681500Y1832560D01*
X899500Y1832560D02*
X972500Y1832560D01*
X1009500Y1832560D02*
X1049500Y1832560D01*
X1431500Y1832560D02*
X1478500Y1832560D01*
X630500Y1831560D02*
X679500Y1831560D01*
X896500Y1831560D02*
X969500Y1831560D01*
X1011500Y1831560D02*
X1051500Y1831560D01*
X1429500Y1831560D02*
X1476500Y1831560D01*
X629500Y1830560D02*
X678500Y1830560D01*
X893500Y1830560D02*
X967500Y1830560D01*
X1012500Y1830560D02*
X1052500Y1830560D01*
X1427500Y1830560D02*
X1474500Y1830560D01*
X628500Y1829560D02*
X676500Y1829560D01*
X890500Y1829560D02*
X964500Y1829560D01*
X1014500Y1829560D02*
X1053500Y1829560D01*
X1426500Y1829560D02*
X1473500Y1829560D01*
X627500Y1828560D02*
X674500Y1828560D01*
X886500Y1828560D02*
X961500Y1828560D01*
X1015500Y1828560D02*
X1055500Y1828560D01*
X1424500Y1828560D02*
X1471500Y1828560D01*
X627500Y1827560D02*
X673500Y1827560D01*
X883500Y1827560D02*
X958500Y1827560D01*
X1016500Y1827560D02*
X1056500Y1827560D01*
X1422500Y1827560D02*
X1469500Y1827560D01*
X626500Y1826560D02*
X671500Y1826560D01*
X880500Y1826560D02*
X955500Y1826560D01*
X1018500Y1826560D02*
X1058500Y1826560D01*
X1420500Y1826560D02*
X1467500Y1826560D01*
X625500Y1825560D02*
X669500Y1825560D01*
X877500Y1825560D02*
X952500Y1825560D01*
X1019500Y1825560D02*
X1059500Y1825560D01*
X1419500Y1825560D02*
X1466500Y1825560D01*
X624500Y1824560D02*
X668500Y1824560D01*
X874500Y1824560D02*
X949500Y1824560D01*
X1020500Y1824560D02*
X1061500Y1824560D01*
X1417500Y1824560D02*
X1464500Y1824560D01*
X623500Y1823560D02*
X666500Y1823560D01*
X871500Y1823560D02*
X946500Y1823560D01*
X1022500Y1823560D02*
X1062500Y1823560D01*
X1415500Y1823560D02*
X1462500Y1823560D01*
X623500Y1822560D02*
X665500Y1822560D01*
X868500Y1822560D02*
X943500Y1822560D01*
X1023500Y1822560D02*
X1063500Y1822560D01*
X1414500Y1822560D02*
X1460500Y1822560D01*
X622500Y1821560D02*
X663500Y1821560D01*
X865500Y1821560D02*
X941500Y1821560D01*
X1024500Y1821560D02*
X1065500Y1821560D01*
X1412500Y1821560D02*
X1459500Y1821560D01*
X622500Y1820560D02*
X661500Y1820560D01*
X861500Y1820560D02*
X938500Y1820560D01*
X1026500Y1820560D02*
X1066500Y1820560D01*
X1410500Y1820560D02*
X1457500Y1820560D01*
X621500Y1819560D02*
X660500Y1819560D01*
X858500Y1819560D02*
X935500Y1819560D01*
X1027500Y1819560D02*
X1068500Y1819560D01*
X1408500Y1819560D02*
X1455500Y1819560D01*
X621500Y1818560D02*
X658500Y1818560D01*
X855500Y1818560D02*
X932500Y1818560D01*
X1029500Y1818560D02*
X1069500Y1818560D01*
X1407500Y1818560D02*
X1453500Y1818560D01*
X620500Y1817560D02*
X657500Y1817560D01*
X852500Y1817560D02*
X929500Y1817560D01*
X1030500Y1817560D02*
X1070500Y1817560D01*
X1405500Y1817560D02*
X1452500Y1817560D01*
X620500Y1816560D02*
X655500Y1816560D01*
X849500Y1816560D02*
X926500Y1816560D01*
X1031500Y1816560D02*
X1072500Y1816560D01*
X1403500Y1816560D02*
X1450500Y1816560D01*
X620500Y1815560D02*
X654500Y1815560D01*
X845500Y1815560D02*
X923500Y1815560D01*
X1033500Y1815560D02*
X1073500Y1815560D01*
X1402500Y1815560D02*
X1448500Y1815560D01*
X620500Y1814560D02*
X652500Y1814560D01*
X842500Y1814560D02*
X920500Y1814560D01*
X1034500Y1814560D02*
X1075500Y1814560D01*
X1400500Y1814560D02*
X1446500Y1814560D01*
X620500Y1813560D02*
X651500Y1813560D01*
X839500Y1813560D02*
X917500Y1813560D01*
X1036500Y1813560D02*
X1076500Y1813560D01*
X1398500Y1813560D02*
X1445500Y1813560D01*
X621500Y1812560D02*
X649500Y1812560D01*
X835500Y1812560D02*
X914500Y1812560D01*
X1037500Y1812560D02*
X1077500Y1812560D01*
X1397500Y1812560D02*
X1443500Y1812560D01*
X621500Y1811560D02*
X648500Y1811560D01*
X832500Y1811560D02*
X911500Y1811560D01*
X1038500Y1811560D02*
X1079500Y1811560D01*
X1395500Y1811560D02*
X1441500Y1811560D01*
X621500Y1810560D02*
X646500Y1810560D01*
X829500Y1810560D02*
X908500Y1810560D01*
X1040500Y1810560D02*
X1080500Y1810560D01*
X1393500Y1810560D02*
X1440500Y1810560D01*
X622500Y1809560D02*
X645500Y1809560D01*
X825500Y1809560D02*
X905500Y1809560D01*
X1041500Y1809560D02*
X1082500Y1809560D01*
X1391500Y1809560D02*
X1438500Y1809560D01*
X622500Y1808560D02*
X644500Y1808560D01*
X822500Y1808560D02*
X902500Y1808560D01*
X1043500Y1808560D02*
X1083500Y1808560D01*
X1390500Y1808560D02*
X1436500Y1808560D01*
X623500Y1807560D02*
X642500Y1807560D01*
X819500Y1807560D02*
X899500Y1807560D01*
X1044500Y1807560D02*
X1085500Y1807560D01*
X1388500Y1807560D02*
X1434500Y1807560D01*
X624500Y1806560D02*
X641500Y1806560D01*
X816500Y1806560D02*
X895500Y1806560D01*
X1045500Y1806560D02*
X1086500Y1806560D01*
X1386500Y1806560D02*
X1433500Y1806560D01*
X625500Y1805560D02*
X639500Y1805560D01*
X812500Y1805560D02*
X892500Y1805560D01*
X1047500Y1805560D02*
X1088500Y1805560D01*
X1385500Y1805560D02*
X1431500Y1805560D01*
X627500Y1804560D02*
X638500Y1804560D01*
X809500Y1804560D02*
X889500Y1804560D01*
X1048500Y1804560D02*
X1089500Y1804560D01*
X1383500Y1804560D02*
X1429500Y1804560D01*
X629500Y1803560D02*
X635500Y1803560D01*
X805500Y1803560D02*
X886500Y1803560D01*
X1050500Y1803560D02*
X1091500Y1803560D01*
X1381500Y1803560D02*
X1428500Y1803560D01*
X802500Y1802560D02*
X883500Y1802560D01*
X1051500Y1802560D02*
X1092500Y1802560D01*
X1379500Y1802560D02*
X1426500Y1802560D01*
X798500Y1801560D02*
X880500Y1801560D01*
X1053500Y1801560D02*
X1094500Y1801560D01*
X1378500Y1801560D02*
X1424500Y1801560D01*
X795500Y1800560D02*
X877500Y1800560D01*
X1054500Y1800560D02*
X1095500Y1800560D01*
X1376500Y1800560D02*
X1423500Y1800560D01*
X791500Y1799560D02*
X873500Y1799560D01*
X1055500Y1799560D02*
X1097500Y1799560D01*
X1374500Y1799560D02*
X1421500Y1799560D01*
X788500Y1798560D02*
X870500Y1798560D01*
X1057500Y1798560D02*
X1098500Y1798560D01*
X1373500Y1798560D02*
X1419500Y1798560D01*
X784500Y1797560D02*
X867500Y1797560D01*
X1058500Y1797560D02*
X1100500Y1797560D01*
X1371500Y1797560D02*
X1417500Y1797560D01*
X781500Y1796560D02*
X864500Y1796560D01*
X1060500Y1796560D02*
X1101500Y1796560D01*
X1369500Y1796560D02*
X1416500Y1796560D01*
X777500Y1795560D02*
X861500Y1795560D01*
X1061500Y1795560D02*
X1102500Y1795560D01*
X1368500Y1795560D02*
X1414500Y1795560D01*
X774500Y1794560D02*
X858500Y1794560D01*
X1062500Y1794560D02*
X1104500Y1794560D01*
X1366500Y1794560D02*
X1412500Y1794560D01*
X770500Y1793560D02*
X854500Y1793560D01*
X1064500Y1793560D02*
X1105500Y1793560D01*
X1364500Y1793560D02*
X1411500Y1793560D01*
X767500Y1792560D02*
X851500Y1792560D01*
X1065500Y1792560D02*
X1107500Y1792560D01*
X1363500Y1792560D02*
X1409500Y1792560D01*
X763500Y1791560D02*
X848500Y1791560D01*
X1067500Y1791560D02*
X1108500Y1791560D01*
X1361500Y1791560D02*
X1407500Y1791560D01*
X759500Y1790560D02*
X845500Y1790560D01*
X1068500Y1790560D02*
X1110500Y1790560D01*
X1360500Y1790560D02*
X1405500Y1790560D01*
X755500Y1789560D02*
X841500Y1789560D01*
X1070500Y1789560D02*
X1111500Y1789560D01*
X1358500Y1789560D02*
X1404500Y1789560D01*
X751500Y1788560D02*
X838500Y1788560D01*
X1071500Y1788560D02*
X1113500Y1788560D01*
X1356500Y1788560D02*
X1402500Y1788560D01*
X748500Y1787560D02*
X835500Y1787560D01*
X1073500Y1787560D02*
X1115500Y1787560D01*
X1355500Y1787560D02*
X1400500Y1787560D01*
X744500Y1786560D02*
X831500Y1786560D01*
X1074500Y1786560D02*
X1116500Y1786560D01*
X1353500Y1786560D02*
X1399500Y1786560D01*
X740500Y1785560D02*
X828500Y1785560D01*
X1076500Y1785560D02*
X1118500Y1785560D01*
X1351500Y1785560D02*
X1397500Y1785560D01*
X736500Y1784560D02*
X825500Y1784560D01*
X1077500Y1784560D02*
X1119500Y1784560D01*
X1350500Y1784560D02*
X1395500Y1784560D01*
X732500Y1783560D02*
X821500Y1783560D01*
X1078500Y1783560D02*
X1121500Y1783560D01*
X1348500Y1783560D02*
X1393500Y1783560D01*
X729500Y1782560D02*
X818500Y1782560D01*
X1080500Y1782560D02*
X1122500Y1782560D01*
X1347500Y1782560D02*
X1392500Y1782560D01*
X725500Y1781560D02*
X815500Y1781560D01*
X1081500Y1781560D02*
X1124500Y1781560D01*
X1345500Y1781560D02*
X1390500Y1781560D01*
X721500Y1780560D02*
X811500Y1780560D01*
X1083500Y1780560D02*
X1125500Y1780560D01*
X1343500Y1780560D02*
X1388500Y1780560D01*
X716500Y1779560D02*
X808500Y1779560D01*
X1084500Y1779560D02*
X1127500Y1779560D01*
X1342500Y1779560D02*
X1387500Y1779560D01*
X712500Y1778560D02*
X804500Y1778560D01*
X1086500Y1778560D02*
X1128500Y1778560D01*
X1340500Y1778560D02*
X1385500Y1778560D01*
X708500Y1777560D02*
X801500Y1777560D01*
X1087500Y1777560D02*
X1130500Y1777560D01*
X1339500Y1777560D02*
X1383500Y1777560D01*
X704500Y1776560D02*
X797500Y1776560D01*
X1089500Y1776560D02*
X1132500Y1776560D01*
X1337500Y1776560D02*
X1382500Y1776560D01*
X700500Y1775560D02*
X794500Y1775560D01*
X1090500Y1775560D02*
X1133500Y1775560D01*
X1335500Y1775560D02*
X1380500Y1775560D01*
X696500Y1774560D02*
X790500Y1774560D01*
X1092500Y1774560D02*
X1135500Y1774560D01*
X1334500Y1774560D02*
X1378500Y1774560D01*
X692500Y1773560D02*
X787500Y1773560D01*
X1093500Y1773560D02*
X1136500Y1773560D01*
X1332500Y1773560D02*
X1377500Y1773560D01*
X416500Y1772560D02*
X441500Y1772560D01*
X687500Y1772560D02*
X783500Y1772560D01*
X1095500Y1772560D02*
X1138500Y1772560D01*
X1331500Y1772560D02*
X1375500Y1772560D01*
X411500Y1771560D02*
X448500Y1771560D01*
X683500Y1771560D02*
X779500Y1771560D01*
X1096500Y1771560D02*
X1140500Y1771560D01*
X1329500Y1771560D02*
X1373500Y1771560D01*
X407500Y1770560D02*
X456500Y1770560D01*
X678500Y1770560D02*
X776500Y1770560D01*
X1098500Y1770560D02*
X1141500Y1770560D01*
X1328500Y1770560D02*
X1372500Y1770560D01*
X404500Y1769560D02*
X464500Y1769560D01*
X674500Y1769560D02*
X772500Y1769560D01*
X1099500Y1769560D02*
X1143500Y1769560D01*
X1326500Y1769560D02*
X1370500Y1769560D01*
X402500Y1768560D02*
X475500Y1768560D01*
X669500Y1768560D02*
X769500Y1768560D01*
X1101500Y1768560D02*
X1145500Y1768560D01*
X1325500Y1768560D02*
X1368500Y1768560D01*
X399500Y1767560D02*
X503500Y1767560D01*
X665500Y1767560D02*
X765500Y1767560D01*
X1102500Y1767560D02*
X1146500Y1767560D01*
X1323500Y1767560D02*
X1367500Y1767560D01*
X397500Y1766560D02*
X505500Y1766560D01*
X660500Y1766560D02*
X761500Y1766560D01*
X1104500Y1766560D02*
X1148500Y1766560D01*
X1322500Y1766560D02*
X1365500Y1766560D01*
X395500Y1765560D02*
X507500Y1765560D01*
X655500Y1765560D02*
X757500Y1765560D01*
X1105500Y1765560D02*
X1150500Y1765560D01*
X1320500Y1765560D02*
X1364500Y1765560D01*
X393500Y1764560D02*
X508500Y1764560D01*
X650500Y1764560D02*
X754500Y1764560D01*
X1107500Y1764560D02*
X1151500Y1764560D01*
X1319500Y1764560D02*
X1362500Y1764560D01*
X392500Y1763560D02*
X509500Y1763560D01*
X645500Y1763560D02*
X750500Y1763560D01*
X1109500Y1763560D02*
X1153500Y1763560D01*
X1317500Y1763560D02*
X1360500Y1763560D01*
X391500Y1762560D02*
X510500Y1762560D01*
X640500Y1762560D02*
X746500Y1762560D01*
X1110500Y1762560D02*
X1155500Y1762560D01*
X1316500Y1762560D02*
X1359500Y1762560D01*
X390500Y1761560D02*
X510500Y1761560D01*
X634500Y1761560D02*
X742500Y1761560D01*
X1112500Y1761560D02*
X1156500Y1761560D01*
X1314500Y1761560D02*
X1357500Y1761560D01*
X390500Y1760560D02*
X511500Y1760560D01*
X629500Y1760560D02*
X738500Y1760560D01*
X1113500Y1760560D02*
X1158500Y1760560D01*
X1313500Y1760560D02*
X1356500Y1760560D01*
X389500Y1759560D02*
X511500Y1759560D01*
X623500Y1759560D02*
X735500Y1759560D01*
X1115500Y1759560D02*
X1160500Y1759560D01*
X1311500Y1759560D02*
X1354500Y1759560D01*
X389500Y1758560D02*
X512500Y1758560D01*
X617500Y1758560D02*
X731500Y1758560D01*
X1116500Y1758560D02*
X1161500Y1758560D01*
X1310500Y1758560D02*
X1352500Y1758560D01*
X389500Y1757560D02*
X512500Y1757560D01*
X611500Y1757560D02*
X727500Y1757560D01*
X1118500Y1757560D02*
X1163500Y1757560D01*
X1308500Y1757560D02*
X1351500Y1757560D01*
X388500Y1756560D02*
X514500Y1756560D01*
X604500Y1756560D02*
X723500Y1756560D01*
X1119500Y1756560D02*
X1165500Y1756560D01*
X1307500Y1756560D02*
X1349500Y1756560D01*
X388500Y1755560D02*
X516500Y1755560D01*
X597500Y1755560D02*
X718500Y1755560D01*
X1121500Y1755560D02*
X1167500Y1755560D01*
X1306500Y1755560D02*
X1348500Y1755560D01*
X388500Y1754560D02*
X519500Y1754560D01*
X590500Y1754560D02*
X714500Y1754560D01*
X1123500Y1754560D02*
X1169500Y1754560D01*
X1304500Y1754560D02*
X1346500Y1754560D01*
X388500Y1753560D02*
X522500Y1753560D01*
X581500Y1753560D02*
X710500Y1753560D01*
X1124500Y1753560D02*
X1170500Y1753560D01*
X1303500Y1753560D02*
X1345500Y1753560D01*
X388500Y1752560D02*
X528500Y1752560D01*
X570500Y1752560D02*
X706500Y1752560D01*
X1126500Y1752560D02*
X1172500Y1752560D01*
X1301500Y1752560D02*
X1343500Y1752560D01*
X389500Y1751560D02*
X544500Y1751560D01*
X546500Y1751560D02*
X702500Y1751560D01*
X1127500Y1751560D02*
X1174500Y1751560D01*
X1300500Y1751560D02*
X1341500Y1751560D01*
X389500Y1750560D02*
X698500Y1750560D01*
X1129500Y1750560D02*
X1176500Y1750560D01*
X1299500Y1750560D02*
X1340500Y1750560D01*
X390500Y1749560D02*
X425500Y1749560D01*
X427500Y1749560D02*
X693500Y1749560D01*
X1131500Y1749560D02*
X1178500Y1749560D01*
X1297500Y1749560D02*
X1338500Y1749560D01*
X390500Y1748560D02*
X417500Y1748560D01*
X440500Y1748560D02*
X689500Y1748560D01*
X1132500Y1748560D02*
X1179500Y1748560D01*
X1296500Y1748560D02*
X1337500Y1748560D01*
X391500Y1747560D02*
X413500Y1747560D01*
X447500Y1747560D02*
X685500Y1747560D01*
X1134500Y1747560D02*
X1181500Y1747560D01*
X1295500Y1747560D02*
X1335500Y1747560D01*
X392500Y1746560D02*
X410500Y1746560D01*
X455500Y1746560D02*
X680500Y1746560D01*
X1136500Y1746560D02*
X1183500Y1746560D01*
X1293500Y1746560D02*
X1334500Y1746560D01*
X393500Y1745560D02*
X408500Y1745560D01*
X463500Y1745560D02*
X676500Y1745560D01*
X1137500Y1745560D02*
X1185500Y1745560D01*
X1292500Y1745560D02*
X1332500Y1745560D01*
X394500Y1744560D02*
X405500Y1744560D01*
X475500Y1744560D02*
X671500Y1744560D01*
X1139500Y1744560D02*
X1187500Y1744560D01*
X1291500Y1744560D02*
X1331500Y1744560D01*
X397500Y1743560D02*
X403500Y1743560D01*
X494500Y1743560D02*
X666500Y1743560D01*
X1141500Y1743560D02*
X1189500Y1743560D01*
X1289500Y1743560D02*
X1329500Y1743560D01*
X494500Y1742560D02*
X661500Y1742560D01*
X1142500Y1742560D02*
X1191500Y1742560D01*
X1288500Y1742560D02*
X1328500Y1742560D01*
X495500Y1741560D02*
X657500Y1741560D01*
X1144500Y1741560D02*
X1193500Y1741560D01*
X1287500Y1741560D02*
X1326500Y1741560D01*
X496500Y1740560D02*
X651500Y1740560D01*
X1146500Y1740560D02*
X1196500Y1740560D01*
X1286500Y1740560D02*
X1325500Y1740560D01*
X497500Y1739560D02*
X646500Y1739560D01*
X1147500Y1739560D02*
X1198500Y1739560D01*
X1284500Y1739560D02*
X1323500Y1739560D01*
X499500Y1738560D02*
X641500Y1738560D01*
X1149500Y1738560D02*
X1200500Y1738560D01*
X1283500Y1738560D02*
X1322500Y1738560D01*
X500500Y1737560D02*
X636500Y1737560D01*
X1151500Y1737560D02*
X1202500Y1737560D01*
X1282500Y1737560D02*
X1321500Y1737560D01*
X501500Y1736560D02*
X630500Y1736560D01*
X1153500Y1736560D02*
X1204500Y1736560D01*
X1281500Y1736560D02*
X1319500Y1736560D01*
X503500Y1735560D02*
X624500Y1735560D01*
X1155500Y1735560D02*
X1207500Y1735560D01*
X1280500Y1735560D02*
X1318500Y1735560D01*
X505500Y1734560D02*
X618500Y1734560D01*
X1156500Y1734560D02*
X1209500Y1734560D01*
X1279500Y1734560D02*
X1316500Y1734560D01*
X507500Y1733560D02*
X612500Y1733560D01*
X1158500Y1733560D02*
X1212500Y1733560D01*
X1278500Y1733560D02*
X1315500Y1733560D01*
X510500Y1732560D02*
X605500Y1732560D01*
X1160500Y1732560D02*
X1214500Y1732560D01*
X1277500Y1732560D02*
X1314500Y1732560D01*
X513500Y1731560D02*
X598500Y1731560D01*
X1162500Y1731560D02*
X1217500Y1731560D01*
X1275500Y1731560D02*
X1312500Y1731560D01*
X516500Y1730560D02*
X590500Y1730560D01*
X1164500Y1730560D02*
X1220500Y1730560D01*
X1274500Y1730560D02*
X1311500Y1730560D01*
X522500Y1729560D02*
X581500Y1729560D01*
X1165500Y1729560D02*
X1223500Y1729560D01*
X1271500Y1729560D02*
X1310500Y1729560D01*
X529500Y1728560D02*
X569500Y1728560D01*
X1167500Y1728560D02*
X1226500Y1728560D01*
X1269500Y1728560D02*
X1308500Y1728560D01*
X545500Y1727560D02*
X545500Y1727560D01*
X1169500Y1727560D02*
X1230500Y1727560D01*
X1266500Y1727560D02*
X1307500Y1727560D01*
X1171500Y1726560D02*
X1234500Y1726560D01*
X1262500Y1726560D02*
X1306500Y1726560D01*
X1173500Y1725560D02*
X1241500Y1725560D01*
X1256500Y1725560D02*
X1304500Y1725560D01*
X1175500Y1724560D02*
X1303500Y1724560D01*
X1177500Y1723560D02*
X1302500Y1723560D01*
X1179500Y1722560D02*
X1301500Y1722560D01*
X1181500Y1721560D02*
X1299500Y1721560D01*
X1183500Y1720560D02*
X1298500Y1720560D01*
X1185500Y1719560D02*
X1297500Y1719560D01*
X1187500Y1718560D02*
X1296500Y1718560D01*
X1189500Y1717560D02*
X1295500Y1717560D01*
X1191500Y1716560D02*
X1294500Y1716560D01*
X1194500Y1715560D02*
X1292500Y1715560D01*
X1196500Y1714560D02*
X1291500Y1714560D01*
X1198500Y1713560D02*
X1290500Y1713560D01*
X1201500Y1712560D02*
X1289500Y1712560D01*
X1203500Y1711560D02*
X1288500Y1711560D01*
X1206500Y1710560D02*
X1287500Y1710560D01*
X1209500Y1709560D02*
X1285500Y1709560D01*
X1211500Y1708560D02*
X1282500Y1708560D01*
X1214500Y1707560D02*
X1280500Y1707560D01*
X1217500Y1706560D02*
X1277500Y1706560D01*
X1221500Y1705560D02*
X1274500Y1705560D01*
X1225500Y1704560D02*
X1271500Y1704560D01*
X1229500Y1703560D02*
X1268500Y1703560D01*
X1234500Y1702560D02*
X1264500Y1702560D01*
X1242500Y1701560D02*
X1257500Y1701560D01*
D02*
G04 End of Copper0*
M02*