; NON-PLATED HOLES START AT T1
; THROUGH (PLATED) HOLES START AT T100
M48
INCH
T1C0.125984
T100C0.038000
T101C0.035000
T102C0.069562
T103C0.040000
%
T1
X020890Y002744
X009861Y002744
X009851Y023204
X020890Y023204
T100
X009579Y020499
X003578Y014494
X002578Y014494
X017999Y023405
X014999Y023405
X006578Y014494
X015000Y002550
X005578Y014494
X005579Y020499
X003579Y020499
X018999Y023405
X016999Y023405
X012999Y023405
X015999Y023405
X008579Y020499
X009578Y014494
X013999Y023405
X006579Y020499
X002579Y020499
X008578Y014494
X014000Y002550
X016000Y002550
X001580Y020499
X004578Y014494
X001579Y014494
X007579Y020499
X004579Y020499
X007578Y014494
X017000Y002550
X011999Y023405
T101
X002000Y010555
X006000Y010555
T102
X018000Y006555
X014063Y006555
T103
X005560Y004775
X003000Y004775
X003000Y006555
X005560Y006555
T00
M30
